<svg xmlns="http://www.w3.org/2000/svg" viewBox="0 0 619.37 539.83"><defs><style>.cls-1{fill:#00bebe;}.cls-2{fill:#fefefe;}.cls-3{fill:#bfbfbf;}</style></defs><g id="Layer_2" data-name="Layer 2"><g id="Layer_1-2" data-name="Layer 1"><path d="M464.48,116.12c12,0,24,.11,35.94,0,2.3,0,2.69.68,2.67,2.78-.1,11.31,0,22.63-.08,33.94,0,1.74.44,2.24,2.2,2.23,11.4-.08,22.8,0,34.19-.08,1.93,0,2.51.44,2.49,2.45-.1,11.31,0,22.62-.09,33.94,0,1.84.42,2.37,2.31,2.35,11.32-.1,22.63,0,33.94-.09,1.89,0,2.56.38,2.54,2.44-.14,12.14-.13,24.28-.17,36.42-1.1,1-2.49.79-3.8.8-10.06,0-20.13,0-30.2,0-3.59,0-3.67.08-3.68,3.6q0,14.47,0,29c0,.91,0,1.83,0,2.74-.17,2.74-.92,3.55-3.68,3.63-4.75.12-9.49,0-14.23,0-5.91,0-11.82,0-17.73,0-3.07,0-3.28.21-3.29,3.24,0,9.24,0,18.47,0,27.71,0,.92,0,1.83,0,2.75,0,4.35-.4,4.74-4.67,4.75-9.74,0-19.47,0-29.21,0-4.58,0-4.58,0-4.58,4.69q0,14.6,0,29.21c0,4.45-.61,5.05-5.05,5.06-9.65,0-19.3,0-29,0-5.33,0-4.93-.33-4.94,5.07,0,9.65,0,19.3,0,29,0,4-.47,4.41-4.49,4.42-10.15,0-20.3,0-30.45,0-3.36,0-3.5.15-3.51,3.53q0,14.73,0,29.46c0,1,0,2-.08,3a2.83,2.83,0,0,1-2.83,2.89c-1,.09-2,.08-3,.08q-14.85,0-29.7,0c-3.21,0-3.35.15-3.35,3.41,0,10.16,0,20.31,0,30.46,0,1.3.24,2.69-.79,3.8-12.31,0-24.62,0-36.93.1-1.76,0-1.8-.8-1.79-2.11,0-11.31-.05-22.62.07-33.94,0-2.19-.53-2.77-2.74-2.74-11,.12-22,0-32.94.11-2.39,0-3.23-.38-3.18-3,.18-11.14,0-22.29.13-33.44,0-2-.62-2.42-2.5-2.4-11.31.08-22.62,0-33.93.08-1.94,0-2.51-.46-2.49-2.45.1-11.23.05-22.46,0-33.69,0-.89.3-1.84-.36-2.65,1.17-1.29,2.74-1,4.21-1,10.07,0,20.15,0,30.22,0,3.88,0,3.95-.07,3.95-3.86,0-10,0-20,0-30,0-4.16.44-4.6,4.57-4.61,10.15,0,20.31,0,30.47,0,3.22,0,3.4-.18,3.41-3.37,0-10.16,0-20.32,0-30.48,0-4.47.61-5.09,5-5.1,9.82,0,19.65,0,29.47,0,4.46,0,4.46,0,4.46-4.59,0-9.66,0-19.32,0-29,0-4.49.39-4.88,4.8-4.89,10.07,0,20.15,0,30.22,0,3.91,0,3.93,0,3.94-3.85,0-10,0-20,0-30,0-4.84.29-5.13,5-5.14h29.48c3.9,0,3.94,0,3.94-3.84q0-15,0-30c0-1.31-.18-2.68.61-3.88,1.23-1,2.69-.74,4.08-.74,10.22,0,20.44,0,30.66,0,3.47,0,3.6-.14,3.6-3.69,0-10.05,0-20.1,0-30.16a8.56,8.56,0,0,1,.44-3.92Z"/><path d="M116,271.42a7.09,7.09,0,0,0-.23,3.2q0,131,.05,262c0,2.64-.7,3.25-3.25,3.21-11.07-.14-22.15-.12-33.22,0-2,0-2.45-.59-2.43-2.5.09-10.49,0-21,.08-31.47,0-1.75-.43-2.22-2.19-2.21-11.32.08-22.65,0-34,.09-2.06,0-2.63-.5-2.62-2.59.08-24.06,0-48.12.11-72.18,0-2.37-.7-2.85-2.92-2.83-10.73.11-21.48,0-32.21.11-2.49,0-3.17-.53-3.17-3.11Q.12,301.38.06,179.61c0-7.25.08-14.49,0-21.73,0-2.18.4-2.95,2.8-2.92,11,.14,22,0,33,.1,1.9,0,2.53-.4,2.51-2.43-.11-11.24,0-22.48-.1-33.72,0-2.09.36-2.83,2.69-2.8,11.07.14,22.14,0,33.21.11,2.16,0,2.94-.37,2.91-2.77-.15-11.16,0-22.32-.11-33.47,0-2,.47-2.49,2.45-2.48q55.69.09,111.39,0c2.18,0,2.54.66,2.52,2.65-.09,12,0,24,0,36l-.36.32a8.57,8.57,0,0,1-3.92.45c-10.05,0-20.1,0-30.15,0-3.47,0-3.69.21-3.69,3.65,0,10,0,20.1,0,30.15,0,1.32.17,2.67-.6,3.88-.9.82-2,.67-3.08.67q-15.48,0-31,0a6.13,6.13,0,0,1-3.82-.86,1,1,0,0,0-1.47,1.42c1.08,1.48.86,3.17.87,4.82q0,14.73,0,29.46c0,1.22.25,2.52-.63,3.6a3.53,3.53,0,0,1-2.13.59c-11.89,0-23.77.25-35.66-.12-1.09-.29-1.75,0-1.84,1.25-.06.92-.1,1.83-.1,2.74q0,34.35,0,68.69c0,.92,0,1.83.11,2.74.09,1.26.74,1.55,1.84,1.23,12-.36,24-.12,36.08-.14A3,3,0,0,1,116,271.42Z"/><path class="cls-1" d="M425.57,155.12c0,12-.05,24,.05,35.95,0,2-.43,2.67-2.57,2.64-11.23-.11-22.46,0-33.7-.1-2,0-2.47.63-2.46,2.54.08,11.24,0,22.47.09,33.71,0,2-.44,2.67-2.56,2.65-11.24-.11-22.47,0-33.71-.12-2.31,0-2.67.7-2.65,2.78.1,11.24,0,22.47.09,33.71,0,1.89-.51,2.35-2.36,2.33-11.32-.08-22.64,0-34-.08-1.94,0-2.54.48-2.53,2.49.1,11.15,0,22.3.1,33.45,0,2.18-.42,2.95-2.81,2.92-11-.14-22,0-32.95-.12-2.3,0-3.07.39-3,2.91.17,11,0,22,.14,33,0,2.51-.74,2.95-3.05,2.93-12.07-.1-24.13,0-36.2,0l-38,.06c.83-1.48,2.29-1.1,3.54-1.1,10-.05,20,0,29.95,0,3.85,0,3.89,0,3.89-3.89q0-34,0-67.9c0-1.47-.27-3,.65-4.36,1.23-.95,2.68-.77,4.08-.77,10.23,0,20.46,0,30.69,0,3.4,0,3.53-.13,3.53-3.49q0-15.23,0-30.44c0-3.23-.17-3.41-3.38-3.41q-15.35,0-30.69,0c-3,0-3.26.26-3.27,3.3,0,10.15,0,20.29,0,30.44,0,4.18-.45,4.61-4.55,4.61H196.52c-1.15,0-2.35.18-3.38-.56-.9-1.25-.69-2.7-.7-4.1,0-10.05,0-20.1,0-30.16,0-3.39-.14-3.52-3.49-3.53-10.14,0-20.28,0-30.41,0-4.69,0-5.06-.39-5.06-5.16q0-15.21,0-30.41c0-1.55-.25-3.21,1.13-4.43,1.31-.75,2.75-.56,4.15-.57,9.82,0,19.64,0,29.46,0,4.21,0,4.22,0,4.22-4.33q0-14.61,0-29.21a10.31,10.31,0,0,1,.34-3.71,1.66,1.66,0,0,1,.63-.73,7.5,7.5,0,0,1,3.42-.38q14.67,0,29.33,0a23.42,23.42,0,0,0,5.67-.56,32,32,0,0,0,5.95.44h107c1.08,0,2.16,0,3.24.07,9.14-.13,18.29,0,27.44-.05h6.24c4.05,0,4.06,0,4.06-4q0-13.59,0-27.19c0-1.34,0-2.67,0-4a5.75,5.75,0,0,1,.45-2.68l.32-.36.39.5a1.44,1.44,0,0,1,.61.72,11.05,11.05,0,0,1,.31,3.71q0,14.73,0,29.45c0,3.72.1,3.82,3.73,3.82,10.07,0,20.13,0,30.2,0C423.1,154.28,424.5,154,425.57,155.12Z"/><path class="cls-1" d="M348.11,464.82c0-12.07,0-24.14-.05-36.21,0-2,.52-2.48,2.47-2.46,11.32.09,22.64,0,34,.09,2,0,2.5-.62,2.48-2.55-.08-11.32,0-22.64-.08-34,0-1.83.41-2.4,2.33-2.38,11.32.1,22.64,0,34,.1,2,0,2.45-.6,2.43-2.5-.09-11.32,0-22.64-.09-34,0-1.9.54-2.36,2.38-2.35,11.32.09,22.64,0,34,.09,2.12,0,2.62-.63,2.6-2.66-.09-11.32,0-22.64-.08-34,0-1.73.43-2.24,2.19-2.22,11.41.08,22.81,0,34.21.09,1.93,0,2.32-.56,2.31-2.38-.09-11-.06-22,0-33,0-3.74-.48-3.38,3.27-3.39,11,0,22-.06,33,.05,2.1,0,2.63-.6,2.61-2.65-.09-11.32,0-22.64-.08-34,0-1.67.33-2.29,2.16-2.27,12.15.09,24.3.06,36.45.07l0,0a4.63,4.63,0,0,1,.81,3.31q0,35.44,0,70.88a4.59,4.59,0,0,1-.82,3.31l0,0c-1.21,1-2.67.8-4.06.8-10,0-20,0-29.94,0-3.58,0-3.69.1-3.69,3.57q0,15,0,29.94c0,3.2.14,3.33,3.42,3.34,10.14,0,20.29,0,30.43,0,1.24,0,2.71-.4,3.53,1.09l-38.06,0c-.87.73-1.9.47-2.88.47-10.57,0-21.14,0-31.71,0-3.48,0-3.69.21-3.69,3.66,0,10.16,0,20.32,0,30.47,0,1.4.21,2.86-.8,4.07l0,0c-1.21,1-2.66.8-4.06.8-10,0-20.08,0-30.12,0-3.38,0-3.5.12-3.51,3.49,0,10.21,0,20.42,0,30.63,0,1.39.21,2.85-.83,4l0,0c-1.18,1-2.65.82-4,.83-10.2,0-20.41,0-30.62,0-3.37,0-3.49.13-3.49,3.51,0,10,0,20.09,0,30.13,0,1.39.2,2.85-.8,4.05l0,0a4.65,4.65,0,0,1-3.31.82H351.38a4.65,4.65,0,0,1-3.31-.82Z"/><path class="cls-2" d="M348.1,154.93c-.83,0-1.66.09-2.49.09q-55.5,0-111,0c-.93,0-2,.48-2.74-.61-1.09-.85-.93-2.08-.93-3.22q-.06-15.69,0-31.4c0-3.59.87-4.45,4.45-4.47,10-.06,19.94,0,29.91,0,4.59,0,4.59,0,4.59-4.71q0-14.46,0-28.92c0-1.39-.21-2.85.84-4l-.06,0c.88-.83,2-.74,3.07-.74q16.23,0,32.46,0c1,0,2-.13,2.85.63,1.25-.61.67-1.75.67-2.63,0-11.12.08-22.25,0-33.37,0-2,.55-2.52,2.51-2.5,11.95.11,23.9.1,35.85.12,1.16,1.15.85,2.64.85,4,0,10,0,20.08,0,30.13,0,3.37.12,3.49,3.49,3.5,10,0,20.09,0,30.13,0,1.38,0,2.86-.3,4,.8q0,19.22,0,38.42l.11.1c-1.24.92-2.69.73-4.09.74H352.63c-3.65,0-3.71.07-3.72,3.81,0,10.14,0,20.29,0,30.43C348.89,152.44,349.14,153.83,348.1,154.93Z"/><path d="M154.78,193.47a4.17,4.17,0,0,0-.36,2.43c0,11.4.05,22.8-.06,34.2,0,2.09.72,2.41,2.56,2.39,11.4-.07,22.8,0,34.19-.05,1.29,0,2.15,0,2.14,1.77-.08,11.9,0,23.8-.06,35.7a5.06,5.06,0,0,1-.28,1.18l0,.23-.19.14h-1a4.91,4.91,0,0,0-2.68-.26H118.41c-3.14,0-3.39-.18-3.4-3.38q0-35.7,0-71.38a5.85,5.85,0,0,1,.36-2.45,2.87,2.87,0,0,1,.63-.76,8,8,0,0,1,3.89-.5c10.84,0,21.68,0,32.51,0,1.64-.33,1.11-1.66,1.11-2.62,0-10.41,0-20.81,0-31.22a9.22,9.22,0,0,1,.26-3.22,1.6,1.6,0,0,1,.62-.72.91.91,0,0,1,.76.53,8.14,8.14,0,0,1,.39,3.43q0,15.4,0,30.81C155.57,191,155.78,192.36,154.78,193.47Z"/><path d="M386.57,77.63c-11.88,0-23.76-.11-35.64,0-2.15,0-2.92-.38-2.89-2.77.12-11.88,0-23.76,0-35.65-.58-1.09-1.61-.51-2.38-.52-11.32,0-22.64-.07-34,0-1.82,0-2.36-.38-2.35-2.3q.16-17,0-33.95c0-2.08.7-2.41,2.55-2.4q36.19.08,72.4,0c2,0,2.68.38,2.67,2.55-.08,24.22-.05,48.44-.05,72.66A4,4,0,0,1,386.57,77.63Z"/><path class="cls-3" d="M115.84,193.48c0,3.15-.11,6.31-.11,9.47,0,21.79,0,43.57-.07,65.36,0,2.49.7,2.94,3,2.93,23.45-.09,46.9-.06,70.35,0,.89,0,1.83-.28,2.67.27L116,271.42a50.91,50.91,0,0,0-8.19-.18c-10.13,0-20.26.06-30.38.1-1-.3-1.14-1.13-1.27-2a17.23,17.23,0,0,1-.1-2.49q0-34.63,0-69.27c0-1.4-.73-3.22,1.28-4.05,12.66.13,25.31.24,38-.06A.35.35,0,0,1,115.84,193.48Z"/><path d="M348.07,464.79c7.23,0,14.45.09,21.68.08q27.9,0,55.82-.08c0,12.15-.05,24.31,0,36.46,0,1.94-.46,2.48-2.45,2.48q-36.33-.11-72.67,0c-2,0-2.44-.57-2.43-2.49C348.14,489.09,348.08,476.94,348.07,464.79Z"/><path d="M580.38,310c0-.57.14-1.15.14-1.73q0-37,0-74c0-.58-.09-1.16-.13-1.73,12.22,0,24.45,0,36.68-.05,1.91,0,2.3.52,2.3,2.35q-.11,36.44,0,72.87c0,1.84-.41,2.36-2.31,2.34C604.84,309.89,592.61,310,580.38,310Z"/><path d="M386.94,116.55c0-12.15.1-24.3,0-36.45,0-2,.43-2.62,2.55-2.61q36.09.12,72.17,0c2.42,0,2.79.78,2.78,2.93-.08,11.9,0,23.8,0,35.71l0-.06a4.57,4.57,0,0,1-3.3.84H389.62a8.79,8.79,0,0,1-2.7-.4Z"/><path d="M231.56,271.42a4.26,4.26,0,0,1,.28,2.44c0,24,0,48,.06,72.05,0,2.21-.57,2.76-2.76,2.74-11.88-.07-23.76,0-35.64.06a5.67,5.67,0,0,1-.28-2.94q0-35.59,0-71.19c0-1.06.2-2.15-.46-3.12l.1-.09c4.46-.34,8.93-.12,13.4-.14,7.62,0,15.25,0,22.87,0A5.49,5.49,0,0,1,231.56,271.42Z"/><path d="M270.71,77.61c0,12.14-.06,24.28,0,36.42,0,1.71-.37,2.2-2.15,2.19-11.47-.09-22.94,0-34.41-.1-1.89,0-2.35.49-2.34,2.35.09,12,0,23.94,0,35.91-.58,1.14-1.63.61-2.45.62q-18.09.08-36.18.06a.89.89,0,0,1,.21-1.28,7.68,7.68,0,0,1,3.91-.51c9.14,0,18.28,0,27.43,0,3.93,0,4.13-.2,4.14-4q0-14.22,0-28.43c0-3.27-.13-3.4-3.35-3.41-9.39,0-18.78,0-28.18,0-1.31,0-2.67.17-3.91-.5a.57.57,0,0,1-.2-.82l-.06,0c12.3,0,24.6,0,36.9.11,1.79,0,1.76-.84,1.76-2.12,0-11.47,0-22.94,0-34.41,0-1.24-.1-2.2,1.73-2.19C246,77.6,258.33,77.59,270.71,77.61Z"/><path d="M503,387.4c0-12.07.1-24.13,0-36.2,0-2.05.53-2.66,2.62-2.64,12.14.14,24.29.14,36.44.18-.48,2.47-.19,5-.2,7.44,0,9.64-.07,19.27,0,28.9,0,1.83-.4,2.38-2.31,2.37C527.37,387.35,515.16,387.4,503,387.4Z"/><path d="M425.53,464.83c0-12,.08-24.07,0-36.11,0-2.11.59-2.6,2.63-2.57,12.12.13,24.24.11,36.35.15,0,12-.13,23.95,0,35.93,0,2.26-.61,2.72-2.76,2.7C449.65,464.81,437.59,464.85,425.53,464.83Z"/><path d="M464.47,426.34c0-12.32,0-24.64-.09-37,0-1.74.63-2,2.16-2,12.15,0,24.31,0,36.46,0,0,12.3,0,24.6.09,36.9,0,1.86-.81,1.95-2.23,1.94q-16.83,0-33.67,0C466.29,426.19,465.38,426.29,464.47,426.34Z"/><path d="M270.8,77.12q-.06-18.47-.15-36.94c0-1.25.45-1.51,1.6-1.51q17.73,0,35.45,0c.92,0,1.6,0,1.58,1.28-.17,12.38.29,24.77-.24,37.16a2.78,2.78,0,0,1-1.7.24H272.5A2.78,2.78,0,0,1,270.8,77.12Z"/><path d="M580.12,348.71c-11.81,0-23.62-.13-35.42-.06-2.22,0-2.94-.48-2.91-2.84.13-11.14.1-22.29,0-33.44,0-1.92.44-2.51,2.44-2.49,12.06.1,24.13.05,36.19,0q0,18.82.08,37.65A3.68,3.68,0,0,1,580.12,348.71Z"/><path d="M270.8,77.12H309a.7.7,0,0,1,0,.43l-38.38.11Z"/><path class="cls-2" d="M386.92,116.51c.81-.64,1.76-.32,2.64-.32q36.12,0,72.25,0c.9,0,1.81-.08,2.72-.11,0,9.55,0,19.1-.14,28.65,0,3.37.35,6.77-.25,10.13-3.39.06-6.78.16-10.17.17-9.46.05-18.93.07-28.4.11-12,0-24.08-.11-36.11-.05-1.94,0-2.5-.46-2.49-2.45C387,140.58,387,128.55,386.92,116.51Z"/><path class="cls-3" d="M193.27,116.06l.07.53a5,5,0,0,1,.71,3.33q0,15.4,0,30.82a4.82,4.82,0,0,1-.75,3.32c0,.33-.05.67-.08,1l0,0a4.45,4.45,0,0,1-3.29.84q-16,0-32.09,0a4.68,4.68,0,0,1-3.09-.68l-.55-.1a.34.34,0,0,1,0-.52q.07-13,.15-25.94c0-3.32.11-6.65,0-10-.08-1.93.44-2.54,2.47-2.52,11.31.1,22.62,0,33.93,0C191.61,116.17,192.44,116.1,193.27,116.06Z"/><path d="M77.35,193.57c-.73.78-.41,1.74-.41,2.62q0,36.27,0,72.54c0,.88-.3,1.85.46,2.61-1.44,1.15-2.24.68-2.53-1a5.57,5.57,0,0,1,0-1q0-36.81,0-73.62C74.85,193.06,75.19,192.8,77.35,193.57Z"/><path d="M154.27,154.56l0,.52.07-.05a2.86,2.86,0,0,1-1.78.71c-10.46.26-20.92.06-31.38.12-4.52,0-4.52,0-4.52,4.49,0,9.72,0,19.43,0,29.15,0,1.39.22,2.85-.81,4.05l0-.07-.53,0V159.59c0-1.3.19-2.57-1.1-3.6a1.79,1.79,0,0,1,2.54-2.53c1,1.29,2.3,1.09,3.6,1.09Z"/><path d="M231.56,271.42l-38.72-.05a.29.29,0,0,1,.07-.28c12.4,0,24.79,0,37.18.11,2,0,1.75-1.2,1.75-2.43,0-11.23,0-22.46,0-33.69,0-2,.41-2.69,2.55-2.67q17,.15,33.94,0c2,0,2.44.57,2.43,2.48q-.14,17.1,0,34.19c0,1.77-.51,2.22-2.23,2.21-11.23-.08-22.46-.05-33.69,0C233.71,271.26,232.64,271.37,231.56,271.42Z"/><path d="M348.1,154.93c0-12.21,0-24.42,0-36.64,0-1.78.49-2.17,2.21-2.16,12.13.07,24.26,0,36.39,0,0,12.4.06,24.8.14,37.21,0,1.32-.47,1.69-1.74,1.68Q366.58,155,348.1,154.93Z"/><path d="M154.78,155.18q10.54-.09,21.09-.15c5.79,0,11.59,0,17.38,0q0,18.18,0,36.36c0,1.33.09,2.34-1.85,2.32-11.87-.08-23.75,0-35.62,0a5.68,5.68,0,0,1-1-.18Z"/><path class="cls-3" d="M115.79,193.55c0-12.3,0-24.6-.09-36.89,0-1.33.4-1.67,1.69-1.66,11.8.07,23.59.08,35.39.12.86.86.74,2,.74,3q0,16.17,0,32.32a4.16,4.16,0,0,1-.74,3.06Q134.28,193.87,115.79,193.55Z"/><path class="cls-3" d="M152.78,193.54V155.12l1.52-.09q.06,18.6.14,37.21C154.44,193.52,153.94,193.88,152.78,193.54Z"/><path d="M193.3,154.06l0-37.47c11.22,0,22.44.06,33.66-.06,2.25,0,2.78.66,2.76,2.82-.11,10.47,0,21,0,31.42,0,3-.25,3.28-3.25,3.29Z"/></g></g></svg>