<svg xmlns="http://www.w3.org/2000/svg" viewBox="0 0 706.47 557.62"><defs><style>.cls-1{fill:#bfbfbf;}.cls-2{fill:#fefe00;}.cls-3{fill:#fefefe;}.cls-4{fill:#606023;}.cls-5{fill:#fefe82;}.cls-6{fill:#fefe89;}.cls-7{fill:#bebe00;}</style></defs><g id="Layer_2" data-name="Layer 2"><g id="Layer_1-2" data-name="Layer 1"><path class="cls-1" d="M50.88,304.3c.67-.73,1.55-.47,2.35-.47q24,0,48.07,0a4.36,4.36,0,0,1,3.06-.81q22.44,0,44.86,0a6.43,6.43,0,0,1,2.46.33,1.59,1.59,0,0,1,.71.67,1.07,1.07,0,0,1-.61.73,10.33,10.33,0,0,1-3.95.36q-20.46,0-40.94,0c-4.22,0-4.23,0-4.23,4.34q0,20.22,0,40.43c0,4.05,0,4.08,4,4.08h42.69c1,0,2,0,3,.06q25.08-.15,50.16,0h1q24.75-.15,49.5,0h1q25.13-.17,50.23,0c16.14-.14,32.27-.05,48.41,0a5.51,5.51,0,0,1,2,.29,2.32,2.32,0,0,1,.81.58,6.45,6.45,0,0,1,.61,3.64q0,72.18,0,144.35c0,4.11-.49,4.6-4.59,4.6q-33,0-65.94,0-114.75,0-229.52,0c-1.71,0-3.52.4-5.05-.84l.05.05a4.11,4.11,0,0,1-.73-3.07q0-72.89,0-145.77c0-1.08-.09-2.19.73-3.07l-.05.05c1.19-1,2.66-.82,4.05-.82q20.83,0,41.68,0c3.92,0,3.94,0,3.94-3.82q0-20.59,0-41.18c0-3.81,0-3.83-3.93-3.83H54.93C53.54,305.12,52.08,305.34,50.88,304.3Z"/><path d="M50.87,506.62c.91.06,1.82.17,2.72.17q149.22,0,298.42.08c2.68,0,3.05-.83,3.05-3.21q-.1-72.92-.05-145.82c0-1,0-2,0-3l.35-.36A7.24,7.24,0,0,1,359,354h42.53c1.39,0,2.84-.2,4.09.72,1.09,1.47.75,3.19.75,4.83q0,45.45,0,90.91c0,4.94,0,4.94,4.86,4.94q20.35,0,40.72,0c1.39,0,2.85-.25,4.1.68a3.43,3.43,0,0,1,.21,1.71q0,23.54,0,47.08a3.48,3.48,0,0,1-.19,1.72c-.9.07-1.81.2-2.71.2-15.07,0-30.14,0-45.21,0-2,0-2.65.43-2.64,2.55.1,15.32,0,30.64.1,45.95,0,1.8-.34,2.37-2.29,2.37q-175.1-.07-350.19,0c-1.8,0-2.38-.35-2.37-2.28C50.9,539.09,50.87,522.86,50.87,506.62Z"/><path d="M355.2,50.57c-.07-1.32-.18-2.64-.18-4,0-14.64,0-29.29,0-43.94,0-1.95.29-2.66,2.5-2.66Q507,.09,656.58,0c1.82,0,2.55.27,2.54,2.37-.1,15.4,0,30.79-.06,46.19,0,.66-.1,1.32-.16,2l-.37.33a4.93,4.93,0,0,1-2.42.45c-15.89,0-31.77.09-47.66-.05q-25.22.18-50.43,0c-17,0-34,.14-51,0s-34,0-50.95,0c-12.24.2-24.47.06-36.71.08-4.57,0-9.15.1-13.73-.06-15.89.14-31.78,0-47.67.05a5,5,0,0,1-2.43-.44Z"/><path d="M658.9,50.56c15,0,30,.09,45,0,2,0,2.61.47,2.61,2.57q-.09,98.88,0,197.76c0,2.12-.57,2.56-2.61,2.55-15-.11-30-.08-44.94-.09l-.34-.36c-.68-1.42-.46-2.94-.46-4.43q0-45.69,0-91.38c0-4.42,0-4.43-4.36-4.43q-20.47,0-41,0c-1.48,0-3,.24-4.36-.69a4.66,4.66,0,0,1-.78-3.32q0-22.07,0-44.15a7.08,7.08,0,0,1,.35-2.7,1.67,1.67,0,0,1,.65-.74,9.52,9.52,0,0,1,4.17-.46h41.42c3.81,0,3.86,0,3.86-3.94q0-21.07,0-42.16c0-1.4-.21-2.86.81-4.06Z"/><path d="M50.39,506.64c-3.31.05-6.62.14-9.93.15q-18.67,0-37.34,0a5.35,5.35,0,0,1-2.69-.23,5.4,5.4,0,0,1-.23-2.7q0-73.11,0-146.21a5.29,5.29,0,0,1,.24-2.7c2.47-.05,4.95-.15,7.43-.15q21.27,0,42.52.09a5.39,5.39,0,0,1,.23,2.7q0,73.19,0,146.36A5.39,5.39,0,0,1,50.39,506.64Z"/><path d="M304.23,101.54c0-16.13,0-32.25-.05-48.38,0-2.1.59-2.58,2.63-2.58,16.13.07,32.26,0,48.38,0l-.05,0a4.58,4.58,0,0,1,.82,3.3q0,22.14,0,44.27a7.26,7.26,0,0,1-.36,2.7,2.28,2.28,0,0,1-1,1.08,8.84,8.84,0,0,1-3.68.43q-21.43,0-42.86,0a7.59,7.59,0,0,1-3.43-.43Z"/><path d="M203.29,202.84c-.66-.79-.42-1.74-.42-2.63,0-15.21,0-30.41-.06-45.62,0-2.08.54-2.6,2.61-2.6,16.12.08,32.24,0,48.36,0,.1.13.21.25.32.38a7.51,7.51,0,0,1,.43,3.42q0,21.51,0,43a8.91,8.91,0,0,1-.39,3.44,2.37,2.37,0,0,1-1,1,9.07,9.07,0,0,1-3.69.43H207.31C205.92,203.71,204.45,204,203.29,202.84Z"/><path d="M152.26,303.71a3.12,3.12,0,0,1-1.92.35q-23.66,0-47.32,0a14.67,14.67,0,0,1-1.72-.21c0-8,.11-15.95.13-23.93s.07-16.13,0-24.2c0-1.84.42-2.36,2.32-2.35,16.21.08,32.43,0,48.64,0l.32.38a6.33,6.33,0,0,1,.44,2.92q0,21.89,0,43.76a5.71,5.71,0,0,1-.48,2.91Z"/><path d="M507,405.75c0,16.06,0,32.12,0,48.18,0,1.87-.45,2.32-2.31,2.31-16.06-.08-32.13,0-48.19,0-.82-.89-.7-2-.7-3.07q0-22.15,0-44.31a4.64,4.64,0,0,1,.6-3.11c.91-.79,2-.67,3.09-.67q22.2,0,44.41,0C505,405.05,506.17,404.86,507,405.75Z"/><path d="M152.35,253.4c0-6.15-.1-12.3-.11-18.44,0-10.06,0-20.12,0-30.18,0-1.39.16-2.05,1.84-2.05q23.46.11,46.9,0c1.66,0,1.86.6,1.86,2-.06,16.22-.05,32.43-.06,48.64l-.37.33a7.79,7.79,0,0,1-3.67.46q-21.19,0-42.37,0c-1.4,0-2.86.21-4.05-.83Z"/><path d="M608.43,304.35c0,16,0,31.93,0,47.9,0,2.07-.49,2.6-2.57,2.58-16-.09-31.94-.05-47.91-.05-.87-.87-.69-2-.69-3.06q0-22.16,0-44.31a4.64,4.64,0,0,1,.6-3.11c.91-.8,2-.67,3.09-.67q22.2,0,44.39,0C606.44,303.63,607.57,303.44,608.43,304.35Z"/><path class="cls-2" d="M202.75,253.38l.54,0c1-.84,2.16-.76,3.32-.76q21.67,0,43.36,0a5.32,5.32,0,0,1,3.36.66c.74.94.6,2.05.6,3.12q0,22.2,0,44.39c0,3.39-.37,3.78-3.69,3.78q-22.32,0-44.64,0a4.63,4.63,0,0,1-2.89-.54c-.86-1.06-.74-2.34-.74-3.57q0-21.76,0-43.52c0-1.24-.09-2.51.83-3.54Z"/><path d="M253.78,152c-.06-1.24-.18-2.48-.18-3.72,0-14.9,0-29.8,0-44.71,0-1.47.15-2.19,2-2.18,15.9.08,31.81,0,47.71.05a8.33,8.33,0,0,1,1,.11l-.06-.06a4.53,4.53,0,0,1,.83,3.3q0,21.93,0,43.86a5.12,5.12,0,0,1-.71,3.35c-1.05.88-2.34.77-3.57.77q-21.74,0-43.45,0c-1.24,0-2.52.09-3.55-.84Z"/><path d="M658.92,253.37c.05,3.74.13,7.47.14,11.2q0,18.31,0,36.62c0,.91-.11,1.81-.17,2.72a3.14,3.14,0,0,1-1.22.16H609.85a3.21,3.21,0,0,1-1.47-.18,4.33,4.33,0,0,1-.73-3.08q0-22.08,0-44.15c0-3.52.57-4.08,4.08-4.09q21.94-.06,43.9,0a4.53,4.53,0,0,1,3.3.83Z"/><path d="M50.88,304.3q21.84-.06,43.66-.09c2.21,0,5.15-1,6.42.45,1.09,1.23.38,4.11.39,6.25q0,20,0,39.92c0,3.95,0,3.95-4.07,3.95l-46.41,0Q50.87,329.55,50.88,304.3Z"/><path class="cls-3" d="M253.23,253.39l-49.94-.06V202.84l50,0,.33.38a7.06,7.06,0,0,1,.35,3.19q0,21.74,0,43.45C253.92,251,254.23,252.35,253.23,253.39Z"/><path d="M.44,354.94q0,75.81,0,151.61c-.7-.7-.33-1.58-.33-2.36q0-73.45,0-146.9C.1,356.52-.28,355.64.44,354.94Z"/><path d="M50.39,506.64V354.88l.53-.12c0,.91-.06,1.82-.06,2.74V503.93c0,.91,0,1.83.06,2.74Z"/><path class="cls-4" d="M608.43,303.82l50.46.09c-.75.8-1.72.38-2.58.39q-23.94,0-47.88.05l-50.38,0c0-.17,0-.33,0-.5.9-1,2.12-.84,3.26-.84q21.91,0,43.82,0C606.28,303,607.47,303,608.43,303.82Z"/><path class="cls-4" d="M558.05,304.38q-.06,18.58-.11,37.17c0,4.41,0,8.82,0,13.23,0,7-.11,14-.13,20.93,0,9,0,18,0,26.92,0,.89.26,1.83-.31,2.67l-.35-.36a4.57,4.57,0,0,1-.48-2.41c0-15.91-.1-31.83,0-47.74-.15-15.85,0-31.71,0-47.56,0-1.1-.21-2.4,1.17-3Z"/><path class="cls-4" d="M507,405.75l-50.41,0c0-.17,0-.33,0-.5a3.39,3.39,0,0,1,2.78-.83c15.88,0,31.77-.11,47.65,0,15.92-.15,31.84-.05,47.76-.05a3.65,3.65,0,0,1,2.59.68l.15.17c-.88.72-1.92.35-2.87.36Q530.85,405.73,507,405.75Z"/><path class="cls-4" d="M456.63,405.79q0,25.2-.05,50.41,0,23.9-.09,47.79c0,.86.39,1.83-.37,2.6q0-25.2-.07-50.39a4.65,4.65,0,0,1-.78-3.31q0-21.87,0-43.75c0-1.26-.31-2.72,1.17-3.52Z"/><path class="cls-3" d="M354.65,354.67q-14.86.06-29.71.11c-6.91,0-13.82,0-20.73,0-.9-.95-.82-2.14-.82-3.29q0-21.92,0-43.83a5.11,5.11,0,0,1,.72-3.34c.92-.78,2-.65,3.1-.65q22.21,0,44.44,0c3.31,0,3.7.4,3.7,3.79q0,22.08,0,44.18C355.35,352.66,355.53,353.8,354.65,354.67Z"/><path class="cls-3" d="M152.26,354.74q-24.19,0-48.4.08c-1.73,0-2-.68-2-2.21,0-15.3.06-30.6,0-45.9,0-1.95.63-2.31,2.42-2.3,16,.06,31.93,0,47.89,0,1,.63,1,1.7,1,2.67q.08,22.41,0,44.84A3.62,3.62,0,0,1,152.26,354.74Z"/><path class="cls-2" d="M152.26,354.74q0-23.79,0-47.57c0-.91-.07-1.82-.11-2.73a.3.3,0,0,0,.24-.11,3.67,3.67,0,0,1,2.82-.7q22.33,0,44.67,0c3.17,0,3.61.45,3.62,3.63q0,22.2,0,44.41c0,1.06.14,2.19-.77,3Z"/><path class="cls-2" d="M304.25,304.3q0,25.21,0,50.44l-50.42,0a3.47,3.47,0,0,1-.75-2.8q0-22.47,0-45c0-2.84.5-3.32,3.41-3.32q22.6-.06,45.21,0a4.74,4.74,0,0,1,2.2.34Z"/><path class="cls-3" d="M253.27,354.73H203.18a52.33,52.33,0,0,1-.14-7c0-13.73,0-27.46,0-41.18,0-1.89.38-2.56,2.44-2.54,15.23.09,30.45.06,45.68,0,1.5,0,2.42,0,2.41,2-.08,15.81,0,31.61,0,47.42A2.39,2.39,0,0,1,253.27,354.73Z"/><path class="cls-5" d="M354.65,354.67c0-16.06,0-32.11.09-48.16,0-2.16-1-2.17-2.58-2.17-16,0-31.94,0-47.91,0l-.11.09a.87.87,0,0,1,.37-.84c1.32-.72,2.76-.52,4.16-.52,13.8,0,27.6,0,41.4,0,3.69,0,3.77-.08,3.78-3.75,0-15.3-.09-30.59.06-45.89-.15-15,0-30.09-.06-45.13,0-4.52,0-4.51-4.49-4.53-15,0-30.09.1-45.14-.06-16.12.13-32.24.05-48.37,0a5.57,5.57,0,0,1-1.72-.22,3.08,3.08,0,0,1-.86-.5l0-.18.37-.36a4.13,4.13,0,0,1,2.81-.82c15.9,0,31.8-.11,47.7,0,15.06-.14,30.12,0,45.18-.06,4.53,0,4.53,0,4.54-4.49,0-15.06-.09-30.12.06-45.18-.15-15.91-.05-31.83-.06-47.75a4.52,4.52,0,0,1,.77-2.83l.32-.39a5.47,5.47,0,0,1,3.33-.77q22.16,0,44.3,0a6.78,6.78,0,0,1,2.45.32,1.59,1.59,0,0,1,.72.66,1,1,0,0,1-.59.74,10.36,10.36,0,0,1-3.95.38H359.52c-3.44,0-3.56.12-3.56,3.46q0,20.83,0,41.67c0,3.61.11,3.71,3.85,3.71H401a13.24,13.24,0,0,1,4,.29,1.68,1.68,0,0,1,.77.6.78.78,0,0,1-.46.78,9.92,9.92,0,0,1-4.19.42q-20.58,0-41.17,0c-3.87,0-3.94.07-4,3.86V197.8c0,3.72.09,3.8,3.74,3.81h42.92c1,0,2,0,3,.06,15.05-.15,30.1,0,45.15-.06,4.5,0,4.5,0,4.51-4.51,0-15-.09-30.09.06-45.14q-.16-25.22,0-50.43c-.14-16-.05-32,0-48a3.46,3.46,0,0,1,.8-2.78c4-.05,8-.14,12-.13q19.54,0,39.11.13a1,1,0,0,1-.59.73,10.35,10.35,0,0,1-3.95.37c-13.81,0-27.62,0-41.44,0-3.68,0-3.78.11-3.79,3.76q0,20.48,0,40.94c0,3.54.11,3.64,3.63,3.64,13.9,0,27.79,0,41.69,0,1.39,0,2.84-.22,4.14.57a.54.54,0,0,1,.08.83c-1.25.93-2.71.68-4.1.69-13.89,0-27.78,0-41.67,0-3.72,0-3.76,0-3.77,3.75q0,20.7,0,41.41c0,3.56.1,3.67,3.6,3.68h41.67c1.4,0,2.85-.21,4.14.58a.61.61,0,0,1,.14.86c-1.27.89-2.72.65-4.12.65q-20.73,0-41.46,0c-4,0-4,0-4,4.07q0,20.23,0,40.47c0,3.69.11,3.8,3.76,3.81h41.22a13.61,13.61,0,0,1,4,.27,1.67,1.67,0,0,1,.79.57,1,1,0,0,1-.5.79,9.28,9.28,0,0,1-4.18.46c-13.8,0-27.61,0-41.42,0-3.55,0-3.63.09-3.64,3.63,0,13.89,0,27.78,0,41.67,0,1.4.22,2.85-.6,4.13a.57.57,0,0,1-.85.1c-.87-1.27-.64-2.72-.64-4.11q0-20.82,0-41.64c0-3.7-.07-3.76-3.75-3.78-15.3,0-30.59.09-45.88-.06-15.05.15-30.1,0-45.14.06-4.53,0-4.52,0-4.54,4.48,0,15.05.1,30.09-.06,45.14.14,11.79,0,23.58.06,35.38,0,3.32,0,6.64,0,10,0,4.32,0,4.33,4.45,4.33q20.43,0,40.86,0c1.4,0,2.84-.21,4.14.57a.54.54,0,0,1,.09.84c-1.25.93-2.71.68-4.1.68q-20.86,0-41.71,0c-3.66,0-3.72.07-3.72,3.8q0,20.85,0,41.7c0,1.39.27,2.86-.71,4.09a.14.14,0,0,1-.2.11A1.13,1.13,0,0,0,354.65,354.67Z"/><path class="cls-6" d="M304.28,303.72c0,.23-.09.45-.14.67-16.14,0-32.28,0-48.43-.08-1.8,0-2,.77-2,2.23q.06,24.09,0,48.17l-.52,0c0-15.88-.05-31.76,0-47.64,0-2.17-.51-2.79-2.74-2.78q-22.45.17-44.9,0c-2,0-2.51.57-2.5,2.52.06,16,0,31.93,0,47.89h-.24l-.24,0c0-16,0-31.95.07-47.92,0-2-.53-2.49-2.49-2.48-16,.07-31.95,0-47.92,0,0-.21-.06-.41-.1-.62l0,.12a4.64,4.64,0,0,1,3.31-.81q22,0,43.94,0a4.91,4.91,0,0,1,3.33.8c16.12,0,32.24,0,48.36.09,1.68,0,2.09-.58,2.09-2.16-.07-16.12-.07-32.24-.09-48.36q0-25.21,0-50.42h.55a3.6,3.6,0,0,1,.7,2.57c0,15.92.11,31.84,0,47.75.13,11.81,0,23.62.06,35.43,0,3.41,0,6.82,0,10.23,0,4,.05,4.07,4,4.07h40.93a17.69,17.69,0,0,1,4,.2A2.09,2.09,0,0,1,304.28,303.72Z"/><path class="cls-7" d="M506.87,203l.3-.61c1.22-1,2.69-.73,4.08-.74q20.73,0,41.46,0c4,0,4,0,4-4.06q0-20.61,0-41.21c0-1.4-.22-2.85.58-4.15a.61.61,0,0,1,.86-.13c.89,1.27.65,2.72.65,4.11q0,21.09,0,42.19c0,3.7.06,3.75,3.77,3.75H604c3.5,0,3.63-.14,3.64-3.67q0-21.09,0-42.18a8.63,8.63,0,0,1,.45-3.93l.33-.36c15.9,0,31.8.11,47.69,0,2.47,0,3,.68,3,3q-.12,48-.06,95.89c0,.83-.08,1.66-.12,2.49-16,0-31.94.05-47.91,0-2,0-2.66.39-2.65,2.54.1,16,.06,32,.06,47.92q-23.8,0-47.62.07c-1,0-2-.25-2.92.32-.75.87-.4,1.92-.4,2.88q0,23.85,0,47.69c-1.2,1.05-2.67.8-4.06.8q-20.83,0-41.67,0c-3.85,0-3.88,0-3.88,3.89q0,20.83,0,41.67c0,1.39.25,2.85-.79,4q-23.84,0-47.67.05c-1,0-2-.3-2.91.36-.66.9-.36,1.93-.36,2.9q0,23.84-.05,47.68c-16,0-32,0-47.94,0-1.8,0-2.55-.23-2.55-2.35q.12-49.56.07-99.12l.37-.32a8.54,8.54,0,0,1,3.91-.45q20.79,0,41.58,0c1.22,0,2.5.21,3.64-.45,1-.92.73-2.16.73-3.29q0-21.08,0-42.15c0-4.23.31-4.55,4.53-4.55,14,0,27.93,0,41.9,0,3.84,0,3.92-.09,3.93-3.89,0-13.88,0-27.77,0-41.65a11.9,11.9,0,0,1,.35-4.2,1.68,1.68,0,0,1,.63-.74,9.39,9.39,0,0,1,4.17-.46q20.73,0,41.45,0c3.81,0,3.85,0,3.85-3.94q0-20.46,0-40.93c0-3.94,0-4-4.08-4H511.67a16.08,16.08,0,0,1-4-.22A2,2,0,0,1,506.87,203Z"/><path class="cls-2" d="M355.24,354.73c0-16.14,0-32.28-.1-48.42,0-2.11,1.09-2,2.5-2h44.93c1,0,2,0,3-.07l.36.35a6.69,6.69,0,0,1,.5,3.42q0,21.46,0,42.94c0,1.32.16,2.7-.84,3.8l.05,0Z"/><path class="cls-3" d="M557.7,50.74q21.88-.06,43.79-.1c2.32,0,4.64.06,7,.1.94.93.8,2.15.81,3.29q0,22.08,0,44.17a4.44,4.44,0,0,1-.84,3.3l0,0a4.37,4.37,0,0,1-3.29.85q-22.27,0-44.55,0a4.91,4.91,0,0,1-3.11-.67c-.91-1-.8-2.33-.8-3.56q0-21.81,0-43.63C556.71,53.15,556.5,51.74,557.7,50.74Z"/><path class="cls-2" d="M557.7,50.74q0,23.78-.08,47.56c0,1.08-.1,2.15-.15,3.23l-.37.32a7.93,7.93,0,0,1-3.67.45q-21.2,0-42.37,0a7.67,7.67,0,0,1-3.67-.47l-.36-.33V101a4.58,4.58,0,0,1-.8-3.3q0-21.67,0-43.34A4.7,4.7,0,0,1,507,51a.87.87,0,0,0,.16-.3q16.68-.06,33.37-.1C546.24,50.63,552,50.7,557.7,50.74Z"/><path class="cls-2" d="M405.62,101.51c0-.17,0-.34,0-.51a4.54,4.54,0,0,1-.8-3.31q0-21.82,0-43.66c0-1.14-.14-2.35.8-3.29q21.25-.06,42.52-.1c2.65,0,5.3.06,7.95.1q0,25.35,0,50.68a3.86,3.86,0,0,1-3,.88q-22.32,0-44.64,0A3.58,3.58,0,0,1,405.62,101.51Z"/><path class="cls-2" d="M608.42,101.5l0-50.76,32.33-.11,18.15-.1c.05,4.23.12,8.46.13,12.69,0,12,0,23.93.05,35.89,0,1.86-.46,2.36-2.34,2.36C640.65,101.41,624.54,101.47,608.42,101.5Z"/><path class="cls-3" d="M405.62,50.74q0,25.12,0,50.26l-50.67,0q0-23.61.07-47.23c0-1.07.08-2.15.13-3.22l43.52.11C401,50.64,403.3,50.7,405.62,50.74Z"/><path class="cls-2" d="M557.47,101.53q19.15-.06,38.3-.1c4.22,0,8.45,0,12.68,0q0,25.26,0,50.51l0-.05a4.46,4.46,0,0,1-3.29.84q-22,0-44,0a4.17,4.17,0,0,1-3.07-.73l-.53,0-.36-.35a6.91,6.91,0,0,1-.5-3.42q0-21.48,0-42.95c0-1.32-.16-2.69.82-3.81Z"/><path class="cls-3" d="M354.62,101.36l0,50.66a4.76,4.76,0,0,1-3.32.74q-21.91,0-43.82,0a6.09,6.09,0,0,1-2.92-.45l-.37-.33q0-25.24-.05-50.5l45-.06Z"/><path class="cls-3" d="M304.22,202.42l-50.6,0q0-25.24.1-50.51,16.66.06,33.33.11c5.72,0,11.44,0,17.17-.06h0c.86,1,.78,2.16.78,3.31q0,21.9,0,43.81A4.66,4.66,0,0,1,304.22,202.42Z"/><path class="cls-3" d="M202.87,303.82H152.29V253.34l50.51,0Q202.83,278.59,202.87,303.82Z"/><path d="M507,405.21c0-16,0-32.09-.05-48.14,0-1.85.44-2.34,2.32-2.33,16.05.08,32.1,0,48.15,0q0,25.19-.07,50.35Z"/><path class="cls-2" d="M405.56,304.28a.66.66,0,0,0,0-.48,4.3,4.3,0,0,1-.74-3.07q0-22.14,0-44.28a7,7,0,0,1,.35-2.69,1.75,1.75,0,0,1,.66-.74,8.24,8.24,0,0,1,3.68-.45q21.36,0,42.71,0c1.31,0,2.69-.2,3.83.75a.84.84,0,0,0,.47,0l.35.35a6,6,0,0,1,.5,3.16q0,21.46,0,42.93c0,1.67,0,3.36-1.24,4.71a5.17,5.17,0,0,1-3.35.66q-21.81,0-43.61,0c-1.23,0-2.51.12-3.55-.8Z"/><path class="cls-2" d="M507,152c-15.89,0-31.77-.1-47.65,0-2.33,0-2.87-.66-2.86-2.9q.15-22.45,0-44.91c0-2.05.49-2.65,2.6-2.64,16,.07,31.93,0,47.9,0h0a4.57,4.57,0,0,1,.82,3.3q0,21.94,0,43.89a5.87,5.87,0,0,1-.47,2.92C507.26,151.72,507.14,151.84,507,152Z"/><path class="cls-2" d="M304.22,202.42V152l50.43,0c0,16.12,0,32.24.08,48.36,0,1.65-.54,2.11-2.15,2.11C336.46,202.42,320.34,202.43,304.22,202.42Z"/><path class="cls-2" d="M456.07,152q0,23.93,0,47.85c0,1.53,0,2.63-2.13,2.62-16.12-.11-32.24-.08-48.36-.09a4.59,4.59,0,0,1-.8-3.31q0-21.68,0-43.34a4.59,4.59,0,0,1,.8-3.31V152a3.58,3.58,0,0,1,2.79-.79q22.32,0,44.64,0A3.86,3.86,0,0,1,456.07,152Z"/><path class="cls-2" d="M557.55,152c0,2.74-.14,5.47-.14,8.21,0,13.21,0,26.42,0,39.63,0,1.83-.29,2.59-2.4,2.58-15.95-.1-31.91-.07-47.86-.07l-.19,0c-.84-1-.75-2.16-.75-3.31q0-21.66,0-43.32a4.58,4.58,0,0,1,.8-3.3V152h0a4.53,4.53,0,0,1,3.3-.83q21.95,0,43.88,0a4.52,4.52,0,0,1,3.3.82Z"/><path class="cls-3" d="M456.07,152,405.62,152h0a4.54,4.54,0,0,1-.81-3.3q0-21.93,0-43.86a4.54,4.54,0,0,1,.81-3.3h0l50.45-.09Z"/><path class="cls-2" d="M405.62,101.5V152c-15.88,0-31.76-.09-47.65,0-2.34,0-2.85-.68-2.84-2.9q.15-22.45,0-44.9c0-2,.47-2.66,2.59-2.65C373.69,101.58,389.66,101.52,405.62,101.5Z"/><path class="cls-2" d="M253.74,253.44q0-25.24.08-50.47l50.43-.05A4.34,4.34,0,0,1,305,206q0,22.27,0,44.55a6.31,6.31,0,0,1-.35,2.44,1.75,1.75,0,0,1-.66.74,8.18,8.18,0,0,1-3.67.45q-21.37,0-42.76,0C256.25,254.17,254.88,254.36,253.74,253.44Z"/><path class="cls-3" d="M304.17,253.39q0-25.24.08-50.47c15.87,0,31.74.07,47.61,0,2.3,0,2.9.61,2.88,2.89-.11,15.87-.07,31.74-.08,47.61a4.66,4.66,0,0,1-3.32.78q-21.93,0-43.87,0C306.33,254.17,305.12,254.3,304.17,253.39Z"/><path class="cls-2" d="M355.16,253.42c0-16,0-31.92,0-47.88,0-2,.48-2.66,2.59-2.65,16,.09,31.93,0,47.89,0a4.55,4.55,0,0,1,.8,3.31q0,21.93,0,43.87a4.57,4.57,0,0,1-.82,3.3l0,0a3.92,3.92,0,0,1-2.81.82q-22.54,0-45.1,0A3.66,3.66,0,0,1,355.16,253.42Z"/><path class="cls-3" d="M405.6,253.39q0-25.24,0-50.48c15.9,0,31.8.07,47.71,0,2.13,0,2.82.43,2.8,2.72-.11,15.9-.07,31.8-.08,47.7Z"/><path class="cls-2" d="M456.52,253.32c0-15.79.09-31.59,0-47.38,0-2.35.48-3.08,3-3.06,15.8.13,31.59.08,47.39.09l.2,0a3.57,3.57,0,0,1,.76,2.57q.06,22.53,0,45.08a3.82,3.82,0,0,1-.83,2.79l.05,0a4.49,4.49,0,0,1-3.3.84H459.89a4.54,4.54,0,0,1-3.31-.8Z"/><path class="cls-2" d="M304.17,253.39h50.49q0,24.16,0,48.35c0,1.11.11,2.14-1.57,2.14q-24.44-.12-48.85-.17l-.07.11a4.5,4.5,0,0,1-.82-3.3q0-21.94,0-43.88a4.58,4.58,0,0,1,.82-3.3Z"/><path class="cls-3" d="M355.16,253.42l50.48-.07q0,25.23-.08,50.45c-16.15,0-32.29,0-48.44.1-2.14,0-1.94-1.16-1.94-2.53Q355.18,277.4,355.16,253.42Z"/><path class="cls-3" d="M507,51l0,50q-24.34,0-48.69.1c-1.5,0-1.78-.65-1.78-1.95q0-23.1,0-46.2c0-1.51.46-2,2-2C474.69,51,490.84,51,507,51Z"/><path class="cls-3" d="M507,152.46l0,49.93c-16.14,0-32.29,0-48.43.09-1.52,0-2-.46-2-2q.07-23.1,0-46.19c0-1.32.31-2,1.8-1.94Q482.69,152.45,507,152.46Z"/><path class="cls-3" d="M405.61,152.46v50c-16.06,0-32.12,0-48.18.06-1.71,0-2.28-.44-2.28-2.22q.11-22.84,0-45.68c0-1.51.24-2.24,2-2.24C373.33,152.43,389.47,152.43,405.61,152.46Z"/><path class="cls-3" d="M304.21,253.35v50.48c-16,0-32.06,0-48.09.08-2.18,0-2.38-.86-2.37-2.63,0-15.95,0-31.89,0-47.84Z"/><path d="M456.58,253.38l50.47,0c0,16.13,0,32.27,0,48.41,0,1.94-.48,2.5-2.46,2.49-15.23-.09-30.45,0-45.67-.1-2.07,0-2.65.54-2.63,2.62.09,15.06.05,30.11,0,45.17,0,.88.3,1.82-.27,2.66-.93-.93-.8-2.15-.8-3.29q0-21.81,0-43.63c0-1.15-.09-2.35.81-3.29.08-1.15.23-2.31.24-3.46q0-22.29,0-44.59A7.18,7.18,0,0,1,456.58,253.38Z"/><path d="M558.08,152h48.4c.66,0,1.33-.08,2-.12,0,16.06-.08,32.11,0,48.16,0,2.19-.51,2.77-2.73,2.75q-22.57-.15-45.17,0c-2.06,0-2.87-.33-2.85-2.67.11-15.14,0-30.28.06-45.42A6,6,0,0,1,558.08,152Z"/><path d="M507,253.38q0-25.22.07-50.44,24.46,0,48.92-.1c1.35,0,1.67.49,1.67,1.74q-.06,23.6,0,47.18c0,1.62-.78,1.66-2,1.66Q531.34,253.38,507,253.38Z"/><path d="M456.09,304.38q0,25.11,0,50.21c-.9.06-1.81.18-2.71.19H405.58q0-25.23,0-50.46c3.48-.05,7-.14,10.43-.14q18.68,0,37.34,0C454.29,304.19,455.19,304.31,456.09,304.38Z"/><path class="cls-3" d="M557.5,152H507V101.49h50.5q0,20,.1,40.05C557.63,145,557.55,148.49,557.5,152Z"/></g></g></svg>