<svg xmlns="http://www.w3.org/2000/svg" viewBox="0 0 435.68 726.23"><defs><style>.cls-1{fill:#fefefe;}.cls-2{fill:#be0000;}.cls-3{fill:#fefe00;}.cls-4{fill:#bfbfbf;}.cls-5{fill:#fcfc85;}</style></defs><g id="Layer_2" data-name="Layer 2"><g id="Layer_1-2" data-name="Layer 1"><path d="M387.14,145.13q0,22.73.06,45.45c0,16.32,0,32.64.06,49,0,2.12-.58,2.56-2.62,2.55-14.48-.09-29,0-43.45-.1-2,0-2.44.57-2.44,2.49.06,30.56,0,61.11.1,91.67,0,2.35-.68,2.83-2.89,2.81-14.4-.1-28.8,0-43.21-.1-2,0-2.45.55-2.45,2.49.06,30.47,0,60.95.11,91.42,0,2.48-.69,3-3,2.94-14.23-.12-28.47,0-42.7-.11-2.17,0-2.79.48-2.78,2.73.08,30.3,0,60.61.11,90.92,0,2.47-.44,3.33-3.17,3.3-14.23-.16-28.47,0-42.7-.12-2.12,0-2.61.61-2.59,2.65.08,14.4,0,28.81.09,43.21,0,2-.4,2.66-2.56,2.64-14.15-.11-28.3-.07-42.45,0-3.82,0-3.36-.53-3.37,3.25,0,14.23,0,28.47,0,42.71,0,1.92-.43,2.51-2.45,2.5-14.4-.09-28.8,0-43.2-.1-2.19,0-2.93.42-2.91,2.8.12,14.32,0,28.64.11,43,0,2.1-.36,2.8-2.67,2.78-14.4-.13-28.8,0-43.2-.12-2,0-2.64.39-2.62,2.54.1,14.48,0,29,.11,43.46,0,2.11-.58,2.57-2.62,2.56q-21.72-.13-43.45,0c-2,0-2.39-.63-2.39-2.49Q.07,581,0,438.24c0-2,.43-2.63,2.55-2.61,14.4.1,28.81.05,43.21.06.74,0,1.48.12,2.22.18.85.78.71,1.83.71,2.8q0,20.47,0,40.94a5.39,5.39,0,0,1-.78,3.34,1.06,1.06,0,0,0,.09,1.56,1,1,0,0,0,1.37,0c1.24-.91,2.67-.81,4.08-.81H93.63a7.2,7.2,0,0,1,3,.32c1.48,1.07,1.15,2.68,1.16,4.12,0,13,0,26,0,38.93,0,4.47,0,4.48,4.56,4.48H141c3.5,0,3.6-.1,3.6-3.67q0-19.85,0-39.68c0-1.47-.25-3,.72-4.34,1.31-1,2.85-.75,4.33-.75q19.46,0,38.93,0c.83,0,1.66,0,2.49,0a1.89,1.89,0,0,0,2.06-2.21c0-.84,0-1.67,0-2.5V392.2c0-1,0-2,0-3a2.29,2.29,0,0,1,2.28-2.45,26.92,26.92,0,0,1,3.24-.11h38.43c3.78,0,3.84-.08,3.86-3.95.05-14.56-.1-29.12.07-43.67-.15-15.29-.06-30.58,0-45.87a4.06,4.06,0,0,1,.67-2.61c1.28-1.06,2.84-.79,4.31-.8,13.23,0,26.47,0,39.71,0,3.68,0,3.74-.07,3.74-3.79q0-19.6,0-39.21c0-3.81,0-3.84-3.95-3.84q-19.61,0-39.21,0c-1.4,0-2.85.22-4.11-.68a4.41,4.41,0,0,1-.57-2.88q0-21.45,0-42.89c0-3,.53-3.58,3.45-3.58,15,0,30.08-.13,45.12,0,14.4-.14,28.79,0,43.19-.06,4.52,0,4.52,0,4.52-4.51q0-19.1,0-38.2a29.22,29.22,0,0,1,.1-3.24,2.42,2.42,0,0,1,2.38-2.41,21.17,21.17,0,0,1,2.25-.1q20.34,0,40.69,0a7.42,7.42,0,0,1,3.43.44Z"/><path d="M145.41,242.08c0-.91-.14-1.82-.14-2.73q0-45.58-.06-91.17c0-2.31.4-3.08,2.92-3.05,14.31.14,28.64,0,43,.12,2.08,0,2.6-.54,2.59-2.61q-.1-45.46,0-90.93c0-3.94-.44-3.37,3.5-3.38q22.35-.06,44.7-.06l.33.38a7.92,7.92,0,0,1,.46,3.67q0,68.75,0,137.48c0,1.32.14,2.67-.62,3.88-1.22,1-2.69.73-4.08.74-13.3,0-26.6,0-39.9,0-3.84,0-3.85,0-3.85,3.91,0,13.22,0,26.44,0,39.66,0,1.39.2,2.84-.7,4.1a4.66,4.66,0,0,1-3.32.77q-20.71,0-41.44,0a6,6,0,0,1-2.92-.46Z"/><path d="M241.83,48.27q.06-15,.13-29.95c0-5.16.14-10.33-.06-15.48C241.81.45,242.62,0,244.83,0q68.28.09,136.56.05c5.81,0,5.82,0,5.81,5.75l0,42.44-.38.34a7.67,7.67,0,0,1-3.67.47q-68.61,0-137.22,0c-1.39,0-2.86.24-4.07-.79Z"/><path d="M387.17,48.24c15.22,0,30.44.11,45.67,0,2.27,0,2.84.57,2.83,2.84q-.12,45.68,0,91.36c0,2.37-.71,2.79-2.87,2.77-15.23-.11-30.45-.09-45.67-.11l.06.06a3.91,3.91,0,0,1-.83-2.81c0-15.22-.1-30.44.05-45.65-.14-15.22,0-30.44-.05-45.66a3.89,3.89,0,0,1,.79-2.82Z"/><path d="M96.94,339.12c0-.74-.13-1.48-.13-2.23q0-46.12,0-92.26c0-2,.35-2.66,2.52-2.64,15.38.12,30.75.08,46.13.09l0,0a3.92,3.92,0,0,1,.82,2.81c0,15.21.11,30.42,0,45.63.14,15.12,0,30.24,0,45.37a6.23,6.23,0,0,1-.38,2.45,2.27,2.27,0,0,1-1,1.07,8.32,8.32,0,0,1-3.43.42H100.53C99.3,339.8,98,340,96.94,339.12Z"/><path d="M48.53,435.43c0-.82-.11-1.65-.11-2.48q0-45.66-.05-91.32c0-2.06.31-2.8,2.64-2.78,14.39.13,28.77.06,43.16.09.91,0,2-.51,2.7.66a3.17,3.17,0,0,1,.86,2.74c0,14.77.12,29.54,0,44.31,0,.33,0,.65,0,1,.14,15.06,0,30.12,0,45.18A5.75,5.75,0,0,1,97.4,435a1.64,1.64,0,0,1-.65.73,6.5,6.5,0,0,1-2.93.36q-21,0-42,0a6.34,6.34,0,0,1-2.93-.35Z"/><path class="cls-1" d="M96.93,387c-.05-8.48-.11-17-.12-25.44,0-7.32,0-14.64.06-22l.07-.48a13.83,13.83,0,0,1,1.7-.2H145c.83.9.65,2,.65,3.09q0,20.93,0,41.87c0,3.38-.37,3.76-3.71,3.76q-20.92,0-41.87,0A4.43,4.43,0,0,1,96.93,387Z"/><path d="M96.44,484.38H53.26c-1.37,0-2.75-.28-3.85,1.11a1.66,1.66,0,0,1-2.47-.1,1.71,1.71,0,0,1,0-2.48A3.36,3.36,0,0,0,48,480.06q0-22.1,0-44.19l.55-.44,0,0a4.05,4.05,0,0,1,.52.84,7.11,7.11,0,0,1,.27,2.47c0,14.32,0,28.63,0,42.95.06,1.13.88,1.24,1.74,1.33a27.14,27.14,0,0,0,3,.08c12.94,0,25.89,0,38.83,0C94.1,483.13,95.76,482.52,96.44,484.38Z"/><path class="cls-2" d="M387.16,48.25q0,24.24-.05,48.48c-1.37,1.13-3,.77-4.56.77q-43.41,0-86.81,0c-4.66,0-4.66,0-4.66,4.62q0,43.41,0,86.83c0,1.54.36,3.18-.71,4.58-15.05,0-30.09.12-45.14,0-2.59,0-3.13.71-3.11,3.17.1,15.05,0,30.1,0,45.15a.92.92,0,0,1-.74-.56,5.65,5.65,0,0,1-.36-2.44q0-20.94,0-41.88c0-1.14-.13-2.37.92-3.23l0-142c0-1.16,0-2.32-.08-3.49q51.94,0,103.88,0Q366.44,48.3,387.16,48.25Z"/><path class="cls-1" d="M290.35,193.54q0-47.21-.05-94.42c0-1.92.44-2.44,2.41-2.43q47.21.09,94.4,0l.09,48.46c-15.3,0-30.61.05-45.91-.05-2.12,0-2.55.58-2.54,2.61.09,14.47,0,28.94.09,43.42,0,1.79-.24,2.52-2.34,2.51C321.11,193.54,305.73,193.56,290.35,193.54Z"/><path class="cls-3" d="M96.44,484.38c-.79-.72-1.74-.33-2.61-.33q-21.63,0-43.27,0c-1.66,0-2.59-.29-2-2.17,1.2-1,2.66-.79,4-.8,13.06,0,26.12,0,39.18,0,3.85,0,3.88,0,3.88-3.89q0-18.48,0-36.94c0-3.36-.15-3.51-3.52-3.51-13.15,0-26.29,0-39.43,0-1.38,0-2.86.3-4-.79l-.15-.51a18.1,18.1,0,0,0,2.19.24H94.47a5.22,5.22,0,0,0,2.44-.31,1.79,1.79,0,0,1,.56.79,13.44,13.44,0,0,1,.28,3.95c0,13.12,0,26.25,0,39.37,0,3.52.09,3.61,3.64,3.61h39.36a10.7,10.7,0,0,1,3.94.34,1.14,1.14,0,0,1,.63.71c0,15.23-.11,30.46,0,45.7,0,2.26-.63,2.72-2.77,2.7q-21.73-.13-43.45,0c-1.88,0-2.34-.48-2.33-2.34.08-14.4,0-28.81,0-43.21C96.78,486.12,97.18,485.16,96.44,484.38Z"/><path class="cls-4" d="M241.83,338.91q.06,14.23.12,28.46c0,5.83-.07,11.66.05,17.48,0,2-.48,2.52-2.48,2.51-14.31-.09-28.63,0-43-.1-2.19,0-2.9.44-2.9,2.81.06,30.39,0,60.77,0,91.16,0,2.34-.67,2.85-2.9,2.84-15.15-.06-30.3,0-45.45.05a.29.29,0,0,1-.29-.19,2.48,2.48,0,0,1,.4-2.77c1.3-.78,2.74-.58,4.14-.58q19.33,0,38.66,0c4.3,0,4.3,0,4.31-4.2,0-13.63-.09-27.27.07-40.91-.09-15.75-.13-31.5,0-47.25,0-.32.09-.64.14-1a7.66,7.66,0,0,1,.21-.95,12.48,12.48,0,0,0,.18-3.23q0-20.29,0-40.61c0-1.23-.23-2.52.61-3.61,1.1-.78,2.37-.66,3.61-.66q20.43,0,40.86,0C239.47,338.19,240.75,338.07,241.83,338.91Z"/><path class="cls-4" d="M241.9,241.89l.22,0c.91.06,1.82.16,2.72.17,14.41,0,28.81,0,43.21,0,1.83,0,2.36.4,2.34,2.3q-.12,21.85,0,43.71c0,1.94-.46,2.51-2.46,2.49-14.31-.09-28.63-.05-43,0-1,0-2,.09-3,.13l-.4-.27a2.62,2.62,0,0,1-.41-.88A74.65,74.65,0,0,1,241,281q0-17.31,0-34.62a11.87,11.87,0,0,1,.28-3.71A1.61,1.61,0,0,1,241.9,241.89Z"/><path class="cls-3" d="M241.83,338.91l-48,0c-.82-.79-.69-1.83-.69-2.81q0-21.31,0-42.63c0-3.21.43-3.64,3.58-3.65q21.06,0,42.13,0c1,0,2-.13,2.83.66a.75.75,0,0,0,.29.09q0,22.68,0,45.34C242,336.92,241.87,337.92,241.83,338.91Z"/><path class="cls-3" d="M241.94,193.76q0,24.06,0,48.13a.51.51,0,0,0-.2.21,2.91,2.91,0,0,1-2.3.74c-14.92,0-29.84.2-44.76-.09a3.32,3.32,0,0,1-.93-.33l-.36-.35a7,7,0,0,0,.24-2.95c0-14.3,0-28.61,0-42.91,0-2,.32-2.67,2.52-2.65,14.55.11,29.09.06,43.64.06C240.46,193.62,241.2,193.71,241.94,193.76Z"/><path class="cls-3" d="M145.39,290.48c0-7.32-.13-14.65-.13-22,0-8.82.08-17.64.12-26.46l48,0,.06.05c.8.91.64,2,.64,3.09q0,21.14,0,42.28a4.87,4.87,0,0,1-.59,3.12,4.35,4.35,0,0,1-3.07.73q-20.86,0-41.74,0A4.32,4.32,0,0,1,145.39,290.48Z"/><path class="cls-1" d="M145.39,290.48l48,0a3.28,3.28,0,0,1,.24,2q0,21.94,0,43.9c0,2.65-.16,2.87-2.81,2.87q-21.45.07-42.9,0a3.45,3.45,0,0,1-2.6-.62Q145.33,314.53,145.39,290.48Z"/><path class="cls-5" d="M145.29,338.57c15.12,0,30.24-.05,45.36.05,2.24,0,2.76-.62,2.75-2.79-.09-15.12-.05-30.24-.05-45.37l.06-48.34a.87.87,0,0,1,.48,0c1,1.21.76,2.68.76,4.07,0,13.06,0,26.12,0,39.18,0,3.83,0,3.84,3.91,3.85q19.59,0,39.18,0c1.39,0,2.86-.24,4,.87a.74.74,0,0,1-.08.39c-15,0-29.93.12-44.89,0-2.4,0-3,.58-3,3,.12,15.14.06,30.27.06,45.41s0,30.21,0,45.32a4.74,4.74,0,0,1-.28,2.68c-1.32-1.07-1-2.58-1-3.95q0-19,0-37.94c0-.74,0-1.49,0-2.24-.07-2.74-.27-3-3-3q-20.22,0-40.43,0c-2.61,0-2.85.24-2.86,2.88q0,20.22,0,40.44c0,2.78.25,3,3.27,3,13.32,0,26.63,0,39.94,0,1.36,0,2.87-.34,3.94,1a1.57,1.57,0,0,1-.15.43c-1.24.94-2.7.67-4.09.67q-19.57,0-39.14,0c-3.74,0-3.77,0-3.77,3.72q0,19.83,0,39.65c0,1.47.25,3-.73,4.34-1.07.85-2.35.74-3.58.74q-20.68,0-41.38,0c-1.24,0-2.52.11-3.56-.81,0-.19,0-.38,0-.56l0,0c1.22-1,2.68-.77,4.07-.77q19.72,0,39.43,0c3.67,0,3.71-.06,3.71-3.8q0-19.47,0-38.93c0-3.52-.09-3.61-3.66-3.61q-19.71,0-39.42,0c-1.4,0-2.86.22-4.08-.76V387c15.14,0,30.28-.05,45.43,0,2.1,0,2.63-.61,2.62-2.66-.08-15.15,0-30.29,0-45.44Z"/><path class="cls-3" d="M96.93,387.49c15.21,0,30.43,0,45.64-.05,1.8,0,2.44.4,2.43,2.33-.09,14.47-.07,28.94,0,43.4,0,1.7-.43,2.3-2.21,2.29-15.3-.07-30.6-.06-45.89-.07Q96.9,411.45,96.93,387.49Z"/><path class="cls-3" d="M48.65,435.92c15.05,0,30.1,0,45.16-.05,2,0,2.7.51,2.69,2.63q-.14,20.46,0,40.92c0,2-.65,2.5-2.57,2.5-15.13-.07-30.27,0-45.4,0q0-22.75-.08-45.51C48.45,436.22,48.58,436.07,48.65,435.92Z"/><path class="cls-1" d="M97,435.91h48.44l.34.37a7.53,7.53,0,0,1,.47,3.67q0,18.69,0,37.39c0,1.39.22,2.85-.81,4.05-.13.85.15,1.75-.34,2.55L98.7,484c-1.08,0-1.91,0-1.9-1.52Q96.92,459.21,97,435.91Z"/><path class="cls-1" d="M145.39,435.9c0-15.21.07-30.43,0-45.65,0-2.09.38-2.84,2.69-2.82,15,.15,30.1.12,45.14.15l.06,47.66c-1.07,1.29-2.57,1-3.94,1q-19.53,0-39.06,0c-1.62,0-3.3.57-4.88-.29Z"/><path class="cls-4" d="M145.4,435.91a13,13,0,0,1,3.68-.44q20.63,0,41.26,0a7,7,0,0,0,2.94-.23c0,14.73,0,29.46.11,44.19,0,2.1-1.17,2-2.56,2q-22.72,0-45.44,0Q145.39,458.64,145.4,435.91Z"/><path class="cls-1" d="M241.78,290.11c-15.11,0-30.23,0-45.35,0-1.81,0-2.63-.28-2.62-2.4.11-15.2.07-30.41.08-45.61l47.81,0c.05,3.73.15,7.46.15,11.19Q241.85,271.7,241.78,290.11Z"/><path class="cls-3" d="M193.37,387.15c-6.91,0-13.81-.12-20.71-.14-8.33,0-16.65-.05-25,0-1.69,0-2.31-.4-2.3-2.2q.11-21.85,0-43.71c0-1.62.44-2.12,2.09-2.11,14.57.06,29.13.08,43.7,0,2.05,0,2.25.81,2.24,2.5-.05,14.49,0,29,0,43.46,0,.66.09,1.32.14,2A.37.37,0,0,0,193.37,387.15Z"/></g></g></svg>