<svg width="14" height="13" viewBox="0 0 14 13" fill="none" xmlns="http://www.w3.org/2000/svg">
<g clip-path="url(#clip0_178_2040)">
<path d="M6.99546 11.96H6.41254V12.4798H6.99546V11.96Z" fill="black"/>
<path d="M6.99546 12.4802H6.41254V13H6.99546V12.4802Z" fill="black"/>
<path d="M6.41251 11.96H5.82959V12.4798H6.41251V11.96Z" fill="black"/>
<path d="M5.82957 11.4402H5.24664V11.96H5.82957V11.4402Z" fill="black"/>
<path d="M5.24667 11.4402H4.66376V11.96H5.24667V11.4402Z" fill="black"/>
<path d="M5.24667 10.92H4.66376V11.4398H5.24667V10.92Z" fill="black"/>
<path d="M5.24667 10.4001H4.66376V10.92H5.24667V10.4001Z" fill="black"/>
<path d="M4.66374 10.4001H4.08081V10.92H4.66374V10.4001Z" fill="black"/>
<path d="M4.08079 10.4001H3.49786V10.92H4.08079V10.4001Z" fill="black"/>
<path d="M4.08079 9.88031H3.49786V10.4001H4.08079V9.88031Z" fill="black"/>
<path d="M4.66374 9.88031H4.08081V10.4001H4.66374V9.88031Z" fill="black"/>
<path d="M3.49789 9.36197H2.91498V9.88179H3.49789V9.36197Z" fill="black"/>
<path d="M2.91495 9.36197H2.33203V9.88179H2.91495V9.36197Z" fill="black"/>
<path d="M3.49789 8.84177H2.91498V9.36159H3.49789V8.84177Z" fill="black"/>
<path d="M2.91495 8.84177H2.33203V9.36159H2.91495V8.84177Z" fill="black"/>
<path d="M2.91495 8.32196H2.33203V8.84177H2.91495V8.32196Z" fill="black"/>
<path d="M2.91495 7.80362H2.33203V8.32343H2.91495V7.80362Z" fill="black"/>
<path d="M2.3317 7.80362H1.74878V8.32343H2.3317V7.80362Z" fill="black"/>
<path d="M1.74875 7.80362H1.16583V8.32343H1.74875V7.80362Z" fill="black"/>
<path d="M1.16587 7.80362H0.582947V8.32343H1.16587V7.80362Z" fill="black"/>
<path d="M0.582922 7.80362H0V8.32343H0.582922V7.80362Z" fill="black"/>
<path d="M0.582922 7.28342H0V7.80324H0.582922V7.28342Z" fill="black"/>
<path d="M0.582922 6.76358H0V7.2834H0.582922V6.76358Z" fill="black"/>
<path d="M2.3317 7.28342H1.74878V7.80324H2.3317V7.28342Z" fill="black"/>
<path d="M1.74875 7.28342H1.16583V7.80324H1.74875V7.28342Z" fill="black"/>
<path d="M1.16587 7.28342H0.582947V7.80324H1.16587V7.28342Z" fill="black"/>
<path d="M1.16587 6.76358H0.582947V7.2834H1.16587V6.76358Z" fill="black"/>
<path d="M1.16587 6.24374H0.582947V6.76357H1.16587V6.24374Z" fill="black"/>
<path d="M1.16587 5.72357H0.582947V6.2434H1.16587V5.72357Z" fill="black"/>
<path d="M1.74875 5.72357H1.16583V6.2434H1.74875V5.72357Z" fill="black"/>
<path d="M1.74875 5.20374H1.16583V5.72356H1.74875V5.20374Z" fill="black"/>
<path d="M2.3317 5.20374H1.74878V5.72356H2.3317V5.20374Z" fill="black"/>
<path d="M2.3317 4.68356H1.74878V5.20339H2.3317V4.68356Z" fill="black"/>
<path d="M2.91495 4.68356H2.33203V5.20339H2.91495V4.68356Z" fill="black"/>
<path d="M2.91495 4.16373H2.33203V4.68355H2.91495V4.16373Z" fill="black"/>
<path d="M3.49789 4.16373H2.91498V4.68355H3.49789V4.16373Z" fill="black"/>
<path d="M3.49789 3.63986H2.91498V4.15969H3.49789V3.63986Z" fill="black"/>
<path d="M4.08079 3.63986H3.49786V4.15969H4.08079V3.63986Z" fill="black"/>
<path d="M4.08079 3.11969H3.49786V3.63951H4.08079V3.11969Z" fill="black"/>
<path d="M3.49789 3.11969H2.91498V3.63951H3.49789V3.11969Z" fill="black"/>
<path d="M4.08079 2.59985H3.49786V3.11968H4.08079V2.59985Z" fill="black"/>
<path d="M4.08079 2.08002H3.49786V2.59984H4.08079V2.08002Z" fill="black"/>
<path d="M4.66374 2.08002H4.08081V2.59984H4.66374V2.08002Z" fill="black"/>
<path d="M4.66374 1.55984H4.08081V2.07967H4.66374V1.55984Z" fill="black"/>
<path d="M5.24667 1.55984H4.66376V2.07967H5.24667V1.55984Z" fill="black"/>
<path d="M5.24667 1.04001H4.66376V1.55983H5.24667V1.04001Z" fill="black"/>
<path d="M5.24667 0.519836H4.66376V1.03966H5.24667V0.519836Z" fill="black"/>
<path d="M5.82957 0.519836H5.24664V1.03966H5.82957V0.519836Z" fill="black"/>
<path d="M6.41251 0.519836H5.82959V1.03966H6.41251V0.519836Z" fill="black"/>
<path d="M6.99546 0.519836H6.41254V1.03966H6.99546V0.519836Z" fill="black"/>
<path d="M5.82957 0H5.24664V0.519825H5.82957V0Z" fill="black"/>
<path d="M6.41251 0H5.82959V0.519825H6.41251V0Z" fill="black"/>
<path d="M6.99546 0H6.41254V0.519825H6.99546V0Z" fill="black"/>
<path d="M6.13993 3.58081H5.55701V4.10063H6.13993V3.58081Z" fill="black"/>
<path d="M5.55704 3.58081H4.97412V4.10063H5.55704V3.58081Z" fill="black"/>
<path d="M5.8483 4.10062H5.26538V4.62043H5.8483V4.10062Z" fill="black"/>
<path d="M6.43119 4.10062H5.84827V4.62043H6.43119V4.10062Z" fill="black"/>
<path d="M6.69498 3.58081H6.11206V4.10063H6.69498V3.58081Z" fill="black"/>
<path d="M5.8483 3.06061H5.26538V3.58043H5.8483V3.06061Z" fill="black"/>
<path d="M6.43119 3.06061H5.84827V3.58043H6.43119V3.06061Z" fill="black"/>
<path d="M2.91495 7.28342H2.33203V7.80324H2.91495V7.28342Z" fill="black"/>
<path d="M5.82957 11.96H5.24664V12.4798H5.82957V11.96Z" fill="black"/>
<path d="M6.41251 12.4802H5.82959V13H6.41251V12.4802Z" fill="black"/>
<path d="M6.98994 12.4802H7.57288V11.9603H6.98994V12.4802Z" fill="black"/>
<path d="M6.98994 13H7.57288V12.4802H6.98994V13Z" fill="black"/>
<path d="M7.57319 12.4802H8.15613V11.9603H7.57319V12.4802Z" fill="black"/>
<path d="M8.15614 11.96H8.73907V11.4402H8.15614V11.96Z" fill="black"/>
<path d="M8.73904 11.96H9.32196V11.4402H8.73904V11.96Z" fill="black"/>
<path d="M8.73904 11.4402H9.32196V10.9203H8.73904V11.4402Z" fill="black"/>
<path d="M8.73904 10.92H9.32196V10.4002H8.73904V10.92Z" fill="black"/>
<path d="M9.32198 10.92H9.90491V10.4002H9.32198V10.92Z" fill="black"/>
<path d="M9.9053 10.92H10.4882V10.4002H9.9053V10.92Z" fill="black"/>
<path d="M9.9053 10.4001H10.4882V9.88032H9.9053V10.4001Z" fill="black"/>
<path d="M9.32198 10.4001H9.90491V9.88032H9.32198V10.4001Z" fill="black"/>
<path d="M10.4878 9.88181H11.0707V9.36199H10.4878V9.88181Z" fill="black"/>
<path d="M11.0708 9.88181H11.6537V9.36199H11.0708V9.88181Z" fill="black"/>
<path d="M10.4878 9.36197H11.0707V8.84215H10.4878V9.36197Z" fill="black"/>
<path d="M11.0708 9.36197H11.6537V8.84215H11.0708V9.36197Z" fill="black"/>
<path d="M11.0708 8.8418H11.6537V8.32196H11.0708V8.8418Z" fill="black"/>
<path d="M11.0708 8.32339H11.6537V7.80358H11.0708V8.32339Z" fill="black"/>
<path d="M11.6537 8.32339H12.2366V7.80358H11.6537V8.32339Z" fill="black"/>
<path d="M12.237 8.32339H12.8199V7.80358H12.237V8.32339Z" fill="black"/>
<path d="M12.8198 8.32339H13.4028V7.80358H12.8198V8.32339Z" fill="black"/>
<path d="M13.4028 8.32339H13.9857V7.80358H13.4028V8.32339Z" fill="black"/>
<path d="M13.4028 7.80359H13.9857V7.28375H13.4028V7.80359Z" fill="black"/>
<path d="M13.4028 7.28342H13.9857V6.76359H13.4028V7.28342Z" fill="black"/>
<path d="M11.6537 7.80359H12.2366V7.28375H11.6537V7.80359Z" fill="black"/>
<path d="M12.237 7.80359H12.8199V7.28375H12.237V7.80359Z" fill="black"/>
<path d="M12.8198 7.80359H13.4028V7.28375H12.8198V7.80359Z" fill="black"/>
<path d="M12.8198 7.28342H13.4028V6.76359H12.8198V7.28342Z" fill="black"/>
<path d="M12.8198 6.76358H13.4028V6.24375H12.8198V6.76358Z" fill="black"/>
<path d="M12.8198 6.24374H13.4028V5.72392H12.8198V6.24374Z" fill="black"/>
<path d="M12.237 6.24374H12.8199V5.72392H12.237V6.24374Z" fill="black"/>
<path d="M12.237 5.72357H12.8199V5.20375H12.237V5.72357Z" fill="black"/>
<path d="M11.6537 5.72357H12.2366V5.20375H11.6537V5.72357Z" fill="black"/>
<path d="M11.6537 5.20374H12.2366V4.68391H11.6537V5.20374Z" fill="black"/>
<path d="M11.0708 5.20374H11.6537V4.68391H11.0708V5.20374Z" fill="black"/>
<path d="M11.0708 4.68353H11.6537V4.16371H11.0708V4.68353Z" fill="black"/>
<path d="M10.4878 4.68353H11.0707V4.16371H10.4878V4.68353Z" fill="black"/>
<path d="M10.4878 4.1597H11.0707V3.63987H10.4878V4.1597Z" fill="black"/>
<path d="M9.9053 4.1597H10.4882V3.63987H9.9053V4.1597Z" fill="black"/>
<path d="M9.9053 3.63986H10.4882V3.12004H9.9053V3.63986Z" fill="black"/>
<path d="M10.4878 3.63986H11.0707V3.12004H10.4878V3.63986Z" fill="black"/>
<path d="M9.9053 3.11969H10.4882V2.59986H9.9053V3.11969Z" fill="black"/>
<path d="M9.9053 2.59985H10.4882V2.08003H9.9053V2.59985Z" fill="black"/>
<path d="M9.32198 2.59985H9.90491V2.08003H9.32198V2.59985Z" fill="black"/>
<path d="M9.32198 2.08002H9.90491V1.5602H9.32198V2.08002Z" fill="black"/>
<path d="M8.73904 2.08002H9.32196V1.5602H8.73904V2.08002Z" fill="black"/>
<path d="M8.73904 1.55984H9.32196V1.04002H8.73904V1.55984Z" fill="black"/>
<path d="M8.73904 1.04001H9.32196V0.520188L8.73904 0.520188V1.04001Z" fill="black"/>
<path d="M8.15614 1.04001H8.73907V0.520188L8.15614 0.520188V1.04001Z" fill="black"/>
<path d="M7.57319 1.04001H8.15613V0.520188L7.57319 0.520188V1.04001Z" fill="black"/>
<path d="M6.98994 1.04001H7.57288V0.520188L6.98994 0.520188V1.04001Z" fill="black"/>
<path d="M8.15614 0.519836L8.73907 0.519836V1.09076e-05L8.15614 1.09076e-05V0.519836Z" fill="black"/>
<path d="M7.57319 0.519836L8.15613 0.519836V1.09076e-05L7.57319 1.09076e-05V0.519836Z" fill="black"/>
<path d="M6.98994 0.519836L7.57288 0.519836V1.09076e-05L6.98994 1.09076e-05V0.519836Z" fill="black"/>
<path d="M7.84577 4.10062H8.42871V3.58079H7.84577V4.10062Z" fill="black"/>
<path d="M8.42872 4.10062H9.01166V3.58079H8.42872V4.10062Z" fill="black"/>
<path d="M8.13743 4.62082H8.72034V4.10099H8.13743V4.62082Z" fill="black"/>
<path d="M7.55416 4.62082H8.13708V4.10099H7.55416V4.62082Z" fill="black"/>
<path d="M7.29072 4.10062H7.87366V3.58079H7.29072V4.10062Z" fill="black"/>
<path d="M8.13743 3.58044H8.72034V3.06062H8.13743V3.58044Z" fill="black"/>
<path d="M7.55416 3.58044H8.13708V3.06062H7.55416V3.58044Z" fill="black"/>
<path d="M11.0708 7.80359H11.6537V7.28375H11.0708V7.80359Z" fill="black"/>
<path d="M8.15614 12.4802H8.73907V11.9603H8.15614V12.4802Z" fill="black"/>
<path d="M7.57319 13H8.15613V12.4802H7.57319V13Z" fill="black"/>
</g>
<defs>
<clipPath id="clip0_178_2040">
<rect width="13.9857" height="13" fill="white"/>
</clipPath>
</defs>
</svg>
