<svg width="35" height="35" viewBox="0 0 35 35" fill="none" xmlns="http://www.w3.org/2000/svg">
<path fill-rule="evenodd" clip-rule="evenodd" d="M7.77001 20.8826L10.6598 25.7318L17.3471 30.2988L25.8372 30.8294L31.4004 28.2868L32.0993 24.8643L31.8729 19.1527L32.3231 13.4411L32.2667 9.32141L31.2239 8.52763L30.3284 7.76107L29.5678 6.87934L28.5093 5.80302L27.9866 5.2822L24.9054 3.85722L24.6826 3.63242L21.9903 2.48086L21.423 2.02885L17.7718 1.31628L15.7193 1.35308L15.0117 1.90052L14.9257 2.03573L13.3353 3.17742L12.1882 3.45203L11.6185 3.63705L8.73909 5.03077L8.36606 5.2822L7.07285 6.60831L6.72704 6.89355L5.92937 7.8752L5.64069 8.24L5.11046 8.53735L3.96727 9.67814L3.66888 9.99494L3.46516 10.171L3.06146 11.4931L7.77001 20.8826Z" fill="white"/>
<path d="M14.9125 0.388916H21.3999L21.4171 2.03377L24.6581 2.02763L24.6723 3.64347L27.9648 3.63734L27.961 5.28817L29.5648 5.2762L29.5721 6.89832L31.2035 6.89563L31.2167 8.54407H32.8132L32.8273 11.7979H34.4856L34.4715 19.9575H32.8327V28.1128H31.223V29.7515H27.9551V31.4001H24.692V32.9904H18.1611V31.3904H9.98636L10.0082 29.7515H6.7185V28.1399L5.0895 28.1515L5.1079 26.4971L3.4635 26.5107V24.8526L1.84093 24.8448L1.8529 21.5977L0.208496 21.5964V13.4411H1.85544V10.1829H3.46514V8.54407H5.10401V6.90041H6.71371V5.29071H8.35736V3.64227H11.6155V2.03736H14.9077V3.63255L11.6155 3.64227V5.29565L8.35736 5.29071V6.89069L6.71371 6.90041V8.54407H5.10401V10.1877L3.46514 10.1829V13.4363L1.85544 13.4411L1.8529 21.5977L3.46514 21.5964L3.46365 24.8524L5.11059 24.8593L5.1079 26.4971H6.7185V28.1399L10.0058 28.1515L10.0082 29.7515H19.7708V31.3952H21.4242V29.7467H23.0678V31.3904L24.692 31.4001V28.1321H26.3065V29.7515H27.9551V26.5031H29.5696V28.1468H31.2166V19.9527L32.8327 19.9575L32.8273 11.7979L31.2133 11.7926L31.2167 8.54407H29.5696L29.5721 6.89832L27.9672 6.89563L27.961 5.28817L24.6702 5.2762L24.6723 3.64347L21.4143 3.63734L21.4171 2.03377L18.0446 2.04708L14.9077 2.03736L14.9125 0.388916Z" fill="black"/>
<path d="M27.9601 13.4411H31.2133V19.9527H29.5478V21.5843H26.326V24.8498H24.675V21.5988L26.326 21.5843V15.0969L27.9623 15.0877L27.9601 13.4411Z" fill="black"/>
<path d="M21.4193 16.6896V18.3381H23.0871V23.2399H21.4193V24.8547H16.5125V23.2303H14.9028V18.3429H16.5175V16.6896H21.4193Z" fill="black"/>
<path d="M26.326 15.0969V13.4411H27.9601V11.8169H32.8273V19.9575H31.2133V13.4411H27.9601V15.0878L26.326 15.0969Z" fill="#A2A2A2"/>
<path d="M16.5125 26.5079V24.8497H14.9028V18.3428H16.5175V16.6896H21.4193V18.3381H23.0871V23.2059H24.6751V16.6896H23.0871V15.075H16.5222L16.5175 16.6896H13.2641V15.075H11.6058V13.446H10.0058V11.8022H3.46515V13.446H10.0058V15.075H11.6058V16.6896H13.2641V26.5079H14.9028V28.137H18.1369V26.5079H16.5125Z" fill="#A2A2A2"/>
<path d="M1.85545 13.4411H6.74767V15.0897H8.31848V16.6897H10.0058V23.2351H8.35737V24.8643H3.4635V21.5964H1.85291L1.85545 13.4411Z" fill="#8D8D8D"/>
<path d="M0.208496 21.5964H1.8529V24.8448H3.4635V26.5107H5.1079V28.1515H6.7185V29.7515H10.0082V31.3904H18.1611V32.9904H24.692V31.4H27.955V29.7515H31.223V28.1466H32.8327V29.7418L31.223 29.7515V31.4097L27.955 31.4V32.9904H24.692V34.6518H18.1804L18.1611 32.9904H10.0348L10.0082 31.3904H6.7185V29.7515H5.1088L5.1079 28.1515H3.46514L3.4635 26.5107H1.8529V23.2351C1.8529 23.2351 0.208496 23.2837 0.208496 23.2351V21.5964Z" fill="#8D8D8D"/>
<path d="M19.7513 28.137H24.692V31.4001H23.0678V29.7467H21.424V31.3952H19.7708L19.7513 28.137Z" fill="#A2A2A2"/>
<path d="M24.675 26.4934H27.9551V29.7515H26.3065V28.1323H24.692L24.675 26.4934Z" fill="#A2A2A2"/>
<path d="M31.2133 24.8497H29.5766V28.1466H31.223L31.2133 24.8497Z" fill="#A2A2A2"/>
<path d="M26.326 5.28217V8.52954H24.675V10.2022H21.395V11.8023H13.2931V10.1732H10.0058V8.54225H8.36216V6.90039H6.71372V8.54405H5.10402V10.1877H3.46515V11.8023H10.0058V13.4458H11.6058V15.0751H13.264V16.6896H16.5173V15.0751H23.0871V16.6896H24.675V21.5987H26.326V13.4411H27.9601V11.8168H31.2133V8.54405H29.5698V6.8983H27.9672V5.28815L26.326 5.28217Z" fill="#FAFAFA"/>
<path d="M29.5478 21.5843H31.223V24.8498H29.5766V26.5031H24.675V28.1323L20.6628 28.1371H18.1367V26.5079H21.3805V24.8545H23.0871V23.2061H24.675V24.8498H26.326V23.2061H29.5358L29.5478 21.5843Z" fill="#FAFAFA"/>
<path d="M19.7708 29.7516H10.0082V28.1516H6.71851V26.4971H5.10791V24.8592H8.35738V23.2351H10.0058V16.6897H8.31849V15.0895H6.74753V13.4411H10.0058V15.075H11.6058V16.6897H13.264V26.5079H14.9028V28.1369H19.7514" fill="#666666"/>
</svg>
