<svg width="35" height="35" viewBox="0 0 35 35" fill="none" xmlns="http://www.w3.org/2000/svg">
<path d="M30.6422 34.3083V31.6794H28.0012V29.0384H25.3602V31.6732H4.26414V29.0384H1.62299V2.66824H4.26818V0.0311279H22.7192V2.68844H25.3802V5.29848H28.0252V7.94098H30.6543V10.5914H33.2832V34.3083H30.6422Z" fill="#5968EA"/>
<path d="M14.8135 5.29846H9.53133V7.93019H6.90244V13.2149H4.26263V21.1285H6.90244V23.7629H12.1818V21.1285H22.7299V23.7629H28.0092V21.1285H30.6543V13.2095H27.9985V7.94096H25.3587V5.29846H20.0901V7.9462H22.7244V10.5751H12.171V7.93019H14.8162L14.8135 5.29846Z" fill="white"/>
<path fill-rule="evenodd" clip-rule="evenodd" d="M22.7281 18.4906L20.0959 18.4935L20.0904 13.2151L22.7226 13.2122L22.7281 18.4906Z" fill="#7289DA"/>
<path fill-rule="evenodd" clip-rule="evenodd" d="M14.8146 18.4906L12.1822 18.4935L12.1767 13.2151L14.809 13.2122L14.8146 18.4906Z" fill="#7289DA"/>
<path d="M30.6543 0.0311279H28.0038V2.65613H30.6543V0.0311279Z" fill="#B7C5F7"/>
<path d="M28.0037 0.0311279H25.3535V2.65613H28.0037V0.0311279Z" fill="#9DAFEF"/>
<path d="M30.6543 2.6582H28.0038V5.28305H30.6543V2.6582Z" fill="#9DAFEF"/>
<path d="M28.0037 2.6582H25.3535V5.28305H28.0037V2.6582Z" fill="#899EE7"/>
<path d="M25.3533 0.0311279H22.7029V2.65613H25.3533V0.0311279Z" fill="#899EE7"/>
<path d="M33.2813 2.6582H30.631V5.28305H33.2813V2.6582Z" fill="#B7C5F7"/>
<path d="M30.6543 5.31403H28.0038V7.93888H30.6543V5.31403Z" fill="#899EE7"/>
<path d="M28.0018 5.29846H25.3513V7.92346H28.0018V5.29846Z" fill="#7289DA"/>
<path d="M33.2793 5.29846H30.6288V7.92346H33.2793V5.29846Z" fill="#9DAFEF"/>
<path d="M33.2793 7.92346H30.6288V10.5637H33.2793V7.92346Z" fill="#899EE7"/>
</svg>
