<svg width="35" height="35" viewBox="0 0 35 35" fill="none" xmlns="http://www.w3.org/2000/svg">
<path fill-rule="evenodd" clip-rule="evenodd" d="M25.4802 4.2852L29.1815 21.7342L29.4923 27.8526L31.9467 30.1192L33.844 32.6005L31.8774 32.8156L29.4983 31.8607L28.2257 30.8031L27.227 29.7359L24.7673 29.7129L19.545 30.8326L11.2895 31.7373L9.55548 30.794L8.04569 30.2726L7.80264 27.4325L4.09593 23.1197L1.35187 14.3908L1.377 11.9255L2.53155 11.9234L2.52601 9.8161L3.45187 9.81849L3.43796 7.72612L4.50995 7.7327L4.51069 6.72144H5.65059V5.7395L6.74306 5.73337L6.75054 4.59153L7.77557 4.58928L7.77317 3.46719L9.43971 3.13319L9.87108 2.47657L10.5908 1.90236L12.1595 1.47758L13.0582 0.917725L20.6886 0.978002L21.6124 2.54747L25.4802 4.2852Z" fill="white"/>
<path d="M21.5374 0.294312V1.47863H23.9206V2.54747H25.957V3.4141H23.9206V2.54747H21.5374V1.47863H12.1495V2.47523H9.86747V3.47183H7.77315V4.59841H6.74768V5.73936H5.64997V6.72145H4.50903V7.73256H3.44018V9.81222H2.53018V11.9356H1.37488V21.5546H2.35697V23.9666H3.3968V26.1475H4.43678V27.2162H5.59223V28.2273H6.70431V29.3539H7.6864V30.4082H6.68995L6.70431 29.3539H5.57772L5.59223 28.2273H4.43678V27.2162H3.41131L3.3968 26.1475H2.37148L2.35697 23.9666H1.37488V21.5401H0.36377V11.9356H1.37488V9.79786L2.53018 9.81222V7.7182L3.44018 7.73256V6.73596L4.50903 6.72145V5.72485L5.64997 5.73936V4.56955L6.74768 4.59841V3.5007L7.77315 3.47183V2.44636L9.86747 2.47523V1.43525L12.1495 1.47863V0.294312H21.5374Z" fill="#9A9594"/>
<path d="M25.957 3.41394H26.9934V4.57672H28.0981V5.67084H29.203V6.69975H30.2105V7.6639H31.2179V9.98212H32.2796V12.2532H33.4096V21.6593H32.3011V23.7283H31.1962V25.9489H30.3297V27.0756H31.1962V28.1586H32.3011V29.166H33.4096V30.2494H34.5109V33.369H33.4096V34.5714H30.2971V33.3582L33.4096 33.369V30.2494H32.2796L32.3011 29.166H31.1962V28.1586H30.3081L30.3297 27.0756H29.1922V25.9596H28.1198V25.0715H26.9825V23.9666H26.0075V25.0659H24.9893V26.1656H22.8933V27.0591H19.5298V26.1656H17.3742V25.0659H19.5135V26.1656H22.8933V25.0659H24.9893V23.9612L26.0075 23.9666V21.7459H27.0095L26.9934 18.5359H26.1158V16.2972H24.9749V15.1852H23.9783V14.2174H24.9731L24.9749 15.1852H26.1158V16.2972H27.0041L26.9934 18.5359H28.1146V21.7406L27.0095 21.7459L26.9825 23.9666H28.109V25.0715H29.203L29.1922 25.9596L30.3297 25.9489V23.7228L31.1962 23.7283V21.6376L32.3011 21.6593L32.2796 12.2532H31.2016L31.2179 9.98212H30.2159L30.2105 7.6639H29.2139L29.203 6.69975H28.0873L28.0981 5.67084H27.0041L26.9934 4.57672H25.957V3.41394Z" fill="#060511"/>
<path d="M32.2891 16.4272H31.1962V18.5397H30.2105V19.6553H29.2085V20.5273H28.1144V21.7405H29.2139V22.9755H28.1144V21.7405H27.0095V22.9755H28.1144V25.0715H29.203V25.9598H30.3297V23.723H31.1962V21.6376H32.3011C32.3011 21.6376 32.2607 16.4272 32.2891 16.4272Z" fill="#170098"/>
<path d="M30.2106 18.5396V15.3512H29.2356V16.4272H28.1236V17.4383H29.2211V18.5396H28.1144V19.6625H29.2084L29.2211 18.5396H30.2106Z" fill="#170098"/>
<path d="M28.12 25.9598H29.2032V27.0755H30.3296V28.1587H31.1963V29.1661H32.3013V30.2494H33.4096V33.3691H32.3013V31.2893H31.1998V30.2639H30.261V29.2962H29.2068V28.1119H28.12V25.9598Z" fill="#A30000"/>
<path d="M30.2971 33.3581H29.2068V32.3435H28.12V31.2603H27.0095V30.2782H25.9426V29.2816H27.0095V30.2782H28.12V31.2603H29.2068V32.3435H30.2971V33.3581Z" fill="#A30000"/>
<path d="M28.12 27.0863H27.0095V28.1152H28.1197L28.12 29.2816H29.2068V30.2925H30.2609V31.3198H31.1998V32.358H30.2971L30.2609 31.3198H29.2068V30.2925H28.12V29.2816H27.0095V28.1152H25.9568L25.9571 29.2816H27.0095V30.2782L28.12 30.2925V31.2603H29.2068V32.3435L30.2971 32.358V33.3582H32.3013V31.2891L31.1998 31.3198V30.2637L30.2609 30.2925L30.2608 29.2816H29.2068V28.1116L28.1197 28.1152L28.12 27.0863Z" fill="#FF0000"/>
<path d="M30.2609 30.2638V32.358H31.1998V31.2893H29.2066V30.2927L30.2609 30.2638Z" fill="#FF00C5"/>
<path d="M26.0076 23.9666V26.1656H27.0096V27.0863H28.1198V25.0714H26.9825V23.9666H26.0076Z" fill="#939694"/>
<path d="M22.8933 26.1656H23.9349V28.1358L25.0038 28.1321V29.2818H25.957L25.9569 28.1155L25.003 28.1236L24.9894 27.0864H22.8933V26.1656Z" fill="#939694"/>
<path d="M27.0096 26.1654H26.0076V27.0862H27.0096V26.1654Z" fill="#D2D1CF"/>
<path d="M26.0077 25.066H24.9894V26.1656H26.0077V25.066Z" fill="#D2D1CF"/>
<path d="M24.9894 26.1656H23.9349V27.0864H24.9894V26.1656Z" fill="#D2D1CF"/>
<path d="M25.9572 27.0863H24.9894V28.0829H25.9572V27.0863Z" fill="#D2D1CF"/>
<path d="M28.1197 28.1155H27.0094V29.2817H28.1197V28.1155Z" fill="#D6B6B0"/>
<path d="M29.2066 29.2816H28.1197V30.2927H29.2066V29.2816Z" fill="#D6B6B0"/>
<path d="M25.957 29.2817V30.2783H23.9349V31.32H21.6529V32.4157H12.1927V31.3326H10.9216V30.2783H7.68653V29.3539H6.70428V28.2272H7.67202L7.68653 29.3539H8.7986L8.76973 30.2783H9.78069V29.2817H10.9361L10.9216 30.2783H12.1927V29.2817H13.1603V28.2272H14.1859V29.2817H15.2619V28.2272H16.3306V29.2817H18.461V27.0574H19.5298V29.2817H20.5119V28.1696H21.6096V27.0574H22.8933V28.184L23.9349 28.1721V29.2817H22.8933V28.184L21.6096 28.1696V29.2817H16.3306V30.4083H15.2619V29.2817H14.1859V30.4083H13.1603V31.32L12.1927 31.3326V30.2783H13.1603V29.2817" fill="#170096"/>
<path d="M13.1605 29.2816V30.4082H12.1927V31.3326H13.1605V30.4082H14.1858V29.2816H13.1605Z" fill="#2C00FF"/>
<path d="M16.3307 29.2816H15.262V30.4082H16.3307V29.2816Z" fill="#009900"/>
<path d="M25.0038 29.2816V28.1321L23.9349 28.1357V27.0863H22.8932V28.1839H21.6097V29.2816H22.8932V28.1839L23.9195 28.1724L23.9349 29.2816H25.0038Z" fill="#2A00FB"/>
<path d="M21.6097 27.0574H19.5297V29.2817H20.512V28.1696H21.6097V27.0574Z" fill="#2A00FB"/>
<path d="M18.461 28.1696H17.3742V29.2818H18.461V28.1696Z" fill="#2A00FB"/>
<path d="M13.1604 29.2818V26.1656H14.1858V25.0661H13.1604V21.6413H9.76618V20.7025H7.68637V19.6481H6.61767V17.4384H5.62107V18.5359H4.55237V19.5325H5.63558V20.5436H4.55237L4.55222 21.551H3.41113L3.41128 22.8328H4.56673L4.55222 21.551H5.6643V23.9811H4.55237V26.1656H5.59953V28.2273H7.67201V29.3539H8.79859V30.2783H9.78068V31.3326H10.9216V30.2783H9.78068V29.2818H10.9361L10.9216 30.2783H12.1927V29.2818H13.1604Z" fill="#2D00FF"/>
<path d="M2.35699 21.5546H3.41118V22.8328H4.56678V25.0661H3.39682V23.9666H2.35699V21.5546Z" fill="#009600"/>
<path d="M5.66447 21.551H4.55225V23.9811H5.66447V21.551Z" fill="#009595"/>
<path d="M3.39679 25.066H4.56675V26.1655H5.59955V27.2161H4.43677V26.1475H3.39679V25.066Z" fill="#009595"/>
<path d="M7.68652 30.2782H9.78069V31.3325H12.1927V32.4156H21.653V31.3198H23.9349V30.2782H25.957V31.3469L23.9349 31.3198V32.4156H21.653V33.358H12.1927V32.4156H9.80238L9.78069 31.3325H7.68652V30.2782Z" fill="#060607"/>
<path d="M14.1858 26.1656V28.2274H15.262V29.2818H14.1858V28.2274H13.1605V26.1656H14.1858Z" fill="#009099"/>
<path d="M16.3307 29.2816V28.2272H14.1858V25.0659H13.1605V20.6951H9.84563V19.6877H7.6864V18.5179H9.88901V17.4383H8.79847V16.3623H7.6864V15.2249H8.79847V16.3623H9.84563V15.2249H8.79847V14.3366H11.0914V13.2208H14.1858V14.3366H17.3742V13.2208H19.5839V14.304L17.3742 14.3366V15.3513H16.3884V16.4057H15.251V18.5287H14.3195V21.6267H15.3197V23.8907H16.3884V25.0659H17.3742V26.1654H19.5136V27.0573H18.461V28.1696H17.3742V29.2816H16.3307Z" fill="#009800"/>
<path d="M23.9801 13.2208H27.0637V14.3908H28.1198V13.2317H29.1625V14.3908H30.2105V15.3512H31.1926V16.4272H30.2105V15.3512H29.2355V16.4272H28.1234V17.4383H29.2211V18.5396H30.2105V19.6553H29.2086V20.5273H28.1146V19.6626L29.2086 19.6553L29.2211 18.5396H26.9934V16.2972H26.1158V14.2246H23.9781L23.9801 13.2208Z" fill="#2D00FF"/>
<path d="M31.1962 18.5396V16.4272H32.2891V15.3512H31.1926V14.3963H30.2104V13.2208H29.1625V14.3908L30.2104 14.3963V15.3512H31.1926L31.1962 16.4272H30.2104V18.5396H31.1962Z" fill="#009100"/>
<path d="M26.1158 14.2246H24.9731V15.185H26.1158V14.2246Z" fill="#0F0073"/>
<path d="M27.0637 13.2208V14.3908H28.1199V13.2317L27.0637 13.2208Z" fill="#0F0073"/>
<path d="M21.6097 13.2318V12.2533H23.9782V13.221H29.1625V12.2533H28.12V11.0111H29.1625V12.2533H30.2213V13.221H31.245V14.3908H32.2845V13.2318L31.245 13.221L31.2396 12.2533H30.2213V11.0111H29.1625V9.98199H30.2159L30.2213 11.0111L31.2104 11.022L31.2179 9.98199H30.2159L30.2131 8.7905H29.1616L29.1598 7.66392H28.147V8.78511L29.1616 8.7905L29.1625 9.98199H28.1415L28.147 8.78511H27.0637V7.66392H28.147V6.69977H27.0637V4.57674H25.9572V3.41411H23.9206V2.54749H20.5842V3.52958H18.5621V2.54749H15.3197V5.69614H14.1858V6.73597H13.1605V5.69614H12.1205V6.70695H10.965V7.83368H9.86747V5.69614H8.79848V7.83368H9.86747V8.87351H8.79848V9.88447H9.86747V11.0689H7.6864V12.2533H6.80542V13.221H8.79848V12.2533H9.86747V11.0689H12.1784V9.79787H15.3197V8.6858H17.3742V12.2533H20.4831V13.221L21.6097 13.2318Z" fill="#009800"/>
<path d="M18.4899 8.7002V10.91H23.8915V9.80509H22.7506V8.7002H21.6097V9.80509H20.4976C20.4976 9.80509 20.5555 8.7002 20.4976 8.7002H18.4899Z" fill="#2E00FF"/>
<path d="M23.8915 8.70032H22.7506V9.80521H23.8915V8.70032Z" fill="#008E9F"/>
<path d="M22.7506 9.80518H21.6097V10.9101H22.7506V9.80518Z" fill="#1D00A1"/>
<path d="M23.9783 12.2531H22.7506V13.2208H23.9783V12.2531Z" fill="#2D00FF"/>
<path d="M23.9783 14.2247H22.7506V13.221H21.6097V12.2533H22.7506V13.221H23.9783V14.2247Z" fill="#180892"/>
<path d="M32.2892 15.3511H31.1927V14.3963L30.2106 14.3907V13.2209H29.1625V12.2532H28.12V11.011H29.1625V12.2532H30.2213L30.2106 13.2209H31.245V14.3907H32.2844L32.2892 15.3511Z" fill="#10098B"/>
<path d="M32.2844 13.2318V12.2533H31.2016V11.022H30.2213V9.98203H29.1625V8.79053H28.1469V7.66395H29.1598L29.1625 8.79053H30.2131V7.66395H29.2139V6.69981H28.0874V5.6709H27.0042V6.69981H28.0874V7.66395H27.0637V8.78515L28.1469 8.79053V9.98203H29.1625V11.0111L30.2213 11.022V12.2533H31.2016V13.221L32.2844 13.2318Z" fill="#10098B"/>
<path d="M29.2139 21.7406H28.1144V22.9753H27.0095V23.9665H28.1144V22.9753H29.2139V21.7406Z" fill="#2900F9"/>
<path d="M21.5374 1.47864H18.5549V3.52958H19.545V2.54748H21.5374V1.47864Z" fill="#009695"/>
<path d="M20.5842 2.54749H19.545V3.52958H20.5842V2.54749Z" fill="#2800F7"/>
<path d="M18.5548 1.47864H17.3742V2.54748H18.5548V1.47864Z" fill="#2800F7"/>
<path d="M17.3742 1.47864H16.291V2.54748H17.3742V1.47864Z" fill="#009695"/>
<path d="M15.3197 2.54749H14.3086V3.52958H13.2254V4.57674H12.0988V5.69599H13.1605V6.73597H14.1858V5.69599H15.3197V2.54749Z" fill="#2C00FF"/>
<path d="M13.1605 4.57678H14.1678V5.69618H13.1605V4.57678Z" fill="#130091"/>
<path d="M15.3197 2.54748V1.47864H13.1605V2.50411L15.3197 2.54748Z" fill="#009695"/>
<path d="M12.1494 3.52962H13.2254V2.50415H12.1494V3.52962Z" fill="#009695"/>
<path d="M12.099 3.52954H9.86749V4.5767H12.099V3.52954Z" fill="#009695"/>
<path d="M12.099 5.69592H10.9652V6.70703H12.099V5.69592Z" fill="#009695"/>
<path d="M10.965 6.70703H9.86731V7.83361H10.965V6.70703Z" fill="#2800F7"/>
<path d="M8.78424 4.59827H7.77313V5.69598H8.78424V4.59827Z" fill="#CFCFCD"/>
<path d="M12.1493 2.47522V3.52956H10.965V2.47522H12.1493Z" fill="#CFCFCD"/>
<path d="M5.64998 6.72144H6.80542V7.74332L5.64998 7.73255V8.81216H4.47284V7.73255H5.64998V6.72144Z" fill="#009A95"/>
<path d="M7.87412 6.72144H6.80542V7.72881H7.87412V6.72144Z" fill="#009B00"/>
<path d="M7.87412 7.729H6.80542V8.70033H7.87412V7.729Z" fill="#2B00FD"/>
<path d="M7.87412 8.70032H6.80542V9.80521H7.87412V8.70032Z" fill="#CFCFCD"/>
<path d="M4.47284 8.81213H3.44019V10.91H4.47284V8.81213Z" fill="#CFCFCD"/>
<path d="M20.4831 12.2532H17.3742V8.68579H15.3197V9.79786H12.1782V11.0689H9.86729V12.2532H8.79845V13.221H7.68652V14.3313H9.76977V13.221H11.0914V12.2532H12.1963V13.2389H14.1858V14.3366H17.3742V13.221H20.4831V12.2532Z" fill="#2B00FD"/>
<path d="M16.421 11.0652H15.3197V12.2531H16.421V11.0652Z" fill="#009300"/>
<path d="M15.3196 11.0652H14.1858V12.2531H15.3196V11.0652Z" fill="#170097"/>
<path d="M7.68655 15.225H6.80542V16.3516H7.68655V15.225Z" fill="#2B00FD"/>
<path d="M7.68655 11.0687H6.80542V12.253H7.68655V11.0687Z" fill="#CFCFCD"/>
<path d="M3.44 10.91H2.53015V11.9102H3.44V10.91Z" fill="#CFCFCD"/>
<path d="M2.53033 11.9102H3.44018V13.2209H2.53033V16.3082H3.45469L3.46187 17.4384H4.55958V18.5361H3.46187V19.5542L4.5524 19.5361V20.5436H3.46187V21.5546H2.54289L2.53212 20.5472H1.37488V19.5614H2.52584L2.53212 20.5472L3.46187 20.5436V19.5542L2.52584 19.5614L2.52031 18.5433H1.37488V17.4384H2.52315L2.52031 18.5433H3.46187V17.4384H2.52315L2.53033 16.3082L1.37488 16.3027V13.2318L2.53033 13.2209V11.9102Z" fill="#00969A"/>
<path d="M3.46169 14.3367H2.53015V15.3514H3.46169V14.3367Z" fill="#D4D0D1"/>
<path d="M13.1606 20.6951H10.8424V21.6411H13.1606V20.6951Z" fill="#009199"/>
<path d="M7.68652 16.3514V17.3914H8.79845V18.518H7.68652V19.6482H9.84575V20.6952H10.8422V21.6412H9.76618V20.7024H7.68652V19.6482H6.61768V18.5505L7.68652 18.518V17.3914H6.80539V16.3514H7.68652Z" fill="#CFD0D4"/>
<path d="M22.7506 13.2208V14.2246H23.9783V15.1852H22.7506V14.2246H19.5838V15.3512H17.3742V16.3514H16.3884V18.5396H15.251V21.6267H16.3306V23.8907H17.3742V25.0659H16.3884L16.3306 23.8907H15.3197V21.6267H14.3193V18.5287L15.251 18.5396V16.4057H16.3884V15.3512H17.3742V14.3366L19.5838 14.3042V13.2208H22.7506Z" fill="#969196"/>
<path d="M16.3306 22.7677H17.3742V23.8907H18.5187V25.066H17.3742V23.8907H16.3306V22.7677Z" fill="#009A99"/>
<path d="M19.5135 25.0661H22.8933V23.9666H23.9781V22.8535H25.0038V21.7405H26.0075V23.9666H24.9894V25.0661H22.8933V26.1656H19.5135V25.0661Z" fill="#009398"/>
<path d="M22.8933 25.0661V23.9665H23.9782V22.8534H25.0038V21.7405H26.0076V20.6952H24.9894L25.0038 21.7405H23.9782V22.8534H22.8933V23.9665H21.6097V22.8807L22.8933 22.8534V21.7405H23.9782V20.6952H24.9894V19.6624H26.0076V18.5396H24.9894V19.6624H23.9782V20.6952H22.8933V21.7405H21.6097V22.8807H20.5697V23.9169H19.5136V22.8534L20.5697 22.8807V21.7405H21.6097V20.6952H22.8933V19.6624H23.9782V18.5396H24.9894V17.4383H23.9782V18.5396H22.8933V19.6624H21.6097V20.6952H20.5697V21.7405H19.5136V22.8534H18.5189V21.7405H19.5136V20.6952H20.5697V19.6624H21.6097V18.5396H22.8933L22.877 17.4383H23.9782V16.2972H22.7605L22.7723 17.4383H21.6097V18.5396H20.5697V19.6624H19.5136V20.6952H18.5189V21.7405H17.4248V20.7087L18.5189 20.6952V19.6624H17.4248V18.5396H18.461V17.4383H19.5136V18.5396H20.5697V17.4383H21.6097V16.3515H22.7605V15.1851H21.6097V14.2247H20.4829V15.1851H21.6097V16.373H20.4829V15.1851H19.584V16.3551L20.4829 16.373V17.4275H19.5189V16.3515H18.4502L18.461 17.4383H17.4248V18.5396H16.3884V19.6454L17.4248 19.6624V20.7087H16.3884V19.6454H15.251V20.6952L16.3884 20.7087V21.7405H17.4248V22.8617L18.5189 22.8534V23.8907L19.5136 23.9169V25.0661H20.5697V23.9169L21.6097 23.9665V25.0661H22.8933Z" fill="#00FFFF"/>
<path d="M27.0095 18.5397H26.1158V21.7407H27.0095V18.5397Z" fill="#009396"/>
<path d="M24.9748 15.1852H23.9781V16.2974H24.9748V15.1852Z" fill="#009695"/>
<path d="M26.116 16.2972H24.9894V17.4382H26.116V16.2972Z" fill="#009695"/>
<path d="M18.4899 15.3512V16.3515H17.3742V17.4383H16.3884V16.3515H17.3742V15.3512H18.4899Z" fill="#CDCCCA"/>
<path d="M16.3884 18.5397H15.251V19.6455H16.3884V18.5397Z" fill="#CDCCCA"/>
<path d="M22.7506 14.2246H21.6097V15.1852H22.7605V16.3515H21.6097V17.4383H20.5697V18.5395H19.5135V19.6625H20.5697V20.6951H19.5135V21.7405H20.5697V22.8805H19.5135V23.9169H20.5697V25.0661H21.6097V23.9666H22.8933V22.8535H21.6097V21.7405H22.8933V22.8535H23.9783V21.7405H25.0038V20.6951H26.0075V19.6625H24.9894L25.0038 20.6951H23.9783V19.6625H22.8933V20.6951H23.9783V21.7405H22.8933V20.6951H21.6097V21.7405H20.5697V20.6951H21.6097V19.6625H20.5697V18.5395H21.6097V19.6625H22.8933V18.5395H23.9783V19.6625H24.9894V18.5395H26.0075V17.4383H24.9894V18.5395H23.9783V17.4383H22.877L22.8933 18.5395H21.6097V17.4383H22.877V16.2972H23.9783V17.4383H24.9894V16.2972H23.9783V15.1852H22.7605L22.7506 14.2246Z" fill="#B7D3CB"/>
<path d="M12.1963 12.2533V13.239H11.0914V14.3367H9.76978V13.221L11.0914 13.239V12.2533H12.1963Z" fill="#CFCFCD"/>
<path d="M1.37488 16.3026L2.53018 16.3081V17.4383H3.46187V18.5359H4.55958V19.5361H5.63546V20.5436H4.55225V21.551H3.46187V20.5436H2.53212V21.5546H1.37488V20.5472L2.53212 20.5436V19.5614H3.46187V20.5436H4.55225L4.55958 19.5361L3.46187 19.5614V18.5359H2.52031L2.53212 19.5614H1.37488V18.5432L2.52031 18.5359L2.53018 17.4383H1.37488V16.3026Z" fill="#C8C8C8"/>
</svg>
