<svg width="35" height="35" viewBox="0 0 35 35" fill="none" xmlns="http://www.w3.org/2000/svg">
<path d="M32.5342 2.46857H2.58044V32.4212H32.5342V2.46857Z" fill="white"/>
<path d="M4.70003 0.328308H30.3884V2.46525H32.5342V4.60235H34.6712V30.2995H32.5342V32.4212H30.3884V34.5677H4.70003V32.4212H2.58044V30.2909H0.431824V4.60235H2.58044V2.46869H4.71095L4.70003 0.328308Z" fill="#29B7E3"/>
<path d="M4.71096 2.46857H32.5342V30.2559H30.3884V32.4214H2.58044V4.6112H4.70004L4.71096 2.46857Z" fill="#00AADE"/>
<path d="M28.2601 6.73944H26.1142V8.88521H23.9772V6.73944H19.6944V8.88521H17.5514V13.1681H11.1286V11.0223H4.70001V13.1681H6.85446V15.3052H8.97405V17.4479H11.1286V21.7338H13.2657V23.8709H6.84578V26.0078H8.98288V28.1536H15.4202V26.0078H19.703V23.8621H21.8313V21.7251H23.9772V19.5967H26.123V13.1594H28.2601V11.031H30.3884V8.87654H28.2601V6.73944Z" fill="#F8F9FA"/>
</svg>
