<svg width="35" height="35" viewBox="0 0 35 35" fill="none" xmlns="http://www.w3.org/2000/svg">
<path fill-rule="evenodd" clip-rule="evenodd" d="M15.584 27.7541L23.4623 25.7773L26.7088 21.0568L28.2727 17.444L28.8542 11.9039L28.6385 7.23018L28.3832 6.19499L26.9965 6.42593L25.7572 7.05339L23.011 6.29236L20.7629 5.44174L17.9217 3.01089L17.4804 0.960693L16.4841 1.09097L15.9937 1.50274L15.1468 2.64503L15.0044 4.39578L12.2883 5.2093L10.9869 5.73401L9.87032 6.42204L8.05884 7.04755L7.40626 6.42279L5.68498 5.72832L5.31209 6.6268L5.65671 8.34151L5.49397 11.5418L4.96164 12.5346L3.90656 14.1802L4.11865 15.937L2.28818 15.7175L1.29637 16.2086L0.397583 17.7963L2.69801 18.559L3.65737 18.9667L4.96164 21.491L7.35899 25.2933L9.11797 27.399L13.5868 28.2116L15.584 27.7541Z" fill="white"/>
<path d="M25.7572 12.5418L24.5253 12.5469V10.0833H23.3085V8.89148H22.1067V11.335H23.2985V13.7686H22.1067V12.5469H20.8449V11.33H18.4214V12.5469H15.9578V11.33H13.514V12.5469H12.2923V13.7686H14.7592V14.997H17.1883V17.444H14.7413L14.7592 14.997H12.2923V13.7686H11.0756V16.2123H9.85385V14.9854H8.63199V16.2072H7.41013V17.4363H8.63692L8.63199 16.2072L9.85385 16.2123V17.4363H11.0756V19.8776H9.85878V22.3412H7.39517V21.0993H6.17346V22.3412H7.39517V23.5729H8.6269V24.7747H9.86881L11.0806 25.9999H26.9505V12.5418H25.7572Z" fill="#808080"/>
<path d="M15.9678 0.302246H18.4181V1.53727H19.6331V3.98757H22.0766V5.20943H24.5202V6.43787H26.9772V5.22274H29.4075V6.43787H30.6494V8.86812H29.4341V12.5668H30.6494V15.0105H33.1063V16.2121H34.3349V18.6559H33.0662V19.8976H30.6494V22.3412H29.4341V24.7714H28.1925V27.215H29.4341V29.6586H28.2057V30.887H25.7754V29.6586H22.0766V30.887H19.6063V33.344H18.4046V34.5858H15.9678V33.3306H14.7459V30.887H12.3024V29.6853H8.64366V30.887H6.17332V29.6586H4.97165V27.215H6.2134V24.7447H4.97165V22.3279H3.75652V19.8976H1.27287V18.6291H0.0577393V16.2121H1.28618V15.0005H3.72975V12.5368H4.96163V8.87141H3.73992V6.43787H4.97165V5.19596H7.4052V6.42784H6.17332V7.6497H7.41522L7.4052 6.42784H9.86881V5.19596H12.2823V6.44789L9.86881 6.42784V7.62966H8.61703V8.88143H7.39518V10.0831H6.19336V12.5268L4.96163 12.5368V19.8876H6.17332V22.3412H7.39518V23.5729H8.62691V22.3412H9.84877V23.5629L8.62691 23.5729V24.7747H9.86881L9.84877 23.5629H12.3124V22.3211H11.0605V21.1094H12.3124V22.3211H13.5241V21.106H14.7426V22.3279L13.5241 22.3211V23.5496L12.3124 23.5629V24.7649H11.0805V25.9999H12.2956L12.3124 24.7649H13.5175L13.5241 23.5496H14.7459L14.7426 22.3279H15.9678V23.5496H14.7459V26.0132H15.9611L15.9678 23.5496H17.1883V24.7847H19.6465V23.5295H18.4181V22.3279H15.9678V19.8708H14.7326V18.6291H13.5441V14.997H14.7594V13.7686H18.4314V14.9837L14.7594 14.997L14.7326 18.6291H17.1962V17.444H18.4447L18.4314 14.9837H19.6598V16.2255H20.875V17.473H22.0899V19.8976H23.3185V21.086H22.0899V22.3279H20.8349V23.5698H22.1034V24.7982H23.3052V23.5563L22.1034 23.5698L22.0899 22.3279H23.3052L23.3185 21.086H24.547V22.3412H25.7889V21.0993L24.547 21.086V18.6424H23.3185V17.4362H22.0917V16.2072H23.2985V17.414H24.5353L24.547 18.6424H25.7621V19.8776H26.994V18.6608L25.7621 18.6758V16.2172H24.5353V14.9904H25.7672L25.7621 16.2172H26.984V12.5418H25.7572V13.7786H24.5253V12.5469L25.7572 12.5418V8.86887H24.5302L24.5202 6.43787H22.0733L22.0766 5.20943L12.2823 5.19596V3.97425H14.766V1.51064H15.9678V3.9943H17.1962V1.51064H15.9678V0.302246Z" fill="black"/>
<path d="M33.1063 16.2123H30.6494V17.4364H33.1063V16.2123Z" fill="#808080"/>
<path d="M9.85387 12.5367H8.62708V13.7635H9.85387V12.5367Z" fill="#808080"/>
<path d="M14.741 10.0982H13.5191V8.87137H14.741V7.64966H15.9727V8.87391L14.741 8.87137V10.0982Z" fill="#808080"/>
<path d="M20.8649 7.64954H19.6331V8.87379H20.8649V7.64954Z" fill="#808080"/>
<path d="M22.0768 5.20923L22.0733 6.43782H24.5202L24.5304 8.86897H25.7571V12.5417L24.5253 12.5468V10.0832H23.3085V8.89141H22.1067V12.5468H23.2985V13.7685H22.1067V12.5468H20.8449V11.3299H18.4214V12.5468H15.9577V11.3299H13.514V12.5468H12.2923V13.7685H14.7592V14.997H12.2923V13.7685H11.0755V16.2122H9.85368V17.4362H11.0755V19.8775H9.85877V22.3411H7.39516V21.0992H6.1733V19.8874H4.96161V17.444H6.1733V19.8874H7.39516V18.6557H8.63691V16.2073L9.85368 16.2122V12.5366H8.62689V13.7636H7.40518V16.2072H4.96161V15.0004H6.1733V13.7636H7.40518V11.325H11.0806V10.0982H9.85368V8.87376H11.0906V7.64951H14.741V6.43782H15.9727V7.64951H14.741V8.87137H13.5191L11.0906 8.87376L11.0806 10.0982H14.741V8.87137H17.1883V7.64951H18.4314V5.20923H22.0768Z" fill="#C0C0C0"/>
<path d="M22.0733 6.43787H19.6331V7.6497H22.0733V6.43787Z" fill="white"/>
<path d="M3.72976 16.1923H1.28619V17.4363H3.72976V16.1923Z" fill="white"/>
<path d="M7.41519 27.215H6.21338V28.4401H7.41519V27.215Z" fill="#808080"/>
<path d="M18.4247 30.8872H17.1883V33.3374H18.4046L18.4247 30.8872Z" fill="#808080"/>
<path d="M28.1924 27.2148H26.9789V28.4451H28.1924V27.2148Z" fill="#808080"/>
<path d="M28.1856 6.43115H26.9771V7.65301H28.1856V6.43115Z" fill="white"/>
</svg>
