<svg width="23" height="17" viewBox="0 0 23 17" fill="none" xmlns="http://www.w3.org/2000/svg">
<path d="M0 16.9982V16.7987C0 16.7987 0.201257 16.806 0.201257 16.7987C0.201257 16.7914 0.201257 16.4001 0.201257 16.4001H0.411996V15.992H0.605927V15.5821H0.807184V15.1796H1.01232V14.7754H1.21746V14.369H1.42044V13.9665H1.62169V13.5657H1.82123V13.1519H2.02636V12.7494H2.23495V12.3486H2.43621V11.9422H2.63746V11.5359H2.837V11.1333H3.03825V10.7291H3.24124V10.5205V10.3193H3.44637V9.91804H3.64375V9.51639H3.85061V9.10827H4.04799V8.70403H4.25269V8.29764H4.45783V7.8934H4.65736V7.48916H4.86422V7.08276H5.06376V6.67853H5.26674V6.27429H5.468V5.86789H5.66925V5.46366H5.87611V5.06114H6.07565V4.6569H6.27863V4.25439H6.48161V3.84455H6.68675V3.44031H6.8824V3.03392H7.08366V2.637H7.28664V2.22501H7.48962V1.82077H7.69476V1.41825H7.89601V1.01746H8.09899V0.611069H8.30025V0.202952H8.50323V0.00341797H8.70621V17H0V16.9982Z" fill="black"/>
<path d="M11.5247 2.62671V2.83443H11.7414V3.64118H11.5247V3.83942H11.1234V3.63127H10.9355V2.8396H11.1334V2.62671H11.5247Z" fill="black"/>
<path d="M11.5247 5.25513V5.46328H11.7414V6.27003H11.5247V6.46784H11.1234V6.26012H10.9355V5.46802H11.1334V5.25513H11.5247Z" fill="black"/>
<path d="M11.5247 7.88391V8.09163H11.7414V8.89839H11.5247V9.09663H11.1234V8.88847H10.9355V8.09637H11.1334V7.88391H11.5247Z" fill="black"/>
<path d="M11.5247 10.5123V10.7201H11.7414V11.5272H11.5247V11.725H11.1234V11.5173H10.9355V10.7252H11.1334V10.5123H11.5247Z" fill="black"/>
<path d="M11.5247 13.1407V13.3489H11.7414V14.1557H11.5247V14.3539H11.1234V14.1457H10.9355V13.3536H11.1334V13.1407H11.5247Z" fill="black"/>
<path d="M11.5247 15.7697V15.9774H11.7414V16.7846H11.5247V16.9824H11.1234V16.7746H10.9355V15.9825H11.1334V15.7697H11.5247Z" fill="black"/>
<path d="M11.5247 0V0.207722H11.7414V1.01491H11.5247V1.21272H11.1234V1.00499H10.9355V0.212893H11.1334V0H11.5247Z" fill="black"/>
<path d="M13.9634 0.00219727H14.1681V0.210781H14.3758V0.606401H14.5706V1.00633H14.7753V1.41229H14.983V1.82774H15.1744V2.22163H15.3825V2.62975H15.5838V3.03269H15.7885V3.44167H15.9897V3.83772H16.191V4.2536H16.3987V4.65956H16.597V5.06208H16.8017V5.47149H16.9995V5.87055H17.2076V6.27652H17.4089V6.67601H17.6101V7.08198H17.8114V7.4944H18.0161V7.89606H18.2122V8.29728H18.4203V8.70324H18.6233V9.10662H18.8285V9.50741H19.0293V9.91768H19.2297V10.3193H19.4301V10.7253H19.6356V11.1287H19.836V11.5346H20.0416V11.9432H20.2446V12.344H20.445V12.7547H20.6506V13.1533H20.8535V13.5644H21.0539V13.9627H21.2569V14.3738H21.4573V14.772H21.6577V15.1831H21.8581V15.5839H22.0611V15.9873H22.2666V16.3984H22.467V16.7992H22.67V16.9949H13.9634V16.1954H21.4207V15.9903H21.2565L21.2535 15.7843L21.0522 15.7813L21.0488 15.5865H20.8484V15.178H20.6454V14.772H20.4398V14.3712H20.242V13.9652H20.0416V13.5593H19.8335V13.1533H19.6305V12.7525H19.4301V12.344H19.2297V11.9432H19.0267V11.5346H18.8211V11.1313H18.6207V10.7279H18.4178V10.3167H18.2122V9.91768H18.0191V9.50999H17.814V9.10662H17.6084V8.70324H17.408V8.29728H17.2098V7.89606H17.0021V7.48535H16.8017V7.08413H16.5961V6.67817H16.3931V6.27264H16.1927V5.87141H15.9897V5.4633H15.7842V5.05949H15.5838V4.65611H15.3834V4.248H15.1826V3.84203H14.9748V3.44081H14.7693V16.1954H13.9634V0.00219727Z" fill="black"/>
</svg>
