<svg width="35" height="35" viewBox="0 0 35 35" fill="none" xmlns="http://www.w3.org/2000/svg">
<path d="M3.39514 1.27399H5.54974V2.32519H6.61634V4.44493H7.70224V6.61702H8.76645V8.73662H9.83664V10.8739L10.9025 10.8824L10.8971 7.67899H11.9722V5.53322H13.0517V3.39373H14.1117V1.25439H16.2445V13.0503H15.1714V6.61254H14.1377V7.65939H13.0257V9.80531H11.9788V11.9512H10.9058V13.0198H9.82856V11.9556H8.75986V9.82715H7.69162V7.66373H6.60527V5.55266H5.54106V4.4536H4.4942V13.0286H3.39514V1.27399Z" fill="#C0C0C0"/>
<path d="M17.3232 1.27405H16.2445V13.0504H17.3232V1.27405Z" fill="#808080"/>
<path d="M4.49438 4.45361H5.54109V5.55267H6.60545V6.59953H5.57594V13.0546H4.49438V4.45361Z" fill="#808080"/>
<path d="M6.62711 1.27405H5.54974V2.32524H6.61635L6.62711 1.27405Z" fill="#808080"/>
<path d="M7.69563 3.39746H6.61841V4.46451H7.68486L7.69563 3.39746Z" fill="#808080"/>
<path d="M8.77305 5.52686H7.69568V6.59391H8.76228L8.77305 5.52686Z" fill="#808080"/>
<path d="M9.83274 7.67578H8.75537L8.76629 8.73685L9.82197 8.74268L9.83274 7.67578Z" fill="#808080"/>
<path d="M10.8989 9.81494L9.83606 9.81554L9.83651 10.8739L10.9025 10.8824L10.8989 9.81494Z" fill="#808080"/>
<path fill-rule="evenodd" clip-rule="evenodd" d="M6.63325 0.171387H2.35457L2.36115 13.0143H1.30786V33.3415H2.35457V14.1068H11.985V11.9477H13.0318V9.80192H14.1309V13.0076H13.058V14.1068H20.5425V13.0273H18.4031V0.171387H14.1179V1.251H13.058V3.39034H11.9785V5.52968H10.8989V7.67575H9.83261V5.5231H8.77932V3.39034H7.70628V1.27045H6.63325V0.171387ZM6.63325 1.27045H3.40143V13.0512H5.58205V6.59613H6.61156V7.66034H7.67577L7.69805 9.81209L8.75748 9.82361V11.9522H9.8347V13.0164H10.9122V11.9477H11.985V9.80192H13.0318V7.656H14.1442V6.60914H15.1777V13.0469H17.3295V1.27045L14.1179 1.251V3.39034H13.058V5.53626L11.9785 5.52968V7.66901L10.8989 7.67575V9.81493H9.85235L9.83261 7.67575H8.76615L8.77932 5.5231H7.71062L7.70628 3.39034H6.61156L6.63325 1.27045ZM6.62278 9.81553H7.69162L7.69566 11.9556H8.75987V13.0285L6.62278 13.024V9.81553Z" fill="black"/>
<path d="M28.0645 0.171387H22.6734V1.27404H20.5425V2.30773L19.4633 2.32523V6.60825L20.532 6.606L20.5425 7.64643L22.6734 7.67245V8.72814H25.9011L25.8924 9.8097L26.9653 9.8272L26.9478 10.8739L23.7465 10.8826L23.7441 9.81822L22.6734 9.81852V8.72814L19.4983 8.71049V11.9383H20.5425V13.0273H21.6441V14.084H29.0937V13.0242H30.1669V11.9556H31.2354V8.74549H30.1669V7.67694H29.0937V6.61258H26.9523V5.53536H23.7486V3.3872H26.9544L26.9523 5.53536H31.2354V2.32733H30.1537V1.26102H28.047V2.30773L30.1537 2.32733V4.47115L28.0295 4.46457V3.37194L26.9544 3.3872V2.30773H23.7377L23.7486 3.3872H22.6909V5.53536H23.7552V6.59957L26.9523 6.61258V7.68128L29.0937 7.67694V8.76284L30.1669 8.74549V11.9556H29.0764L29.0937 13.0242L21.6441 13.0273V11.9383H20.5425V9.7922L22.6734 9.81852L22.6559 11.9383H26.9478V10.8739H28.047V9.8272H26.9653V8.72814H25.9011V7.66378L22.6734 7.67245V6.60825L20.532 6.606L20.5425 2.30773L22.6889 2.30758L22.6734 1.27404L28.047 1.26102L28.0645 0.171387Z" fill="black"/>
<path fill-rule="evenodd" clip-rule="evenodd" d="M26.9523 2.30772V1.26355H28.0471V2.30772H26.9523Z" fill="#808080"/>
<path d="M29.0894 2.3175V4.4712H30.1537V2.32738L29.0894 2.3175Z" fill="#808080"/>
<path d="M26.9523 2.30774V3.38735H28.0296V4.46458H29.0895V2.31746L26.9523 2.30774Z" fill="#C0C0C0"/>
<path d="M23.7378 2.30777L22.6887 2.30762L22.6909 3.38738H23.7485L23.7378 2.30777Z" fill="#808080"/>
<path d="M22.6909 3.38721H21.5917V6.6084H23.7552L23.7486 5.53537H22.6909V3.38721Z" fill="#808080"/>
<path d="M22.6887 2.30762H20.5425V6.60619H21.5917V3.38723H22.6909L22.6887 2.30762Z" fill="#C0C0C0"/>
<path d="M22.6734 6.6084H25.8866V7.66378H28.0208V8.73682H29.0895V11.9556H28.0208V13.0246H21.6442V11.9383H20.5425V9.7922H22.6734V11.9383H26.9479V10.8739H28.0471V9.8272H26.9653V8.72814H25.9011L25.8866 7.66378H22.6734V6.6084Z" fill="#C0C0C0"/>
<path d="M30.1667 8.74549L29.0894 8.73682V11.9556H30.1667V8.74549Z" fill="#808080"/>
<path d="M29.0894 11.9556H28.0208V13.0241H29.0894V11.9556Z" fill="#808080"/>
<path d="M29.0937 7.66382H28.0208V8.76288H29.0937V7.66382Z" fill="#808080"/>
<path d="M26.9522 6.61255H25.8865V7.66374H26.9522V6.61255Z" fill="#808080"/>
<path d="M29.1046 14.1016H31.2463V15.1876H32.2974V16.2475H33.3964V19.4664H32.3104V20.5263H29.1046V19.4533H28.0317V18.3802H26.9587V20.5263H29.1046V21.5992H31.2505V22.6852H32.3104V23.7451H33.3964V31.2427H32.3234V32.3026H31.2505V33.3755H29.0914V34.4485H22.706V33.3589H21.6069V34.4485H14.1225V33.3589H11.9896V34.4485H2.35919V33.3589H11.9896V32.2981H13.0538V29.088L15.2 29.0922L15.1824 26.9596H16.2639V18.3761L14.1347 18.3544L14.1181 25.8605H13.1018L13.1082 26.9421H12.0135L12.0123 28.0151L5.55197 28.037V19.4533H8.78394V18.3802L9.85966 18.3921L9.84366 16.2475H10.936V15.2006H11.9896L11.9959 14.1243H13.0687L13.069 15.197L11.9896 15.2006V16.2475H10.936V18.3934L9.85966 18.3921L9.84366 25.843H8.7621V20.5218H6.61618V26.9771H9.82631L9.84366 25.843H10.936L10.9254 26.9204H12.0123V24.831H13.0364L13.0586 18.3544H14.1347V17.2824H17.3338L17.334 19.4576H18.41V16.2823H19.474V15.1833H20.5532V14.1016H21.6026V15.1659L20.5532 15.1833V16.2846L19.474 16.2823V21.5817H18.3925V20.5045H17.334V26.9684H18.41V25.8954H19.474V30.1697H18.375V28.0238H16.2466V29.0922H15.2V30.1359L14.1355 30.1365L14.1225 33.3589H21.6069V32.3156H20.5532V31.2514H19.474V30.1697H20.5532V31.2514H21.6026L21.6069 32.3156H22.6842L22.706 33.3589L29.0914 33.3755V32.3156L31.2505 32.3026V31.2296L32.3234 31.2427L32.3104 23.7451H31.2505V22.6852H29.1046V21.5992H26.9587V24.831H28.0317V25.8779H29.1177V26.9377H28.0317V27.9976H23.7529V26.9377H22.6668V25.8649L19.474 25.8954V24.8181H21.6331V23.7451H20.5532V22.6852H19.474V21.5817H20.5532V22.6852H21.6331V18.3802H22.68L22.6668 25.8649H23.7659L23.7529 26.9377H24.8389V25.891H25.8988V26.9639L28.0317 26.9377V25.8779L25.8988 25.891V18.3934L22.68 18.3802V17.3234H28.0185L28.0317 18.3802H29.1133L29.1046 19.4533L32.3104 19.4664L32.2974 16.2475H31.2418L31.2463 15.1876H29.1046V14.1016Z" fill="black"/>
<path d="M32.307 28.0064H31.2528V29.0923H30.1929V30.139H29.0807V31.2121H23.7421V30.1523H21.5962V29.0791H20.5425V26.9335H19.4633V30.1523H20.5425V31.234H21.5919V32.2982H22.6734V33.3415L29.0915 33.3756V32.3157L31.2505 32.3024V31.2295L32.3234 31.2425L32.307 28.0064Z" fill="#808000"/>
<path d="M29.1023 24.8137H28.0293V25.8752H29.1023V24.8137Z" fill="#808000"/>
<path d="M28.0317 23.767H26.9588V24.8312H28.0317V23.767Z" fill="#808000"/>
<path d="M26.9479 21.5818H29.0937V22.6677H31.2398V23.7276H32.2996V28.0062H31.2528V29.0923H30.1929V30.1391H29.0807V31.2122H23.742V30.1523H21.5962V29.0793H20.5425V26.9335H19.4633V25.8778H22.6561V26.9203H23.742V27.9802H28.0208V26.9203H29.107V24.8136H28.0175V23.7669H26.9446L26.9479 21.5818Z" fill="#FFFF00"/>
<path d="M21.6222 21.5818H20.5425V22.6677H21.6222V21.5818Z" fill="#808000"/>
<path d="M20.5425 20.5133H19.4633V21.5819H20.5425V20.5133Z" fill="#808000"/>
<path d="M21.6026 14.1016H29.1046V15.1876H31.2463V16.2475H32.2974V17.3234H31.2463V18.4107H29.1133V17.3459L22.6975 17.3409L22.68 18.3802H21.6333V22.6852H20.5532V20.5305H19.4741V16.2823H20.5532V15.1833H21.6026V14.1016Z" fill="#FFFF00"/>
<path d="M31.2435 17.3058H32.2974L32.3104 19.4662L29.0964 19.4532V18.3715L28.0316 18.3802L28.0186 17.3231L29.1052 17.3284L29.0964 18.3715H31.2435V17.3058Z" fill="#808000"/>
<path d="M22.6734 1.27405H26.9521V2.30789H22.6887L22.6734 1.27405Z" fill="#C0C0C0"/>
<path d="M26.9522 1.26355V2.30772H22.6887V1.27402H26.9522" fill="#C0C0C0"/>
<path d="M2.38223 14.1023H10.9302V15.1786H9.8637L9.85877 17.3012L5.5774 17.3014V28.0149L12.0113 27.9813L12.0125 26.9083H13.1073L13.1009 25.8265H14.1171L14.1349 18.354H16.2808V26.9376H15.1991V29.0661H13.0707V32.2763H12.0065V33.337H2.3761" fill="#FF0000"/>
<path d="M16.2557 25.8771H15.1893V26.9522L16.271 26.9541V25.8771" fill="#800000"/>
<path d="M14.0986 26.9423L15.1893 26.9541V29.0826H14.0986V26.9423Z" fill="#800000"/>
<path d="M13.043 30.1392H11.9526V31.212H3.41472V32.2851H2.34827V33.3414H11.9788V32.2807H13.043V30.1392Z" fill="#800000"/>
<path d="M5.56592 17.3176V19.4475H8.78906V18.3745H9.84893V17.3176H5.56592Z" fill="#800000"/>
<path d="M9.84889 16.2298V15.1831L10.9025 15.1833V14.1068H11.9851V15.1833H10.9025V16.23H9.83289" fill="#800000"/>
<path d="M22.68 18.3803L23.7486 18.3629V19.4359H22.6673L22.68 18.3846" fill="#000080"/>
<path d="M23.7505 18.3629H24.8299V19.4358H23.7485V18.3629" fill="#FF00FF"/>
<path d="M24.7956 18.3629H25.8988V19.4358H24.7935V18.3629" fill="#0000FF"/>
<path d="M22.6691 19.4358H23.7486V20.5087H22.6673V19.4358" fill="#800080"/>
<path d="M23.7505 19.4358H24.8299V20.5087H23.7485V19.4358" fill="#0000FF"/>
<path d="M24.7956 19.4358H25.8988V20.5087H24.7935V19.4358" fill="#FF00FF"/>
<path d="M22.6691 20.5087H23.7486V21.5817H22.6673V20.5087" fill="#000080"/>
<path d="M23.7505 20.5087H24.8299V21.5817H23.7485V20.5087" fill="#FF00FF"/>
<path d="M24.7956 20.5087H25.8988V21.5817H24.7935V20.5087" fill="#0000FF"/>
<path d="M22.6691 21.5818H23.7486V22.6545H22.6673V21.5818" fill="#800080"/>
<path d="M23.7505 21.5818H24.8299V22.6545H23.7485V21.5818" fill="#0000FF"/>
<path d="M24.7956 21.5818H25.8988V22.6545H24.7935V21.5818" fill="#FF00FF"/>
<path d="M22.6691 22.6547H23.7486V23.7275H22.6673V22.6547" fill="#000080"/>
<path d="M23.7505 22.6547H24.8299V23.7275H23.7485V22.6547" fill="#FF00FF"/>
<path d="M24.7956 22.6547H25.8988V23.7275H24.7935V22.6547" fill="#0000FF"/>
<path d="M22.6691 23.7209H23.7486V24.7938H22.6673V23.7209" fill="#800080"/>
<path d="M23.7505 23.7209H24.8299V24.7938H23.7485V23.7209" fill="#0000FF"/>
<path d="M24.7956 23.7209H25.8988V24.7938H24.7935V23.7209" fill="#FF00FF"/>
<path d="M22.6691 24.8004H23.7486V25.8734H22.6673V24.8004" fill="#000080"/>
<path d="M23.7505 24.8004H24.8299V25.8734H23.7485V24.8004" fill="#FF00FF"/>
<path d="M24.7956 24.8004H25.8988V25.8734H24.7935V24.8004" fill="#0000FF"/>
<path d="M22.6691 25.8735H23.7486V26.9464H22.6673V25.8735" fill="black"/>
<path d="M23.7505 25.8735H24.8299V26.9464H23.7485V25.8735" fill="#0000FF"/>
<path d="M24.7954 25.8735H25.8749V26.9464H24.7935V25.8735" fill="black"/>
<path d="M15.1747 14.1068H14.0986V15.1685H15.1747V14.1068Z" fill="#FF00FF"/>
<path d="M14.1346 14.1068H13.0584V15.1685H14.1346V14.1068Z" fill="#0000FF"/>
<path d="M16.2443 14.1068H15.1747V15.1685H16.2443V14.1068Z" fill="#0000FF"/>
<path d="M15.1747 15.1685H14.0986V16.2301H15.1747V15.1685Z" fill="#0000FF"/>
<path d="M14.1346 15.1685H13.0584V16.2301H14.1346V15.1685Z" fill="#FF00FF"/>
<path d="M13.0497 15.1783H11.9736V16.24H13.0497V15.1783Z" fill="#0000FF"/>
<path d="M16.2443 15.1685H15.1747V16.2301H16.2443V15.1685Z" fill="#FF00FF"/>
<path d="M17.334 14.1068H16.2445V15.1685H17.334V14.1068Z" fill="#FF00FF"/>
<path d="M17.3339 15.1685H16.2358V16.2301H17.3339V15.1685Z" fill="#0000FF"/>
<path d="M18.4019 14.1068H17.3322V15.1685H18.4019V14.1068Z" fill="#0000FF"/>
<path d="M18.4019 15.1685H17.3322V16.2301H18.4019V15.1685Z" fill="#FF00FF"/>
<path d="M15.1747 16.2208H14.0986V17.2825H15.1747V16.2208Z" fill="#FF00FF"/>
<path d="M14.1346 16.2208H13.0584V17.2825H14.1346V16.2208Z" fill="#0000FF"/>
<path d="M13.0497 16.2306H11.9736V17.2923H13.0497V16.2306Z" fill="#FF00FF"/>
<path d="M12.0014 16.2306H10.9252V17.2923H12.0014V16.2306Z" fill="#0000FF"/>
<path d="M14.1346 17.2928H13.0584V18.3545H14.1346V17.2928Z" fill="#800080"/>
<path d="M11.9736 17.3025H13.0497L13.0586 18.3543L11.9739 18.3642L11.9736 17.3025Z" fill="#0000FF"/>
<path d="M12.0014 17.3025H10.9252V18.3642H12.0014V17.3025Z" fill="#FF00FF"/>
<path d="M13.0586 18.3544H12.0067V19.416H13.0586V18.3544Z" fill="#800080"/>
<path d="M12.0014 18.3746H10.9252V19.4363H12.0014V18.3746Z" fill="#0000FF"/>
<path d="M10.9251 18.3746H9.84894V19.4363H10.9251V18.3746Z" fill="#FF00FF"/>
<path d="M13.0517 19.4159H11.9998V20.4877H13.0517V19.4159Z" fill="#000080"/>
<path d="M12.0014 19.4362H10.9252V20.4978H12.0014V19.4362Z" fill="#FF00FF"/>
<path d="M10.9251 19.4362H9.84894V20.4978H10.9251V19.4362Z" fill="#0000FF"/>
<path d="M13.0517 20.4877H11.9998V21.5493H13.0517V20.4877Z" fill="#800080"/>
<path d="M12.0014 20.4977H10.9252V21.5593H12.0014V20.4977Z" fill="#0000FF"/>
<path d="M10.9251 20.4977H9.84894V21.5593H10.9251V20.4977Z" fill="#FF00FF"/>
<path d="M13.0518 21.5492H11.9736V22.621H13.0518V21.5492Z" fill="#000080"/>
<path d="M12.0014 21.5593H10.9252V22.621H12.0014V21.5593Z" fill="#FF00FF"/>
<path d="M10.9251 21.5593H9.84894V22.621H10.9251V21.5593Z" fill="#0000FF"/>
<path d="M13.0517 22.6208H11.9998V23.6825H13.0517V22.6208Z" fill="#800080"/>
<path d="M12.0014 22.6208H10.9252V23.6825H12.0014V22.6208Z" fill="#0000FF"/>
<path d="M10.9251 22.6208H9.84894V23.6825H10.9251V22.6208Z" fill="#FF00FF"/>
<path d="M13.0517 23.6826H11.9998V24.8312H13.0517V23.6826Z" fill="#000080"/>
<path d="M12.0014 23.6826H10.9252V24.8138H12.0014V23.6826Z" fill="#FF00FF"/>
<path d="M10.9251 23.6826H9.84894V24.8138H10.9251V23.6826Z" fill="#0000FF"/>
<path d="M12.0123 24.8137H10.9252V25.867H12.0123V24.8137Z" fill="#0000FF"/>
<path d="M12.0123 25.8671H10.9252V26.9204H12.0123V25.8671Z" fill="#FF00FF"/>
<path d="M10.9251 24.8137H9.84894V25.867H10.9251V24.8137Z" fill="#FF00FF"/>
<path d="M16.2443 16.2208H15.1747V17.2825H16.2443V16.2208Z" fill="#0000FF"/>
<path d="M17.334 16.2208H16.2445V17.2825H17.334V16.2208Z" fill="#FF00FF"/>
<path d="M18.4019 16.2208H17.3322V17.2825H18.4019V16.2208Z" fill="#0000FF"/>
<path d="M18.4019 17.2823H17.3322V18.344H18.4019V17.2823Z" fill="#800080"/>
<path d="M18.4019 18.3439H17.3338V19.4576H18.4019V18.3439Z" fill="#000080"/>
<path d="M19.4715 14.1068H18.4019V15.1685H19.4715V14.1068Z" fill="#FF00FF"/>
<path d="M20.5331 14.1068H19.4633V15.1685H20.5331V14.1068Z" fill="#000080"/>
<path d="M19.4715 15.1685H18.4019V16.265H19.4715V15.1685Z" fill="#000080"/>
<path d="M17.3232 28.0065H16.2358V29.0747H17.3232V28.0065Z" fill="#0000FF"/>
<path d="M18.3626 28.0065H17.3232V29.0747H18.3626V28.0065Z" fill="#FF00FF"/>
<path d="M18.3626 29.0747H17.3232V30.1524H18.3626V29.0747Z" fill="#0000FF"/>
<path d="M17.3232 29.0747H16.2358V30.1524H17.3232V29.0747Z" fill="#FF00FF"/>
<path d="M16.2358 29.0747H15.1893V30.1524H16.2358V29.0747Z" fill="#0000FF"/>
<path d="M18.3626 30.1523H17.3232V31.2122H18.3626V30.1523Z" fill="#FF00FF"/>
<path d="M19.4633 30.1523H18.3626V31.2122H19.4633V30.1523Z" fill="#0000FF"/>
<path d="M17.3232 30.1185H16.2358V31.2122H17.3232V30.1185Z" fill="#0000FF"/>
<path d="M16.2358 30.1185H15.1893V31.2122H16.2358V30.1185Z" fill="#FF00FF"/>
<path d="M15.1894 30.1185H14.1225V31.2122H15.1894V30.1185Z" fill="#0000FF"/>
<path d="M18.3626 31.2122H17.3232V32.2871H18.3626V31.2122Z" fill="#000080"/>
<path d="M19.4633 31.2122H18.3626V32.2871H19.4633V31.2122Z" fill="#800080"/>
<path d="M20.5425 31.2122H19.4418V32.2871H20.5425V31.2122Z" fill="#000080"/>
<path d="M17.3232 31.1935H16.2358V32.2872H17.3232V31.1935Z" fill="#800080"/>
<path d="M16.2358 31.1935H15.1893V32.2872H16.2358V31.1935Z" fill="#000080"/>
<path d="M15.1894 31.1935H14.1225V32.2872H15.1894V31.1935Z" fill="#800080"/>
<path d="M18.3626 32.2668H17.3232V33.3418H18.3626V32.2668Z" fill="#800080"/>
<path d="M19.4633 32.2668H18.3626V33.3418H19.4633V32.2668Z" fill="#000080"/>
<path d="M21.6432 32.2668H20.5425V33.3418H21.6432V32.2668Z" fill="#000080"/>
<path d="M20.5425 32.2668H19.4418V33.3418H20.5425V32.2668Z" fill="#800080"/>
<path d="M17.3232 32.2482H16.2358V33.3418H17.3232V32.2482Z" fill="#000080"/>
<path d="M16.2358 32.2482H15.1893V33.3418H16.2358V32.2482Z" fill="#800080"/>
<path d="M15.1894 32.2482H14.1225V33.3418H15.1894V32.2482Z" fill="#000080"/>
</svg>
