<svg width="35" height="35" viewBox="0 0 35 35" fill="none" xmlns="http://www.w3.org/2000/svg">
<path fill-rule="evenodd" clip-rule="evenodd" d="M27.83 28.6382L28.8157 18.3086L30.109 14.1536L29.1996 12.3447L27.1962 11.0739L31.8557 6.16132L31.1655 3.65972L29.9313 4.53726L28.7935 5.10279L27.7138 3.16702L27.2719 2.50442L24.8833 5.0316L23.6509 6.92294L21.9809 8.5138L19.6949 9.87356L18.7947 4.61937L19.1937 2.70125L18.1957 1.72589L17.3832 1.93649L16.675 2.35963L16.2899 2.85307L16.243 3.58119L15.969 3.77219L15.8422 4.06072L15.6503 7.61352L15.0801 8.0588L11.5503 8.38367L9.98985 10.0405L8.92549 9.84081L6.88278 11.5347L5.71267 13.1447L5.22192 14.5728L5.52765 15.4194L5.70908 19.3509L5.53453 29.48L8.91771 31.0761L13.3419 33.3794L23.5349 32.5685L25.8321 30.9871L27.83 28.6382Z" fill="white"/>
<path d="M22.4005 25.9598V18.0787H24.5363V25.9321L22.4005 25.9598Z" fill="#FFFF00"/>
<path d="M22.4005 31.6349V26.6486H24.5363V31.6174L22.4005 31.6349Z" fill="#FFFF00"/>
<path d="M29.5068 12.3447H30.2342V13.799H30.964V16.6262H31.6493V17.3558H32.3776V18.0841H33.1051V19.4977H33.791V20.2259H34.5198V25.9232H33.7927V26.6529H32.3776V27.3368H31.6486V28.0664H30.2357V29.48H29.5068V30.2083H28.8213V30.9373H28.0926V31.6223H27.3635V32.3515H25.9513V33.0798H24.5377V33.7636H23.8096V34.491H11.6854V33.7666H10.9571V33.0798H9.54203V32.3485H8.08564V31.6174H7.3988V30.9394H6.67053V30.2083H7.40179L7.3988 30.9394H8.08848L8.08564 31.6174H9.53904L9.54203 32.3485H10.9571V33.0798H11.6854V33.7666L23.8096 33.7636V33.0798H24.5377V32.3515H25.9513V31.6116L27.3635 31.6223V30.9306L28.0926 30.9373V30.2023L28.8213 30.2083V29.48H29.5068V27.3377L24.5385 27.3368L24.5362 26.652L21.6668 26.644L21.6671 25.9239H20.2535L20.2526 25.1949L18.7932 25.1837L18.7971 24.5108L17.3811 24.5046V23.7814H15.969V23.0562H14.5125V22.3722H13.0975V21.6411H11.6854V20.9098H10.9541V20.2259H11.6884L11.6854 20.9098H13.0945L13.0975 21.6411H14.5125V22.3722H15.966L15.969 23.0562H17.3781L17.3811 23.7814H18.7962L18.7971 24.5108L20.2646 24.5046L20.2526 25.1949L21.6677 25.1956L21.6671 25.9239H24.5362V26.652L32.3776 26.6529V25.9232H33.1059V20.218H32.3635V18.7634H31.6471V18.0886H30.9602V17.3545H30.2321V25.9256H29.5068V12.3447Z" fill="black"/>
<path d="M5.2644 27.3308H5.94526V28.7912H7.4018V29.478H8.81481V30.2121H9.5371V30.9344H10.2278V31.6213H12.3673V32.3436H22.3971V31.6174H24.5364V30.9305H25.2232V30.2083H26.6835V17.3525H25.9533V18.0787H23.8062V18.7694H12.3693V19.4977H10.9513V18.7634H11.6884V18.0826L23.8062 18.0787V17.3525H25.2261V16.6262H26.6835V15.9393H28.0976V15.217H29.5067V29.48H28.8215V30.2083H28.0928V30.9373H27.3635V31.6222H25.9513V32.3515H24.5377V33.0798H23.8096V33.7636H11.6854V33.0798H10.9571V32.3486H9.54218V31.6174H8.08564V30.9395H7.39881V30.2083H6.67054V29.486H5.92163V30.1964H5.2644V27.3308Z" fill="#808000"/>
<path d="M30.2321 17.3544H30.9602V18.0885H31.6471V18.7636H32.3635V20.218H33.1059V25.9232H32.3776V26.6528H29.5068V25.9255H31.6441V25.1962H32.3783V20.9098H31.6471V19.4917H30.9662V18.7636H30.2321V17.3544Z" fill="#808080"/>
<path d="M8.80686 32.3486V33.0778H8.08068V33.7636H7.39773V34.491H4.53611V33.7636H3.80589V33.0739H0.97583V32.3486H4.53207V33.0818H7.40162V31.6174H6.67051V30.9395H7.39878L7.40162 31.6174H8.08547V32.3486H8.80686Z" fill="#008000"/>
<path d="M5.26438 30.1965H3.11517V30.9394H2.3884V31.6203H0.246521V33.0798H0.975688V32.3485H4.53223V33.0817H7.40178V31.6174H6.67052V30.2083L5.26438 30.1965Z" fill="#00FF00"/>
<path d="M21.6692 31.6247H20.9379V32.3437H21.6692V31.6247Z" fill="#FFFF00"/>
<path d="M20.2557 31.6247H19.5245V32.3437H20.2557V31.6247Z" fill="#FFFF00"/>
<path d="M17.3855 31.6247H16.6544V32.3437H17.3855V31.6247Z" fill="#FFFF00"/>
<path d="M15.969 31.6247H15.2379V32.3437H15.969V31.6247Z" fill="#FFFF00"/>
<path d="M18.7951 31.6247H18.1142V32.3437H18.7951V31.6247Z" fill="#FFFF00"/>
<path d="M14.511 31.6247H13.8301V32.3437H14.511V31.6247Z" fill="#FFFF00"/>
<path d="M13.0906 31.6213H12.3664V32.3437H13.0906V31.6213Z" fill="#FFFF00"/>
<path d="M20.9604 30.9161H20.2292V31.6351H20.9604V30.9161Z" fill="#FFFF00"/>
<path d="M22.4004 30.9161H21.6692V31.6351H22.4004V30.9161Z" fill="#FFFF00"/>
<path d="M19.5468 30.9161H18.8157V31.6351H19.5468V30.9161Z" fill="#FFFF00"/>
<path d="M16.6768 30.9161H15.9455V31.6351H16.6768V30.9161Z" fill="#FFFF00"/>
<path d="M15.2603 30.9161H14.5291V31.6351H15.2603V30.9161Z" fill="#FFFF00"/>
<path d="M18.0864 30.9161H17.4055V31.6351H18.0864V30.9161Z" fill="#FFFF00"/>
<path d="M13.8301 30.9161H13.096V31.6213H13.8301V30.9161Z" fill="#FFFF00"/>
<path d="M12.3664 30.9161H11.6422V31.6213H12.3664V30.9161Z" fill="#FFFF00"/>
<path d="M21.6692 30.2072H20.9379V30.9261H21.6692V30.2072Z" fill="#FFFF00"/>
<path d="M20.2557 30.2072H19.5245V30.9261H20.2557V30.2072Z" fill="#FFFF00"/>
<path d="M17.4079 30.2072H16.6768V30.9261H17.4079V30.2072Z" fill="#FFFF00"/>
<path d="M15.969 30.2072H15.2379V30.9261H15.969V30.2072Z" fill="#FFFF00"/>
<path d="M18.7951 30.2072H18.1142V30.9261H18.7951V30.2072Z" fill="#FFFF00"/>
<path d="M14.511 30.2072H13.8301V30.9261H14.511V30.2072Z" fill="#FFFF00"/>
<path d="M13.096 30.2072H12.3718V30.9261H13.096V30.2072Z" fill="#FFFF00"/>
<path d="M20.9604 29.4985H20.2292V30.2175H20.9604V29.4985Z" fill="#FFFF00"/>
<path d="M22.4004 29.4985H21.6692V30.2175H22.4004V29.4985Z" fill="#FFFF00"/>
<path d="M19.5468 29.4985H18.8157V30.2175H19.5468V29.4985Z" fill="#FFFF00"/>
<path d="M16.6768 29.4985H15.9455V30.2175H16.6768V29.4985Z" fill="#FFFF00"/>
<path d="M15.2603 29.4985H14.5291V30.2175H15.2603V29.4985Z" fill="#FFFF00"/>
<path d="M18.1142 29.4884H17.4333V30.2074H18.1142V29.4884Z" fill="#FFFF00"/>
<path d="M13.8301 29.5333H13.096V30.2174H13.8301V29.5333Z" fill="#FFFF00"/>
<path d="M12.3872 29.4985H11.663V30.2175H12.3872V29.4985Z" fill="#FFFF00"/>
<path d="M21.6692 28.8144H20.9379V29.5334H21.6692V28.8144Z" fill="#FFFF00"/>
<path d="M20.2557 28.8144H19.5245V29.5334H20.2557V28.8144Z" fill="#FFFF00"/>
<path d="M17.4073 28.8144H16.676V29.5334H17.4073V28.8144Z" fill="#FFFF00"/>
<path d="M15.969 28.8144H15.2379V29.5334H15.969V28.8144Z" fill="#FFFF00"/>
<path d="M18.7951 28.8144H18.1142V29.5334H18.7951V28.8144Z" fill="#FFFF00"/>
<path d="M14.511 28.8144H13.8301V29.5334H14.511V28.8144Z" fill="#FFFF00"/>
<path d="M13.096 28.8144H12.3718V29.5334H13.096V28.8144Z" fill="#FFFF00"/>
<path d="M20.9604 28.1056H20.2292V28.8246H20.9604V28.1056Z" fill="#FFFF00"/>
<path d="M22.4004 28.1056H21.6692V28.8246H22.4004V28.1056Z" fill="#FFFF00"/>
<path d="M19.5468 28.1056H18.8157V28.8246H19.5468V28.1056Z" fill="#FFFF00"/>
<path d="M16.6768 28.1056H15.9455V28.8246H16.6768V28.1056Z" fill="#FFFF00"/>
<path d="M15.2603 28.1056H14.5291V28.8246H15.2603V28.1056Z" fill="#FFFF00"/>
<path d="M18.1142 28.1056H17.4055V28.8246H18.1142V28.1056Z" fill="#FFFF00"/>
<path d="M13.8301 28.1056H13.096V28.8246H13.8301V28.1056Z" fill="#FFFF00"/>
<path d="M12.3872 28.1056H11.663V28.8246H12.3872V28.1056Z" fill="#FFFF00"/>
<path d="M21.6692 27.3969H20.9379V28.1158H21.6692V27.3969Z" fill="#FFFF00"/>
<path d="M20.2557 27.3969H19.5245V28.1158H20.2557V27.3969Z" fill="#FFFF00"/>
<path d="M17.4073 27.3969H16.676V28.1158H17.4073V27.3969Z" fill="#FFFF00"/>
<path d="M15.9463 27.3969H15.2603V28.1158H15.9463V27.3969Z" fill="#FFFF00"/>
<path d="M18.7951 27.3969H18.1142V28.1158H18.7951V27.3969Z" fill="#FFFF00"/>
<path d="M14.5291 27.3969H13.8023V28.1158H14.5291V27.3969Z" fill="#FFFF00"/>
<path d="M13.096 27.3969H12.3718V28.1158H13.096V27.3969Z" fill="#FFFF00"/>
<path d="M20.9604 26.688H20.2292V27.407H20.9604V26.688Z" fill="#FFFF00"/>
<path d="M22.4004 26.6487H21.6692V27.3676H22.4004V26.6487Z" fill="#FFFF00"/>
<path d="M19.5468 26.688H18.8157V27.407H19.5468V26.688Z" fill="#FFFF00"/>
<path d="M16.6768 26.688H15.9455V27.407H16.6768V26.688Z" fill="#FFFF00"/>
<path d="M15.2603 26.6764H14.5291V27.4071H15.2603V26.6764Z" fill="#FFFF00"/>
<path d="M18.0864 26.688H17.4055V27.407H18.0864V26.688Z" fill="#FFFF00"/>
<path d="M13.8025 26.688H13.1215V27.407H13.8025V26.688Z" fill="#FFFF00"/>
<path d="M12.3717 26.6559H11.6835V27.3308H12.3717V26.6559Z" fill="#FFFF00"/>
<path d="M20.2299 25.9576H19.4986V26.6764H20.2299V25.9576Z" fill="#FFFF00"/>
<path d="M21.67 25.9576H20.9387V26.6764H21.67V25.9576Z" fill="#FFFF00"/>
<path d="M18.8163 25.9576H18.085V26.6764H18.8163V25.9576Z" fill="#FFFF00"/>
<path d="M15.9463 25.9576H15.2463V26.6764H15.9463V25.9576Z" fill="#FFFF00"/>
<path d="M14.5297 25.9576H13.7984V26.6764H14.5297V25.9576Z" fill="#FFFF00"/>
<path d="M17.3916 25.9576H16.6628V26.6881H17.3916V25.9576Z" fill="#FFFF00"/>
<path d="M13.0718 25.9576H12.3909V26.6764H13.0718V25.9576Z" fill="#FFFF00"/>
<path d="M11.6835 25.9203H10.9592V26.6558H11.6835V25.9203Z" fill="#FFFF00"/>
<path d="M19.5329 25.241H18.8018V25.9598H19.5329V25.241Z" fill="#FFFF00"/>
<path d="M16.6628 25.241H15.9316V25.9598H16.6628V25.241Z" fill="#FFFF00"/>
<path d="M15.2179 25.241H14.515V25.9598H15.2179V25.241Z" fill="#FFFF00"/>
<path d="M18.0724 25.241H17.3914V25.9598H18.0724V25.241Z" fill="#FFFF00"/>
<path d="M13.7984 25.241H13.1074V25.9598H13.7984V25.241Z" fill="#FFFF00"/>
<path d="M12.3733 25.2015H11.6766V25.9205H12.3733V25.2015Z" fill="#FFFF00"/>
<path d="M18.795 24.5103H18.1182V25.1915H18.795V24.5103Z" fill="#FFFF00"/>
<path d="M15.9395 24.5178H15.2084V25.2366H15.9395V24.5178Z" fill="#FFFF00"/>
<path d="M14.5023 24.5178H13.7984V25.2366H14.5023V24.5178Z" fill="#FFFF00"/>
<path d="M17.3856 24.5178H16.6684V25.2366H17.3856V24.5178Z" fill="#FFFF00"/>
<path d="M13.0954 24.5148H12.3733V25.2015H13.0954V24.5148Z" fill="#FFFF00"/>
<path d="M11.65 24.5178H10.9257V25.2366H11.65V24.5178Z" fill="#FFFF00"/>
<path d="M15.2178 23.796H14.4866V24.5148H15.2178V23.796Z" fill="#FFFF00"/>
<path d="M13.8267 23.7843H13.0954V24.5148H13.8267V23.7843Z" fill="#FFFF00"/>
<path d="M16.6684 23.796H15.9465V24.5148H16.6684V23.796Z" fill="#FFFF00"/>
<path d="M12.3432 23.796H11.6624V24.5148H12.3432V23.796Z" fill="#FFFF00"/>
<path d="M10.9532 30.9344H10.229V31.6397H10.9532V30.9344Z" fill="#FFFF00"/>
<path d="M10.9532 29.4985H10.229V30.2175H10.9532V29.4985Z" fill="#FFFF00"/>
<path d="M9.54009 29.4839H8.81586V30.2075H9.54009V29.4839Z" fill="#FFFF00"/>
<path d="M10.9591 28.0688H10.2349V28.7951H10.9591V28.0688Z" fill="#FFFF00"/>
<path d="M10.9592 26.6559H10.228V27.3453H10.9592V26.6559Z" fill="#FFFF00"/>
<path d="M10.9522 25.2015H10.228V25.9205H10.9522V25.2015Z" fill="#FFFF00"/>
<path d="M11.6626 30.2011H10.9384V30.9063H11.6626V30.2011Z" fill="#FFFF00"/>
<path d="M11.6835 28.7834H10.9592V29.5024H11.6835V28.7834Z" fill="#FFFF00"/>
<path d="M11.6835 27.3452H10.9592V28.0641H11.6835V27.3452Z" fill="#FFFF00"/>
<path d="M11.6694 24.5259H10.9451V25.2447H11.6694V24.5259Z" fill="#FFFF00"/>
<path d="M11.6396 23.081H10.9586V23.7998H11.6396V23.081Z" fill="#FFFF00"/>
<path d="M10.2292 30.2158H9.54218V30.9345H10.2292V30.2158Z" fill="#FFFF00"/>
<path d="M10.2258 28.7951H9.54004V29.4885H10.2258V28.7951Z" fill="#FFFF00"/>
<path d="M10.228 27.3308H9.5495V28.069H10.228V27.3308Z" fill="#FFFF00"/>
<path d="M9.54946 28.0637H8.81641V28.8017H9.54946V28.0637Z" fill="#FFFF00"/>
<path d="M8.81646 27.3308H8.08356V28.069H8.81646V27.3308Z" fill="#FFFF00"/>
<path d="M9.54217 26.6475H8.80927V27.3308H9.54217V26.6475Z" fill="#FFFF00"/>
<path d="M8.0837 28.0637H7.3988V28.8017H8.0837V28.0637Z" fill="#FFFF00"/>
<path d="M8.81641 28.7932H8.09143V29.478H8.81641V28.7932Z" fill="#FFFF00"/>
<path d="M10.228 25.9287H9.54218V26.6476H10.228V25.9287Z" fill="#FFFF00"/>
<path d="M10.2278 24.5081H9.54199V25.2015H10.2278V24.5081Z" fill="#FFFF00"/>
<path d="M10.9281 23.7873H10.2256V24.5148H10.9281V23.7873Z" fill="#FFFF00"/>
<path d="M20.2574 23.0518H19.5261V23.784H20.2574V23.0518Z" fill="#FFFF00"/>
<path d="M20.9384 22.3671H20.2574V23.052H20.9384V22.3671Z" fill="#FFFF00"/>
<path d="M21.6679 21.639H20.9404V22.369H21.6679V21.639Z" fill="#FFFF00"/>
<path d="M21.6647 23.0518H20.9384V23.7823H21.6647V23.0518Z" fill="#FFFF00"/>
<path d="M22.3942 22.3732H21.6678V23.053H22.3942V22.3732Z" fill="#FFFF00"/>
<path d="M22.3931 23.7802H21.6668V24.5106H22.3931V23.7802Z" fill="#FFFF00"/>
<path d="M14.4866 23.0741H13.8086V23.7929H14.4866V23.0741Z" fill="#FFFF00"/>
<path d="M13.1231 23.0741H12.392V23.7929H13.1231V23.0741Z" fill="#FFFF00"/>
<path d="M15.9494 23.0741H15.2178V23.7929H15.9494V23.0741Z" fill="#FFFF00"/>
<path d="M11.6843 23.056H10.9586V23.793H11.6843V23.056Z" fill="#FFFF00"/>
<path d="M10.2256 23.0538H9.54279V23.796H10.2256V23.0538Z" fill="#FFFF00"/>
<path d="M19.5262 22.3635H18.795V23.0519H19.5262V22.3635Z" fill="#FFFF00"/>
<path d="M13.8026 22.3523H13.0714V23.0713H13.8026V22.3523Z" fill="#FFFF00"/>
<path d="M12.3718 22.3663H11.6843V23.0502H12.3718V22.3663Z" fill="#FFFF00"/>
<path d="M11.6843 21.6381H10.9586V22.3663H11.6843V21.6381Z" fill="#FFFF00"/>
<path d="M7.40071 19.4969H6.67499V20.2252H7.40071V19.4969Z" fill="#FFFF00"/>
<path d="M7.40075 18.084H6.67053V18.7694H7.40075V18.084Z" fill="#FFFF00"/>
<path d="M10.9586 22.3663H10.2303V23.056H10.9586V22.3663Z" fill="#FFFF00"/>
<path d="M18.7977 21.6411H18.1142V22.3635H18.7977V21.6411Z" fill="#FFFF00"/>
<path d="M18.1142 20.918H17.3854V21.6409H18.1142V20.918Z" fill="#FFFF00"/>
<path d="M17.3841 20.226H16.6554V20.9108H17.3841V20.226Z" fill="#FFFF00"/>
<path d="M16.6552 19.499H15.969V20.2258H16.6552V19.499Z" fill="#FFFF00"/>
<path d="M15.967 18.7694H15.2388V19.4981H15.967V18.7694Z" fill="#FFFF00"/>
<path d="M16.6554 20.9107H15.967V21.6409H16.6554V20.9107Z" fill="#FFFF00"/>
<path d="M15.969 20.226H15.2388V20.9108H15.969V20.226Z" fill="#FFFF00"/>
<path d="M15.2388 19.4996H14.5085V20.226H15.2388V19.4996Z" fill="#FFFF00"/>
<path d="M14.5085 20.226H13.8257V20.9087H14.5085V20.226Z" fill="#FFFF00"/>
<path d="M14.5086 18.7706H13.8276V19.497H14.5086V18.7706Z" fill="#FFFF00"/>
<path d="M13.8277 19.4969H13.0975V20.2233H13.8277V19.4969Z" fill="#FFFF00"/>
<path d="M13.0975 18.7706H12.3719V19.497H13.0975V18.7706Z" fill="#FFFF00"/>
<path d="M19.5262 20.9201H18.795V21.6391H19.5262V20.9201Z" fill="#FFFF00"/>
<path d="M18.8007 20.226H18.1142V20.9108H18.8007V20.226Z" fill="#FFFF00"/>
<path d="M20.2515 20.2234H19.5261V20.9066H20.2515V20.2234Z" fill="#FFFF00"/>
<path d="M20.9383 19.499H20.2516V20.2233H20.9383V19.499Z" fill="#FFFF00"/>
<path d="M19.5263 19.499H18.8008V20.2233H19.5263V19.499Z" fill="#FFFF00"/>
<path d="M18.1125 19.499H17.3871V20.2233H18.1125V19.499Z" fill="#FFFF00"/>
<path d="M18.7774 18.773H18.1131V19.4972H18.7774V18.773Z" fill="#FFFF00"/>
<path d="M20.2574 21.6351H19.5261V22.3635H20.2574V21.6351Z" fill="#FFFF00"/>
<path d="M20.9384 20.9066H20.2574V21.635H20.9384V20.9066Z" fill="#FFFF00"/>
<path d="M21.6667 20.2279H20.9384V20.9106H21.6667V20.2279Z" fill="#FFFF00"/>
<path d="M22.4003 19.499H21.6667V20.2279H22.4003V19.499Z" fill="#FFFF00"/>
<path d="M21.6667 18.7703H20.9384V19.4992H21.6667V18.7703Z" fill="#FFFF00"/>
<path d="M20.253 18.7703H19.5248V19.4992H20.253V18.7703Z" fill="#FFFF00"/>
<path d="M18.8008 18.7703H18.1154V19.4992H18.8008V18.7703Z" fill="#FFFF00"/>
<path d="M17.3848 18.7703H16.6518V19.4992H17.3848V18.7703Z" fill="#FFFF00"/>
<path d="M22.3942 20.9107H21.6678V21.6391H22.3942V20.9107Z" fill="#FFFF00"/>
<path d="M17.3854 21.6411H16.6539V22.3692H17.3854V21.6411Z" fill="#FFFF00"/>
<path d="M13.0807 21.6304H12.3495V22.3494H13.0807V21.6304Z" fill="#FFFF00"/>
<path d="M26.6835 27.3308H23.8139V26.6486H23.0719V27.3308H23.8139L23.8102 28.0658L23.0719 28.0569V28.7834H23.806V29.478H23.0719V30.2073H23.8099V30.9395H23.0719V31.6174H24.5362V30.9305H25.2231V30.2082H26.6835V27.3308Z" fill="#C0C0C0"/>
<path d="M24.5364 28.0657H23.8104V28.7947H24.5364V28.0657Z" fill="#FFFF00"/>
<path d="M24.5364 29.478H23.8062V30.2097H24.5364V29.478Z" fill="#FFFF00"/>
<path d="M24.5362 25.9256H26.6836V17.3524H25.9533V18.0787H24.5362V18.7694H23.8096V19.4977H24.5362V20.2221H23.8096V19.4977H23.0828V20.2221H23.8096V20.9107H24.5362V21.639H23.8096V20.9107H23.0828V21.639H23.8096V22.3677H24.5362V23.053H23.8096V22.3677H23.0828V23.053H23.8096V23.7843L24.5362 23.7813V24.5081H23.8081L23.8096 23.7843H23.0828V24.5081H23.8081V25.1906H24.5362V25.9256Z" fill="#C0C0C0"/>
<path d="M9.53919 15.9333H10.226V16.6202H10.9483V17.3603H11.6766V18.7636H10.9513V21.6379H10.2256V23.0561H9.54293V26.6475H8.80928V27.3306H8.0837V28.0638H6.67054V27.3306H5.2644V20.9186H5.94421V21.6409H6.67054V26.6519H8.0837V24.508H8.80928V21.6389H9.54293V20.2298H10.2304V19.4996H9.5371V18.0866H10.2239L10.226 16.6202H9.5371L9.53919 15.9333Z" fill="#008000"/>
<path d="M9.53919 15.9333L9.53709 16.6202H10.226L10.2239 18.0866H9.53709V19.4996H10.2304V20.2298H9.54293V21.6389H8.80927V24.5081H8.08369V26.6519H6.67053V20.9087H7.40179V19.4878H8.08863V18.7694H8.81869V15.9333H9.53919Z" fill="#00FF00"/>
<path d="M23.8051 25.9239V25.1904H22.3931V24.5106H20.9387V23.7824H19.5261V23.0518H18.1141V22.3635H16.6539V21.6409H15.2388V20.9109H13.8257V20.2233H12.3662V19.4969H10.9511V20.226H11.6884V20.9098H13.0945V21.6409H14.5126V22.3722H15.966V23.056H17.3781V23.7813H18.7962L18.795 24.5103H20.2646L20.2526 25.1949H21.0993H21.6677V25.9239H23.8051Z" fill="#808080"/>
<path d="M5.94416 17.3561H5.25732L5.2642 20.9186H5.94416V17.3561Z" fill="#808000"/>
<path d="M4.52728 15.217H5.25854V15.9416H5.94448V16.6275H6.67365V17.3561H5.25735L5.25854 15.9416H4.52728V15.217Z" fill="black"/>
<path d="M6.67365 17.3561H7.40072V18.0841H8.08262V18.7694H7.40072V18.0841H6.67499L6.67365 17.3561Z" fill="black"/>
<path d="M6.67365 13.796H5.25854V14.4865H4.52728V15.217H5.25854V15.9416H5.94448V16.6275H6.67365V17.3561H7.40072V18.0841H8.08262V17.3561H7.40072V16.6241L6.67365 16.6275V15.9399L5.94448 15.9416V15.217H5.25854V14.4865H5.94523L5.94448 15.217H6.67051L6.67365 13.796Z" fill="#808080"/>
<path d="M6.67054 15.217H5.94452V15.9401H6.67054V15.217Z" fill="#C0C0C0"/>
<path d="M6.67053 15.217H7.40179V15.9399H8.08265V16.6262H6.67367L6.67053 15.217Z" fill="#808000"/>
<path d="M8.08266 16.6241H7.40076V17.3561H8.08266V16.6241Z" fill="#C0C0C0"/>
<path d="M5.25842 13.7959H6.67368V12.3446H7.39776V11.6605H8.08265V10.9304H8.81481V10.2001H9.54503V9.5213H8.08071V10.2041H7.4018V10.9304H6.67054V11.6587H5.94526V12.3446H5.25842V13.7959Z" fill="#808000"/>
<path d="M9.54502 11.6586H8.81675V12.3447H8.08265V13.0737H7.40179V14.4865H8.08265V15.2169H8.82273V15.9334H9.53919L9.54502 11.6586Z" fill="black"/>
<path d="M8.08266 12.3447H7.39777V13.0737H8.08266V12.3447Z" fill="#C0C0C0"/>
<path d="M8.08264 11.6606V12.3446H8.81674V11.6587H9.54501V10.9304H8.8148L8.81674 11.6587L8.08264 11.6606Z" fill="#C0C0C0"/>
<path d="M10.9601 9.5213V10.202H10.22V12.3446H9.54498V9.5213H10.9601Z" fill="#808080"/>
<path d="M8.82274 15.9333L8.08266 15.9399V18.7694H7.40076L7.4018 19.4878H8.08849L8.08266 18.7694H8.81886L8.82274 15.9333Z" fill="#008000"/>
<path d="M6.67036 29.4858H5.92145V30.2083H6.67036V29.4858Z" fill="#008000"/>
<path fill-rule="evenodd" clip-rule="evenodd" d="M26.6837 25.9255V26.652H24.5363V25.9255H26.6837Z" fill="#808080"/>
<path d="M29.5068 13.0737V11.6587H28.823V13.0737H29.5068Z" fill="#808080"/>
<path d="M29.5068 13.8019H28.823V14.4847H29.5068V13.8019Z" fill="#808080"/>
<path d="M29.5068 14.4849H28.823V15.2136H29.5068V14.4849Z" fill="black"/>
<path d="M29.5068 13.0737H28.823V13.8019H29.5068V13.0737Z" fill="black"/>
<path d="M32.378 0.21882L33.1056 0.217773V6.64775H32.3753V7.37004H31.6451V8.05688H30.9583V8.78305H30.24V9.5173H29.5068V10.2001H28.823V10.9266H28.0967V12.3447H27.3665V14.4867H26.6796V15.212H25.2222V15.9413H23.809V16.6281H23.0807V15.9413H23.809V15.212H24.5383V14.4839H25.2231V13.799H25.9528V13.0707H26.6811V11.6587H27.3665V10.9288L28.0967 10.9266V10.2022L28.823 10.2001V9.51536L29.5068 9.5173V8.7841L30.24 8.78305V8.05732H29.5068V7.37497H30.2365V6.64685H30.9662V5.91859H31.6501V5.23175H32.3798L32.378 0.21882Z" fill="black"/>
<path d="M32.3783 0.946594L31.6493 0.94794L31.65 1.63478L30.9632 1.63388L30.9642 2.36125L30.2349 2.36409L30.24 3.09535H29.5068V4.50044H28.811V5.89775H28.0932V6.66356H27.3742V7.37403H26.6875V8.8029H25.9612V9.52907H26.6954L26.6875 8.8029H27.3585V8.04995H28.0932V7.37194H28.823V8.05877H29.5068V7.37493H30.2364V6.64666H29.5068V7.37493L28.823 7.37194V6.64367L29.5068 6.64666V5.23454H30.2379L30.2334 3.77516L30.9632 3.77217L30.9642 2.36125L31.6502 2.36095V3.08982H32.379L32.3783 0.946594Z" fill="#808080"/>
<path d="M31.6502 2.36096H30.9643V3.77218H30.2335V4.50643H30.9662L30.9652 5.23261L31.6501 5.23784V4.50927H32.3795V3.08983H31.6502V2.36096Z" fill="#C0C0C0"/>
<path d="M30.9653 5.2326H29.5068V6.64681H28.8229V7.37209H28.0932V8.04996H27.3585V8.80275H26.6875V9.52908H27.3634L27.3585 8.80275H28.0932V8.04996H28.8229V7.37209H29.5068V6.64681H30.9662L30.9653 5.2326Z" fill="#C0C0C0"/>
<path d="M29.5068 8.05881L30.2399 8.05731V8.78319H29.5068V9.51729H28.823V10.2001H28.0967V10.9264H28.823V12.3447H28.0967V10.9264H27.3665V10.201H26.6875C26.6875 10.201 26.6796 9.52911 26.6875 9.52911H27.3635V8.80293H28.0932V9.52911H27.3635L27.3665 10.201L28.0967 10.2001L28.0932 9.52911L28.823 9.51729V8.795L29.5068 8.78319V8.05881Z" fill="#808000"/>
<path d="M26.6875 9.52911V10.201H27.3664V11.6586H26.6811V13.0707H25.9528V13.799H25.2232V14.4839H24.5383V15.2121H23.809V15.9413H23.0807V16.6281H22.4003V17.3524H18.8008V16.634H19.5261V15.9473H20.253V15.2169H20.9384V14.4868H21.6746V13.7921H22.4003V13.0737H23.0807V12.3447H23.806V11.6527H24.5362V10.9264H25.2269V10.1923H25.9612V9.52911H26.6875Z" fill="#0000FF"/>
<path d="M26.6875 10.9264V11.6585H25.9612V13.0707H26.6811L26.6875 11.6585H27.3664V10.9264H26.6875Z" fill="#000080"/>
<path d="M25.9624 9.53088V10.1939H25.2283V10.9282H24.5376V11.6545H23.8072V12.3464H23.0819V13.0753H22.4015V13.7937H21.6758V14.4885H20.9396V15.2187H20.2543V15.9489H19.5275V16.6357H18.8021V17.3541H18.1166V15.9332H18.8021V15.2187H19.526V14.4964H20.2543V13.7859H20.9396V13.0832H21.6601V12.3464H22.4021V11.6623H23.0819V10.9282H23.8153V10.2028L25.2283 10.1939V9.53088H25.9624Z" fill="#00FFFF"/>
<path d="M25.2271 10.1923H24.5284V8.78705H25.9612V9.52908H25.2271V10.1923Z" fill="#808000"/>
<path d="M25.2271 9.52911H24.5284V10.1923H25.2271V9.52911Z" fill="#008000"/>
<path d="M29.5068 8.05878H28.823V8.79497H28.0932V9.52907H27.3635V10.201H28.0967L28.0932 9.52907H28.823V8.79497H29.5068V8.05878Z" fill="#FFFF00"/>
<path d="M28.0932 0.217896H28.8189V5.23262H28.0932V5.9214H27.3664V6.64773H26.6678V7.38093H25.9453V8.0573H25.2269V8.78706H24.5283V10.1923H23.8139V10.9264L23.0819 10.9282L23.0807 11.6607H22.396L22.4008 12.3446H21.6589V13.0816L20.9384 13.0713V13.7838L20.253 13.7994V14.4948L19.5248 14.485V15.217L18.7964 15.2133L18.8008 15.9314L18.1122 15.9419L18.1152 16.6223H17.3854V15.9432L18.1122 15.9419L18.1152 15.217L18.7964 15.2133L18.8008 14.4907L19.5248 14.485V13.8039L20.253 13.7994V13.0657L20.9384 13.0713V12.3446H21.6589V11.6527L22.396 11.6607V10.9304L23.0819 10.9282V10.2011H23.8081V8.78706H24.5373V8.05879L25.2269 8.0573V6.64668H25.9498V5.91691H26.6796V5.23262H27.3649V3.77518H28.0932V0.217896Z" fill="black"/>
<path d="M23.8081 9.51532H23.0836V10.2011H22.3969V10.9304H21.6647V11.6527H20.9384V12.3446H20.2556V13.0657H19.5254V13.8039H18.7932V14.4907H18.1166V15.217H17.3854V15.9432H16.6519V16.63H15.969V17.3523H17.3854V15.9432H18.1122L18.1166 15.217H18.8021L18.7932 14.4907H19.5248L19.5254 13.8039H20.2531L20.2556 13.0657H20.9384V12.3446H21.6589L21.6647 11.6527H22.396L22.3969 10.9304H23.0819L23.0836 10.2011H23.8081V9.51532Z" fill="#800000"/>
<path d="M22.3945 8.05878V8.78705H23.0807V10.2011H22.3969V10.9304H21.6647V11.6527H20.9384V12.3446H20.2556V13.0659H19.5254V13.8039H18.7932V14.4907H18.1165V15.217H17.3854V15.9432H16.6519V16.63H15.969V17.3523H15.2388V16.6221H14.5085V15.9314H15.2388V14.4867H15.969V13.8H16.6554V13.0736L17.3854 13.0663V12.3446H18.1165V11.6606H18.7945V10.9343H19.5116V10.1923H20.2556L20.2526 9.50933L20.9379 9.51532L20.9409 8.79004L21.6668 8.78705V8.06177L22.3945 8.05878Z" fill="#FF0000"/>
<path d="M15.2388 16.6221H13.8256V17.3523H15.2388V16.6221Z" fill="#800000"/>
<path d="M15.2388 15.217H14.5085V15.9314H15.2388V15.217Z" fill="#800000"/>
<path d="M15.969 14.4867H15.2388V13.799H15.969V13.0707H16.6552V12.3447H17.3856V11.6616H18.1164V10.932H18.8007V10.1992H19.5273V9.51535H20.2526V8.79008H20.9409V8.06181H21.6667V7.37347H22.3945V8.05882L21.6667 8.06181V8.78709L20.9409 8.79008V9.51535H20.2526V10.1923L19.5273 10.1992V10.9344L18.8007 10.932V11.6607L18.1164 11.6616V12.3447H17.3856V13.0664H16.6552V13.8L15.969 13.799V14.4867Z" fill="#800000"/>
<path d="M28.0932 0.946594H27.3635V1.64659H26.684V2.36095H25.9612V3.10313H25.227V3.77815H24.5362V4.50837H23.814V5.90957H23.0807V7.37343H23.806V6.63978H24.5283V5.23783H25.231L25.227 3.77815H26.6678L26.684 2.36095H28.0932V0.946594Z" fill="#808000"/>
<path d="M26.6839 2.36096L26.6757 3.08744H27.3635L27.365 3.77517H28.0932V2.36096H26.6839Z" fill="#808080"/>
<path d="M27.3649 3.77521L25.2271 3.7782V5.23788H24.5284V5.91365H25.9498V5.23788H26.6794V4.50049H27.3633L27.3649 3.77521Z" fill="#C0C0C0"/>
<path d="M27.3724 4.50049V5.23265H26.6886V5.91709H25.9588V6.64671H25.2359V7.37348H24.5373V5.91365L25.9588 5.91709V5.23788L26.6886 5.23265V4.50049H27.3724Z" fill="#808080"/>
<path d="M24.5284 6.63983H23.8062V7.37349H24.5373L24.5284 6.63983Z" fill="#C0C0C0"/>
<path d="M24.5373 7.37347H23.806V8.05897H23.0807V9.51535H23.8081V8.78709L23.806 8.05897H24.5373V7.37347Z" fill="#FFFF00"/>
<path d="M23.0807 7.37347H22.3945V8.05882H23.0807V7.37347Z" fill="#808080"/>
<path d="M23.0807 8.05878H22.3945V8.78689H23.0807V8.05878Z" fill="#C0C0C0"/>
<path d="M32.3795 4.50928H31.65V5.23785H30.9651V5.9184H31.65V5.23785H32.3798L32.3795 4.50928Z" fill="#808080"/>
<path d="M25.2359 7.37347H24.5373V8.05897H23.806L23.8081 8.78709H24.5285L24.5373 8.05897H25.227L25.2359 7.37347Z" fill="#808000"/>
<path fill-rule="evenodd" clip-rule="evenodd" d="M20.2527 8.05878L20.9409 8.06177L20.9378 8.79288L20.2498 8.79004L20.2527 8.05878Z" fill="#808000"/>
<path d="M18.7971 0.217896H17.3856V2.35708H18.1103V3.08745H18.7971V3.77817H19.5274V9.51533H20.2526V3.08745H19.5155V1.63091H18.7892L18.7971 0.217896Z" fill="black"/>
<path d="M16.6558 0.947083H17.3811V2.35725H16.6558V3.77221H15.969V2.35965L16.6558 2.35725V0.947083Z" fill="#808080"/>
<path d="M18.1103 3.08746H17.3811V3.77221H16.6558V4.50257H17.383L17.3811 3.77221H18.1103V4.50257H18.801V3.77819L18.1103 3.77221V3.08746Z" fill="#C0C0C0"/>
<path d="M19.5273 3.7782H18.801V4.50243H15.969V3.77222H15.2388V13.799H15.969V5.22277H18.1064V10.9318H18.8008V10.1992H19.5116L19.5273 3.7782Z" fill="#808000"/>
<path d="M18.1064 5.22278H17.3952V11.6616H18.1164L18.1064 5.22278Z" fill="#FFFF00"/>
<path d="M17.3856 5.22278H16.6558V12.3447H17.3856V5.22278Z" fill="white"/>
<path d="M16.6558 5.22278H15.969V13.0707H16.6558V5.22278Z" fill="#C0C0C0"/>
<path d="M10.2299 1.63092H10.9542V2.35919H11.6824V3.08731H12.3731V3.7722H13.0975V4.50242H13.8276V5.23069H14.5126V5.91558H15.2388V8.78558H13.8297V9.51534H15.2388V15.2169H14.5086V16.6221H13.0995V15.9413H13.8267L13.8297 9.51534H13.0975V8.78708L13.8297 8.78558V5.91558H13.0975V4.50242H12.3693L12.3731 3.7722H11.6824V3.08731H10.9562L10.9542 2.35919H10.2299V1.63092Z" fill="black"/>
<path d="M8.81091 0.213867H9.53709V0.940192H10.2299V2.35919H10.9541V3.08731H11.6824V3.7722H12.3731V4.50241H13.0975V5.23068H12.3752V6.63996H11.6805V8.04893H10.9601V8.77915H9.54502V7.37795H8.81091V0.213867Z" fill="#008000"/>
<path d="M9.54498 2.35724V6.64968H10.2299V7.37794H10.9541V6.63786H11.6804V3.77235H10.9541V3.0873H10.2299V2.35918L9.54498 2.35724Z" fill="#00FF00"/>
<path d="M12.375 5.23071H13.0975V5.91561H13.8296V8.78561H13.0975V9.51537H13.8296V11.6587H13.0975V10.1844H12.375V9.52135H10.9599V10.2022H10.22V12.3447H9.54498V9.52135H10.9599V8.77917H12.3869V8.05883H13.0975V5.91561H12.375V5.23071Z" fill="#808080"/>
<path d="M12.3751 5.91559V6.63982H11.6805V8.04894H10.96V8.77916H12.3869V8.05882H13.0975V5.91559H12.3751Z" fill="#C0C0C0"/>
<path d="M10.9601 9.5213V10.202H11.6764V10.9303H10.9541L10.9601 10.202H10.22V11.6587H13.0975V10.1844H12.3752V9.5213H10.9601Z" fill="#C0C0C0"/>
<path d="M10.9599 8.7793H9.54498V9.52133H10.9599V8.7793Z" fill="#808000"/>
<path d="M9.54503 9.5213V10.2001H8.81481V10.9303H8.08265V11.6605H7.39776V12.3446H6.67368V13.7959H5.25842V12.3446H5.94526V11.6587H6.67054V10.9303H7.4018V10.2041H8.08071V9.5213H9.54503Z" fill="#808000"/>
<path d="M10.22 11.6586V12.3447H13.0975V15.9413H13.8267V11.6586H10.22Z" fill="#800080"/>
<path d="M9.54502 12.3447H10.22V15.9334H9.53918L9.54502 12.3447Z" fill="#800080"/>
<path fill-rule="evenodd" clip-rule="evenodd" d="M12.37 16.626L13.8258 16.6221L13.8277 17.3522L12.3719 17.3561L12.37 16.626Z" fill="#800080"/>
<path d="M11.6884 18.0826H12.3719V17.3561H11.6766L11.6884 18.0826Z" fill="#C0C0C0"/>
<path d="M10.22 12.3447H13.0975V16.6223H12.3719V17.3561H10.9483V16.6202H10.2259L10.22 12.3447Z" fill="#FF00FF"/>
<path d="M18.1154 16.6223H17.3856V17.3542H18.1154V16.6223Z" fill="#808080"/>
<path d="M2.3884 30.9395H1.65863V31.6204H2.3884V30.9395Z" fill="#008000"/>
<path d="M5.94449 15.217H5.25854V14.4865" fill="#C0C0C0"/>
</svg>
