<svg width="26" height="30" viewBox="0 0 26 30" fill="none" xmlns="http://www.w3.org/2000/svg">
<path fill-rule="evenodd" clip-rule="evenodd" d="M1.36157 2.34076V28.0459L22.48 28.0305V1.42242H2.28067V2.34076H1.36157Z" fill="white"/>
<path d="M4.11665 0.504089H2.28345V1.42242H4.11665V0.504089Z" fill="black"/>
<path d="M2.2834 1.42151H1.36597V2.33984H2.2834V1.42151Z" fill="#808080"/>
<path d="M7.79033 1.42151H5.95264V2.33984H7.79033V1.42151Z" fill="#808080"/>
<path d="M10.5425 1.42242H8.70483V2.34076H10.5425V1.42242Z" fill="#808080"/>
<path d="M13.2986 1.42242H11.4609V2.34076H13.2986V1.42242Z" fill="#808080"/>
<path d="M16.0517 1.42242H14.2139V2.34076H16.0517V1.42242Z" fill="#808080"/>
<path d="M18.8054 1.42242H16.9675V2.34076H18.8054V1.42242Z" fill="#808080"/>
<path d="M21.5625 1.42242H19.7249V2.34076H21.5625V1.42242Z" fill="#808080"/>
<path d="M19.7248 2.34076H18.8059V4.1764H19.7248V2.34076Z" fill="black"/>
<path d="M16.9704 2.34076H16.0515V4.1764H16.9704V2.34076Z" fill="black"/>
<path d="M14.2162 2.34076H13.2974V4.1764H14.2162V2.34076Z" fill="black"/>
<path d="M11.4613 2.34076H10.5425V4.1764H11.4613V2.34076Z" fill="black"/>
<path d="M8.70913 2.34076H7.79028V4.1764H8.70913V2.34076Z" fill="black"/>
<path d="M5.95425 2.34076H5.0354V4.1764H5.95425V2.34076Z" fill="black"/>
<path d="M3.19888 2.34039H2.28003V4.17616H3.19888V2.34039Z" fill="black"/>
<path d="M23.3921 1.42242H22.4802V2.34076H23.3921V1.42242Z" fill="#808080"/>
<path d="M5.03521 1.42151H3.19995V2.33984H5.03521V1.42151Z" fill="#808080"/>
<path d="M6.87642 0.504089H5.04321V1.42242H6.87642V0.504089Z" fill="black"/>
<path d="M9.62154 0.504089H7.78833V1.42242H9.62154V0.504089Z" fill="black"/>
<path d="M12.3776 0.504089H10.5444V1.42242H12.3776V0.504089Z" fill="black"/>
<path d="M15.1306 0.504089H13.2974V1.42242H15.1306V0.504089Z" fill="black"/>
<path d="M17.8867 0.504089H16.0535V1.42242H17.8867V0.504089Z" fill="black"/>
<path d="M20.6352 0.504089H18.802V1.42242H20.6352V0.504089Z" fill="black"/>
<path d="M22.479 0.504089H21.5559V1.42242H22.479V0.504089Z" fill="black"/>
<path d="M24.3185 1.42242H23.3953V2.34076H24.3185V1.42242Z" fill="black"/>
<path d="M24.3203 28.0458H23.3972V28.9641H24.3203V28.0458Z" fill="black"/>
<path d="M23.3973 28.0458H22.4741V28.9641H23.3973V28.0458Z" fill="#C0C0C0"/>
<path d="M22.479 28.0458H21.5559V28.9641H22.479V28.0458Z" fill="black"/>
<path d="M2.2808 28.0458H1.36157V28.9641H2.2808V28.0458Z" fill="#808080"/>
<path d="M24.3142 2.34076L24.3183 28.0305H25.2279V2.34076H24.3142Z" fill="black"/>
<path d="M22.4788 2.34076L22.4827 28.0305H23.3925V2.34076H22.4788Z" fill="black"/>
<path d="M23.3926 2.34076L23.3967 28.0436H24.3183V2.34076H23.3926Z" fill="#C0C0C0"/>
<path d="M21.5544 2.34076L21.5584 28.0305H22.4801V2.34076H21.5544Z" fill="#C0C0C0"/>
<path d="M0.435791 2.34076L0.439765 28.0459H1.36156V2.34076H0.435791Z" fill="#808080"/>
<path d="M2.28076 28.9677L21.5558 28.9637V28.0474H2.28076V28.9677Z" fill="#C0C0C0"/>
<path d="M3.21362 26.2091L8.69619 26.2051V25.2888H3.21362V26.2091Z" fill="black"/>
<path d="M3.21362 24.3767L8.69619 24.3727V23.4564H3.21362V24.3767Z" fill="black"/>
<path d="M3.21362 13.3523L8.69619 13.3484V12.4321H3.21362V13.3523Z" fill="black"/>
<path d="M3.21362 9.70218L8.69619 9.6982V8.78192H3.21362V9.70218Z" fill="black"/>
<path d="M3.21362 7.85489L8.69619 7.85104V6.93463H3.21362V7.85489Z" fill="black"/>
<path d="M16.9868 7.85488L19.7208 7.85091V6.93475H16.9868V7.85488Z" fill="black"/>
<path d="M15.1396 7.85489L16.0558 7.85104V6.93463H15.1396V7.85489Z" fill="black"/>
<path d="M3.21387 21.6131L19.7209 21.6091V20.6928H3.21387V21.6131Z" fill="black"/>
<path d="M3.21387 19.7954L19.7209 19.7914V18.8751H3.21387V19.7954Z" fill="black"/>
<path d="M3.21387 17.9185L19.7209 17.9146V16.9983H3.21387V17.9185Z" fill="black"/>
<path d="M3.21387 16.1137L19.7209 16.1097V15.1934H3.21387V16.1137Z" fill="black"/>
<path d="M2.28076 29.8845L23.3926 29.8805V28.9641H2.28076V29.8845Z" fill="black"/>
</svg>
