<svg width="35" height="35" viewBox="0 0 35 35" fill="none" xmlns="http://www.w3.org/2000/svg">
<path fill-rule="evenodd" clip-rule="evenodd" d="M16.6584 28.9167L24.3832 25.7129L30.0022 22.0774L32.5488 16.855L24.3914 15.8511L22.9804 17.1265L19.4386 15.912L18.0989 6.95483L12.5104 4.32265L7.3967 4.00885L7.05582 10.2683L5.65582 11.3913L5.56309 11.3949L5.26439 12.4625L4.73535 16.5362L4.58264 16.6036H4.43621L3.89117 16.911L2.48967 17.5417L1.77157 18.0433L0.678345 18.7981L1.64414 22.143L6.32815 27.8783L9.05995 29.5705L14.5527 30.4911L16.6584 28.9167Z" fill="white"/>
<path d="M30.2822 18.8294H28.0417V17.5236H25.9196V16.663H24.9701V6.95483H29.3215V7.92302H28.7984V9.14174H30.234V13.3242H31.3766V14.4816H32.4042V15.5204H31.4099V17.7314H30.2822V18.8294Z" fill="#13038E"/>
<path d="M16.3637 34.2764V26.2487H17.547V25.2062H19.6727V24.0712H21.8539V23.0251H23.7013V22.068H25.9977V20.8476H28.0714V18.8296H30.2822V19.8534H29.1398V27.3171H28.1159V28.4153L18.9307 32.9409L16.3637 34.2764Z" fill="#959595"/>
<path d="M16.3637 34.2764V26.2487H12.2385V27.5248H11.1405V28.4152H8.91467V27.4952H6.74841V26.2487H5.65025V24.023H4.55224V22.005H3.45408V20.8476H2.35606V19.8088H1.34705V27.0426H1.88132L16.3637 34.2764Z" fill="#CECECE"/>
<path d="M17.4617 33.7274H15.2656V34.8254H17.4617V33.7274Z" fill="#080809"/>
<path d="M15.1469 32.6293H12.9507V33.7273H15.1469V32.6293Z" fill="#080809"/>
<path d="M12.9508 31.5312H10.7548V32.6291H12.9508V31.5312Z" fill="#080809"/>
<path d="M10.7547 30.4333H8.55853V31.5313H10.7547V30.4333Z" fill="#080809"/>
<path d="M8.55854 29.3351H6.36237V30.4331H8.55854V29.3351Z" fill="#080809"/>
<path d="M6.7483 28.4152H4.55212V29.5132H6.7483V28.4152Z" fill="#080809"/>
<path d="M4.5521 27.1983H2.35608V28.2963H4.5521V27.1983Z" fill="#080809"/>
<path d="M2.53404 26.1005H1.22827V27.1983H2.53404V26.1005Z" fill="#080809"/>
<path d="M19.6579 32.6293H17.4617V33.7273H19.6579V32.6293Z" fill="#080809"/>
<path d="M21.8539 31.5312H19.6579V32.6291H21.8539V31.5312Z" fill="#080809"/>
<path d="M24.0501 30.4333H21.8539V31.5313H24.0501V30.4333Z" fill="#080809"/>
<path d="M26.2053 29.3351H24.0091V30.4331H26.2053V29.3351Z" fill="#080809"/>
<path d="M28.1936 28.4152H25.9976V29.5132H28.1936V28.4152Z" fill="#080809"/>
<path d="M11.0127 27.3912V26.2636H9.9533V25.1358H7.63866V3.70894H9.93849V2.75931H11.9715V1.6761H14.1823V0.592896H11.096V1.73533H8.94443V2.7445H6.83725V9.21396H5.65024V11.3953H6.89663V15.5648H5.56125V11.3953H4.58185V16.6184H6.89663V17.7016H4.58185V18.8294H2.48962V19.8088H4.58185V21.9158H5.66505V24.0526H6.79283V26.1003H8.97405V27.3912H11.0127Z" fill="#959492"/>
<path d="M2.48965 16.6036V17.5386H0.330566V27.1983H1.34706V18.7738H2.48965V17.5386H4.53745V16.6036H2.48965Z" fill="#9E9E9E"/>
<path d="M15.2322 13.4319H16.3637V21.8565H15.2322V13.4319Z" fill="#2E00FF"/>
<path d="M13.0504 11.3842H14.3165V20.8105H13.0504V11.3842Z" fill="#2E00FF"/>
<path d="M6.82995 12.2856H5.56128V13.5543H6.82995V12.2856Z" fill="#13A9A9"/>
<path d="M9.93853 3.70899H7.63855V4.7904H9.93853V5.83636H11.9566V6.97162H14.1825V7.97316H16.3191V9.1473H18.4708V23.0139H17.254V24.0081H12.0161V25.1507H11.0128V26.2635H12.0161V25.1507H17.2689V24.0081H19.4502V22.9992H21.6314V21.9753H23.6346V20.8177H25.9198V18.8296H28.0416V17.5237H25.9198V16.663H24.9701V17.5386H25.9198V18.8296H24.9701V19.9126H23.7237V6.9438H22.7295V5.84578H20.5184V4.79219H18.441V3.84256H16.2894V2.69997H14.1825V1.67615H11.9715V2.7592H14.1825V3.84256H16.2894V4.79219H18.441V5.84578H20.4888V6.98822H22.7295V20.8624H21.5572V7.9232H20.4592L20.4888 6.98822H18.4559L18.441 5.84578H16.3043L16.2894 4.79219H14.1825V3.84256H11.9715V2.7592H9.93853V3.82775L11.9715 3.84256V4.77739L14.1825 4.79219V5.84578H16.3043V6.97341L18.4559 6.98822V7.96762L20.6224 7.9232V22.0642H19.3908V9.13982H18.4708L18.4559 7.96762H16.3191L16.3043 6.97341H14.1825V5.84578H11.9566L11.9715 4.77739H9.93853V3.82775" fill="#CECECE"/>
<path d="M20.6223 9.14172H19.3907V22.0642H20.6223V9.14172Z" fill="#101010"/>
<path d="M22.7442 7.92316H21.5126V20.8773H22.7442V7.92316Z" fill="#101010"/>
<path d="M24.9478 6.95483H23.7162V19.909H24.9478V6.95483Z" fill="#101010"/>
<path d="M28.1158 28.4152V27.3171H29.1398V19.8533H30.2822V23.9339H31.232V21.8119H32.4338V19.6901H33.5318V11.425H34.541V19.6753L33.5318 19.6901V21.7971L32.4338 21.8119V23.8893L31.232 23.9339V25.1359H30.2822V27.3171H29.1398V28.4152H28.1158Z" fill="#101010"/>
<path d="M32.3894 15.5204H33.532V19.6899H32.4338V21.812H31.232V23.9339H30.2824V17.7314H29.0952V16.5888H30.2824V17.7314H31.41V16.574L30.2824 16.5888V14.4816H31.41V16.574H32.4042L32.3894 15.5204Z" fill="#101010"/>
<path d="M33.5319 15.5204H31.4099V16.574H32.4042V14.467H31.3766V13.3242H30.234V12.3041H27.1735V11.3433H24.9478V10.1265H26.0941V7.92301H24.9478V5.79743L22.7295 5.84559V4.79589H20.5184V3.82756H18.4411V2.67017H20.4962L20.5184 3.82756H22.8445V2.67017H25.9829V3.71643H28.0416V4.77361H29.3104V5.81972H28.7428V6.95482H29.3215V7.92301H28.7984V9.14173H30.2229V10.2379H31.3135V11.2172H30.2303L30.234 12.3041H31.3729L31.3766 13.3242H32.4042V14.467H33.5319V15.5204Z" fill="#009700"/>
<path d="M30.234 7.92316V9.14172H31.3284V10.2379H32.4264V9.14172H31.3284V7.92316H30.234Z" fill="#009700"/>
<path d="M31.3135 11.2172H32.4265V12.3227H33.5319V13.5767H32.4042L32.4265 12.3227H31.3301L31.3135 11.2172Z" fill="#009700"/>
<path d="M9.93852 4.79034H8.87775V9.14171H10.9031V10.249H12.1496V6.97156H11.9565V5.84573H9.93852V4.79034Z" fill="#FF0000"/>
<path d="M9.93851 5.84558H8.87775V6.95481H9.93851V5.84558Z" fill="#AE0304"/>
<path d="M10.9031 5.8363V6.95481H11.9567V5.84573L10.9031 5.8363Z" fill="#AE0304"/>
<path d="M11.0127 7.92316H9.99054V9.14173H11.0127V7.92316Z" fill="#AE0304"/>
<path d="M12.1495 9.14172H10.903V10.249H12.1495V9.14172Z" fill="#AE0304"/>
<path d="M31.3285 9.14172V10.2379H32.4265V11.2172H33.5318V12.3227H32.4265V11.2172H31.3135V12.3041H30.2341V11.2172H31.3135L31.3285 10.2379H30.2228V9.14172H31.3285Z" fill="#13038E"/>
<path d="M32.4042 13.3244H31.3766V12.3041H32.4264L32.4042 13.3244Z" fill="#13038E"/>
<path d="M33.5318 13.5767H32.4041V14.467H33.5318V13.5767Z" fill="#13038E"/>
<path d="M31.3283 6.95483H30.2228V7.92302H31.3283V6.95483Z" fill="#13038E"/>
<path d="M31.3284 6.95483H32.4264V9.14174H33.5318V11.425V11.2172H32.4264V9.14174H31.3284V6.95483Z" fill="#101010"/>
<path d="M30.234 7.92316H28.7984V9.14173H30.234V7.92316Z" fill="#101010"/>
<path d="M30.2228 5.8197H28.7428V6.95481H30.2228V5.8197Z" fill="#101010"/>
<path d="M24.9478 6.94377H22.7295V5.84575H20.5184V4.79216H18.4411V3.84253H16.2895V2.69994H14.1823V1.67612H15.2951V0.54834H23.6197V1.49798H25.9828V2.67033H28.0416V3.75353H29.3104V4.80697H30.2228V5.81973H31.3284V6.95484H30.2228V5.81973H29.3104V4.80697H28.0416V3.75353H25.9828V2.67033H22.8445V3.82772H20.5184V2.67033H18.4411V3.84253L20.5184 3.82772V4.79216H22.7295V5.84575H24.9478V6.94377Z" fill="#959595"/>
<path d="M22.8446 2.67017H21.598V3.82756H22.8446V2.67017Z" fill="#2602EE"/>
<path d="M20.5184 1.67615H19.5168V2.67036H20.5184V1.67615Z" fill="#2602EE"/>
<path d="M17.4858 1.48499H16.3674V2.74259H17.4858V1.48499Z" fill="#019699"/>
<path d="M23.6198 1.49799H20.5184V3.82773H21.598V2.67019H23.6198V1.49799Z" fill="#019699"/>
<path d="M22.7295 6.98817L22.7443 7.92315H20.4591V6.98817H18.4559V5.84574H16.3043V4.79215H14.1823V3.84251H11.9715V2.75916H14.1823V3.84251H16.2895L16.3043 4.79215H18.4411L18.4559 5.84574H20.5184L20.4591 6.98817H22.7295Z" fill="#959595"/>
<path d="M9.93854 4.79035V3.8277H11.9715V4.77733H14.1825V5.84573H16.3043V6.97336H18.456V7.96757H20.6224V9.14172H18.4708L18.456 7.96757H16.3192L16.3043 6.97336H14.1825V5.84573H11.9566L11.9715 4.77733L9.93854 4.79035Z" fill="#959595"/>
<path d="M30.2229 6.95483H29.3215V7.92302H30.2229V6.95483Z" fill="#101010"/>
</svg>
