<svg width="35" height="35" viewBox="0 0 35 35" fill="none" xmlns="http://www.w3.org/2000/svg">
<path fill-rule="evenodd" clip-rule="evenodd" d="M22.5516 21.4828L30.6389 14.2355L31.6813 12.1209V9.96603L30.6411 9.44765L29.5535 8.8813L27.1531 8.14549L26.7543 5.35238L26.3581 3.55454L24.5978 2.72346L24.2032 2.49332L21.4284 2.14103L21.01 2.49751L19.7165 3.02684L18.314 2.80481L17.8054 1.04684L16.7251 1.44008L14.9986 1.97143L14.5899 1.41224L12.2482 0.989136L11.7547 1.25157L11.3838 1.41616L9.04553 1.99832L8.19877 2.49657L7.08459 3.18751L5.56756 3.42049L4.99256 3.53832L3.35959 4.12238L2.85553 4.62886L2.50323 6.18265L2.8131 9.35305L8.65972 14.8982L13.2117 18.119L19.8438 21.5364L22.5516 21.4828Z" fill="white"/>
<path d="M31.6815 9.97412H32.7493V14.2451H31.6815V18.5195H30.6137V22.7907H29.546V27.0584H28.4749V31.3361H27.407V32.404H25.2714V33.4749H23.1358V34.5402H19.9326V33.4717H17.797V32.3974H15.6648V31.3361H13.5292V30.2683H11.387V29.194H9.24826V28.1295H7.11597V27.0584H9.25043L9.24826 28.1295H11.386L11.387 29.194H13.5237L13.5292 30.2683H15.6615L15.6648 31.3361H17.7992L17.797 32.3974H19.9326V33.4717L23.1358 33.4749V32.404H25.2714V31.3372L27.407 31.3361V27.0617L28.4749 27.0584V22.7907H29.546V18.5195H30.6137V14.2484L31.6815 14.2451V9.97412Z" fill="black"/>
<path d="M29.5578 12.0995V13.1902H26.3381V14.2351H23.1381V15.3192H21.0157V32.4037H19.9381V31.3456H17.8047V30.2615H15.667V29.1905H13.5292V28.1455H11.3915V27.0484H9.25596V25.9905H7.12136V22.7902H6.04717V18.5322H4.96298V14.2482L3.9165 14.2457L3.91704 9.9737L2.84866 9.97248L2.84853 4.63208L4.98501 4.63181L4.98596 5.70046L3.91731 5.7014L3.92136 6.77046L4.97609 6.76383V7.83492H7.11825V8.89289H9.2538V9.9737H11.3893V11.048H13.5249V12.106H15.68V13.1705L17.7976 13.1769L17.8026 14.2482H19.9381V11.0545L18.8654 11.0415L18.8801 9.9737H19.9381V8.90586H21.0092V7.83492H22.0672L22.0693 5.70032L21.0026 5.69938L21.0092 7.83492H19.9381V5.69938H18.8735L18.8801 9.9737H17.8026L17.7976 11.0407L18.8654 11.0415V13.1769H17.7976L17.8026 12.0995H16.7343V8.90586H15.667V7.83816H14.596V6.76721L13.5251 6.76938L13.5315 4.64127H12.4538V6.75073L13.5251 6.76938L13.5315 7.83492L14.596 7.83816V8.90586H15.667V11.048H13.5249V9.9737H11.3893V4.63492L12.4538 4.64127V3.55721H14.6026V2.49275H16.7307V1.42816H14.5893L14.6026 2.49275H11.3958V3.57032H8.18285V4.63492L4.98501 4.63181L4.97609 3.56383L8.18285 3.57032V2.49924L11.3958 2.49275V1.42816H14.5893V0.359375H11.3926L11.3958 1.42816H8.1892L8.18285 2.49924H4.98596L4.97609 3.56383H2.84717L2.84853 4.63208L1.78136 4.63235L1.78082 9.97248H2.84866L2.84717 14.2448L3.9165 14.2457V18.516H4.98434V22.7887L6.04717 22.7902V27.0598H7.12136L9.25596 27.0484V28.1292H11.386V29.194L13.5292 29.1905V30.2684L15.667 30.2615V31.3361H17.7992V32.3974L19.9381 32.4037V33.4717H23.1358V32.4038H25.2715V31.3372H27.4072V27.0618H28.4749V22.7906H29.5458V18.5195H30.6137V14.2484H31.6814V12.0996L29.5578 12.0995Z" fill="#808080"/>
<path d="M16.7252 0.359619H18.868V2.49948L21.0012 2.49462V1.42962H24.2003L24.2058 2.49462L26.3425 2.49948V3.56408H27.4103V7.83516H29.5458V8.903H31.6814V9.97408H29.5458V8.903H28.4781V9.97408H27.4103V8.903H26.3425V7.82867H25.278L25.2739 6.76854L24.2033 6.76746V5.70124L22.0692 5.70043L22.0672 4.63178H24.2033V5.70124H25.2731L25.2739 6.76854L26.3416 6.76746L26.3425 3.56408H24.2058V2.49462H21.0012V3.56435H18.8631V5.698H17.7949V1.42638H16.7307L16.7252 0.359619Z" fill="#808080"/>
<path d="M21.0022 6.77075H19.9381V7.83494H21.0022V6.77075Z" fill="#C0C0C0"/>
<path d="M15.6576 6.77075H14.5934V7.83494H15.6576V6.77075Z" fill="#C0C0C0"/>
<path d="M14.5908 5.70142H13.5266V6.7656H14.5908V5.70142Z" fill="#C0C0C0"/>
<path d="M16.7288 7.83496H15.6646V8.90604H16.7288V7.83496Z" fill="#C0C0C0"/>
<path d="M18.8618 12.0972H17.7976V13.1683H18.8618V12.0972Z" fill="#C0C0C0"/>
<path d="M16.7288 8.90601H17.7976V11.0407H18.8653V13.177H17.7976V12.0972H16.7344L16.7288 8.90601Z" fill="#C0C0C0"/>
<path d="M21.0157 15.3191V32.4035H19.9381V31.3457H17.7992V30.2615H15.6669V29.1904H13.5293V28.1456H11.3861V27.0484H9.25594V25.9904H7.12148V22.7903H6.04716V18.5323H4.98432V14.2481H3.91648V9.97367H2.84851V7.84827H4.97608V8.90192H7.11824V9.97408H9.25378V11.0439H11.3893V12.0972H13.5249V13.1769H15.68V14.2483H17.8026V15.3021L21.0157 15.3191Z" fill="#C0C0C0"/>
<path d="M18.8681 15.3078V19.6036H14.61V18.5326H15.668V17.4499H14.61V16.3644H11.3838V15.3078H13.5258V14.2355H15.68V15.3129H16.7251V16.3775H17.7904V15.3021L18.8681 15.3078Z" fill="#008000"/>
<path d="M13.526 14.2355H12.4549V15.3078H13.526V14.2355Z" fill="#808080"/>
<path d="M18.8681 20.6486V24.9196H17.7708V25.9907H14.5839V27.0487H13.5258V25.9776H12.4288V24.9196H11.3838V23.8486H12.4505V22.795H13.5346V21.724H14.5926V23.8486H17.8014V20.6486H18.8681Z" fill="#008000"/>
<path d="M17.8014 22.7928H16.7288V23.8616H17.8014V22.7928Z" fill="#808080"/>
<path d="M14.5922 27.0487H13.5233V28.1175H14.5922V27.0487Z" fill="#808080"/>
<path d="M13.5245 25.9797H12.428V27.0485H13.5245V25.9797Z" fill="#808080"/>
<path d="M12.428 24.9189H11.3591V25.9877H12.428V24.9189Z" fill="#808080"/>
<path d="M10.3149 22.7899H9.24597V23.8587H10.3149V22.7899Z" fill="#808080"/>
<path d="M11.3839 20.6587H10.3172V19.5943H9.24839V23.8587H10.3161V24.9354H9.24839V23.8587H8.19028V22.7977H7.12149V18.5277H8.18595V17.4601H7.11609V16.3931H11.3839V20.6587Z" fill="#008000"/>
<path d="M19.9326 13.177V14.2482H23.1381V13.1683L26.3424 13.1757V12.1097H29.5442V9.97412H26.3424V11.0414H25.2855V12.1111H22.0724V13.177H19.9326Z" fill="#C0C0C0"/>
</svg>
