<svg width="36" height="35" viewBox="0 0 36 35" fill="none" xmlns="http://www.w3.org/2000/svg">
<path d="M7.53576 7.55066H24.0124V18.3331H7.52441L7.53576 7.55066Z" fill="#1602FF"/>
<path d="M27.2573 27.1245H16.2313V29.3818H27.2573V27.1245Z" fill="black"/>
<path d="M32.7026 21.6111H31.5325V22.7515H30.5126V23.9661H29.3722V26.1317H2.14459V32.6371H29.3573L29.3722 25.0716H30.5126V23.9661H31.5176L31.5325 22.7515H32.7026V21.6111Z" fill="#C0C0C0"/>
<path d="M6.57006 28.2266H4.22986V30.5214H6.57006V28.2266Z" fill="#187216"/>
<path d="M7.54542 0.879322H30.5126V0H7.54542V2.10007H6.58489V3.05012H5.41479V4.24031H4.25516V21.8311H27.2669V3.03004H28.4474V2.08959H29.4071L29.387 0.879322H30.5126V20.6514H29.4071V21.6111H28.2073V22.7515H3.3252V4.24991L4.25516 4.24031V3.03004L5.41479 3.05012V2.06951L6.58489 2.10007V0.869717L7.54542 0.879322Z" fill="#827F87"/>
<path d="M28.4422 0.879272V2.08954H27.2267V3.02999H6.5849V2.10002H7.54543V0.879272H28.4422Z" fill="#BFC1C0"/>
<path d="M5.41479 4.2403H27.2669V21.8311H5.41479V20.7108H26.1317V5.37983H6.36048L6.32992 20.7108H5.41479V4.2403Z" fill="#BFC1C0"/>
<path d="M30.5126 0.879272H31.7272V20.6662H30.5126V21.6171L29.387 21.611V22.7514H28.1872V23.9661H3.3252V22.7514H28.1872V21.611H29.4071V20.6514L30.5126 20.6662V0.879272Z" fill="#010003"/>
<path d="M30.5126 20.6663H33.8578V30.4916H32.7026V31.4522H31.5028V32.5472H30.5126V33.5819H0V25.1065H0.946562V23.9661H28.1907V22.7515H29.387V21.6111H31.5325V22.7515H30.5126V23.9661H29.3722V25.1519L0.946562 25.1065V32.6371H29.3573L29.3722 25.1519H30.5126V23.9661H31.5176L31.5325 22.7515C31.5325 22.7515 32.7026 22.886 32.7026 22.7515V21.6111H30.5126V20.6663Z" fill="#827F87"/>
<path d="M33.8579 21.6512H35.0472V30.5318H33.8579V31.4923H32.7026V32.6519H31.5273V33.5819H30.5126V35H0.974548V33.5819H30.5126V32.5472H31.502V31.4522H32.7026V30.4916H33.8579V21.6512Z" fill="#010100"/>
<path d="M6.57006 28.2266H4.22986V29.367H6.57006V28.2266Z" fill="#00FF00"/>
<path d="M27.2573 27.1245H16.2313V28.2536H27.2573V27.1245Z" fill="#818181"/>
<path d="M25.193 5.37988H6.36047V6.61547H25.193V5.37988Z" fill="#7F8083"/>
<path d="M7.52446 18.333H6.33514V6.61627H25.193V7.55061H7.53581L7.52446 18.333Z" fill="#000104"/>
<path d="M9.88127 8.6701H8.70068V10.8156H9.88127V8.6701Z" fill="#03FFF8"/>
<path d="M10.8313 9.88037H18.3409V11.7508H17.4066V10.8156H10.8313V9.88037Z" fill="#000206"/>
<path d="M21.6364 11.7508H13.8657V13.161H21.6364V11.7508Z" fill="#0B007F"/>
<path d="M13.8657 16.2259H20.4716V13.1609H21.6364V17.3908H13.8657V16.2259Z" fill="#000100"/>
<path d="M13.8657 14.111H10.8313V14.9999H13.8657V14.111Z" fill="#000100"/>
<path d="M15.0611 13.1609H13.8657V16.2268H15.0611V13.1609Z" fill="#808080"/>
<path d="M11.7202 10.8156H10.8313V14.1111H11.7202V10.8156Z" fill="#808080"/>
<path d="M6.33514 18.3331H24.0124V7.55066H25.193V19.5066H6.33514V18.3331Z" fill="#06007C"/>
<path d="M11.7203 10.8156H17.4066V11.7508H13.8658V14.1111H11.7203V10.8156Z" fill="#FFFFFE"/>
<path d="M20.4716 13.1609H15.0612V16.2268H20.4716V13.1609Z" fill="#FFFFFE"/>
<path d="M0.944824 32.6371V25.1066L29.3722 25.1511V26.1317H2.14461V32.6371H0.944824Z" fill="white"/>
<path d="M28.4422 0.879272H29.387L29.4071 2.08954H28.4422L28.4475 3.02999H27.2267L27.2669 4.24026H5.41481V21.8311H4.25519V4.24026H5.41481V3.05007H6.58491V3.02999H27.2267V2.08954H28.4422V0.879272Z" fill="white"/>
<path d="M25.193 5.37988V19.5067H6.33514V20.7108H26.1317V5.37988H25.193Z" fill="white"/>
<path d="M21.6364 11.7508H20.4715V13.161H21.6364V11.7508Z" fill="#000100"/>
</svg>
