<svg width="40" height="40" viewBox="0 0 40 40" fill="none" xmlns="http://www.w3.org/2000/svg">
<path d="M13.9973 2.28375H20.7968V3.82273H22.8485V6.0858H23.7639V10.7126H24.7865V11.534H25.7152V15.44H26.7513V19.2422H25.7152V17.7938H24.7798V21.8203H25.7152V23.9795H26.7513V25.6091H27.9783V26.2528H25.7152V24.915H24.7899V23.9795H23.7738V21.8203H22.8352V20.7877H21.8075V20.0691H17.8897V21.8203H18.8253V25.6292H16.8689V24.8998H15.9537V22.3402H14.9127V15.4501H13.9973V24.8998H12.7602V23.1648H12.0359V10.7126H11.02V12.2617H10.0846V13.0966H9.04855V13.9113H8.13333V15.44H5.15094V12.2617H5.97077V10.7178H7.10239V9.99845H11.015V5.36666H12.046V3.82273H12.7602V2.89743H13.9973V2.28375Z" fill="#FFF2FB"/>
<path d="M15.9386 0.533691H21.8058V1.35506H23.7605V2.28378H24.7899V2.9007H25.7152V3.82617H26.7412V6.086H27.9767V9.99318H28.6956V16.1617H29.6209V20.0693H30.6496V23.1544H31.8827V24.9014H32.8092V26.238H33.5287V28.0891H34.7619V28.7063H35.8932V29.5293H22.8352V28.7104H17.8966V29.5293H13.994V28.0901H11.0133V27.1648H10.0846V23.9763H9.05863V18.5246H8.13333V17.8038H7.10239V16.9891H5.97076V16.1643H5.15111V15.44H4.12V12.2617H5.15606V10.7178H5.97076V9.99848H7.10239V9.17386H10.0896V5.36668H11.015V3.82275H12.046V2.89745H12.7602V2.28378H13.9973V1.35352H15.9535V2.28378H13.9973V2.89232L12.7602 2.89745V3.81762L12.046 3.82275V5.36668H11.015V9.98856L7.10239 9.99848V10.7127L5.97076 10.7178V12.2516L5.15606 12.2617L5.15111 15.44H9.06376V16.1593H7.09726L7.10239 16.9891H8.13333V17.8038H9.05863L9.06376 16.1593H10.0846V23.9763H11.0099V25.6192H12.0409V27.1631H15.9535V25.6142L12.0409 25.6192V24.8999H16.8689V25.6192H17.8998V26.2376H16.8639V27.1682H17.905L17.8998 26.2376H18.8202V27.158L17.905 27.1682V28.0833H22.8335L22.8352 28.7104H33.5405L33.5287 28.0891H32.8063L32.8092 26.238H31.8759L31.8827 24.9014H30.6639L30.6496 23.1544H29.628L29.6209 20.0693H28.6925L28.6956 16.1617H27.9783L27.9767 9.99318H26.7513L26.7412 6.086H25.7051L25.7152 3.82617H24.7798L24.7899 2.9007H23.7538L23.7605 2.28378H21.8026L21.8058 1.35506L15.9535 1.35352L15.9386 0.533691Z" fill="#FFA6E3"/>
<path d="M19.8546 9.99524H23.7638V10.7127" fill="#FFA6E3"/>
<path d="M24.7865 10.7127V11.534H25.7152V12.2551H24.7865V11.534H23.7639V10.7127H19.8545V11.534H18.8253V12.2551H17.8998V13.9012H19.8511V14.6154H20.78V16.1643H21.8075V16.9824H22.8386V20.7877H23.7605V21.8204H22.8352L22.8386 20.7877H21.8075V20.0693H20.78V19.2422H21.8075V16.9824H20.7766L20.78 16.1643H19.8511V17.8139H20.7766L20.78 19.2422H19.8511V17.8139H18.8186V16.171L19.8511 16.1643V14.6154H18.8253L18.8186 16.171H17.8998V14.6221H16.874V12.2617L17.8998 12.2551V11.5375L18.8253 11.534V10.7127H19.8545V9.99524H23.7639V10.7127H24.7865Z" fill="#FFA6E3"/>
<path d="M15.9537 1.35333V2.28376H20.7967V3.82273H22.8485V6.08581H23.7639V10.7126H24.7865V11.5342H25.7152V15.44H26.7513V19.2422H25.7152V17.7937H24.7798V21.8203H25.7152V23.9797H26.7513V25.6091H27.9783V26.2528H25.7152V24.915H24.7897V23.9797H23.774V21.8203H22.8352V20.7879H21.8075V20.0691H20.7798V19.2422H19.8513V17.8138H18.8185V16.9891H17.8899V21.8203H18.8253V25.6292H16.8689V24.9H15.9537V22.34H14.9126V15.4503H13.9973V24.9H12.76V23.1648H12.0359V10.7126H11.02V12.2617H10.0846V13.0964H9.04854V13.9113H8.13332V15.44H7.08734V16.9891H8.13332V17.8038H9.05862V23.9762H10.0846V27.1648H17.9049V28.0834H22.8335V28.7104H33.5405V28.0891H32.8063V26.238H31.8759V24.9012H30.6638V23.1544H29.6279V20.0691H28.6923V16.1617H27.9783V9.99316H26.7513V6.08598H25.7051V3.82615H24.7798V2.90068H23.7538V2.28376H21.8026V1.35521L15.9537 1.35333Z" fill="#FFD9F3"/>
<path d="M16.874 6.08582H17.8998V6.71607H18.8118V7.64154H19.8545V9.1571H16.874V6.08582Z" fill="black"/>
<path d="M12.7634 6.08582H13.9973V9.1571H12.0527V6.6894H12.7769L12.7634 6.08582Z" fill="black"/>
<path d="M15.9419 10.7126H13.9973V11.5308H15.9419V10.7126Z" fill="black"/>
<path d="M16.8738 34.8703H29.6244L29.6217 35.7934L33.5294 35.7975L33.5287 36.52L35.8931 36.5187V37.9506L33.5289 37.9607L33.5304 38.7838L29.6203 38.783L29.6178 39.7076H16.8738V38.7553H12.7097V37.9103H10.9798V36.4619H12.7365V35.805L16.8764 35.8007L16.8738 34.8703Z" fill="#EBEBEB"/>
</svg>
