<svg width="35" height="35" viewBox="0 0 35 35" fill="none" xmlns="http://www.w3.org/2000/svg">
<path fill-rule="evenodd" clip-rule="evenodd" d="M8.07875 29.2273L9.24571 29.2349V30.315L10.656 30.3073L19.8404 33.0563L23.6146 32.7111L25.0953 32.4057L25.1028 30.472L29.9686 21.0637L29.7864 15.788L29.3939 13.21L29.3875 12.0656L28.3488 12.0664V11.0337H26.8646L19.5637 12.0589L15.6162 10.9662L9.87257 11.5568L7.98841 15.6387L7.35571 19.1413L7.57738 28.047L8.07875 29.2273Z" fill="white"/>
<path d="M25.083 8.91345H27.3138V9.99157H28.3478V11.0324H29.3957L29.3851 12.059L30.4478 12.0596L30.4517 14.2297H31.5147V16.386H32.6673V24.8995L31.5241 24.8993V27.0186H30.4738V29.0634H29.4328V30.1416H28.3176V31.2197H27.2022V32.4094H25.083V33.413H22.0717V34.5284H14.562V33.3387L22.0717 33.413V32.3349L25.083 32.4094V31.2568L27.2022 31.2197V30.1416H28.3176L28.3174 29.0634H29.4328L29.4326 27.0233L30.4738 27.0186V24.8995L31.5241 24.8993L31.5147 16.386L30.4517 16.3779V14.2297H29.3886L29.3851 12.059H28.3488L28.3478 11.0324H27.3043L27.3138 9.99157H25.0738L25.083 8.91345Z" fill="black"/>
<path d="M25.0831 8.91351V7.89118H22.0207V6.8316H15.6355V7.87263H12.4847V9.07624H10.3099V9.95453H9.25049V11.0838H8.05137V12.1432H7.15917L7.14436 14.1647H6.01598V16.4372H4.93323V24.8995H5.98801V23.7563H7.00586V22.8223H5.93237V21.721H7.01274V20.5871H6.00222L6.01598 16.4372L7.14526 16.437L7.14436 14.1647H8.05137V12.1432H9.25049V11.0838H10.296L10.3099 9.95453H13.4886L13.5165 7.87263H14.562V8.82526H15.6215L15.6355 7.87263L22.0207 7.89118V8.91351H25.0831Z" fill="#808080"/>
<path d="M29.3874 13.2023H28.3488V14.2293H29.3874V13.2023Z" fill="#808080"/>
<path d="M30.4424 14.2293H29.3875V15.3587H30.4424V14.2293Z" fill="#808080"/>
<path d="M28.3488 14.2293H27.2939V15.3587H28.3488V14.2293Z" fill="#808080"/>
<path d="M28.3488 12.0588H27.2939V13.1883H28.3488V12.0588Z" fill="#BFBFBF"/>
<path d="M27.3072 13.175H26.2523V14.2299H27.3072V13.175Z" fill="#BFBFBF"/>
<path d="M26.26 14.2223H25.2051V15.2772H26.26V14.2223Z" fill="#BFBFBF"/>
<path d="M25.1981 15.2772H24.1431V16.3111H25.1981V15.2772Z" fill="#BFBFBF"/>
<path d="M24.1421 16.3112H23.0871V17.4303H24.1421V16.3112Z" fill="#BFBFBF"/>
<path d="M31.5135 17.413H30.4585V18.5424H31.5135V17.413Z" fill="#808080"/>
<path d="M29.4038 15.3589H28.3488V16.3859H29.4038V15.3589Z" fill="#808080"/>
<path d="M30.4585 16.3858H29.4037V17.4128H30.4585V16.3858Z" fill="#808080"/>
<path d="M27.3078 15.2703H26.2528V16.3997H27.3078V15.2703Z" fill="#808080"/>
<path d="M30.4726 18.4538H29.4177V19.5832H30.4726V18.4538Z" fill="#808080"/>
<path d="M28.3627 16.3999H27.3079V17.4269H28.3627V16.3999Z" fill="#808080"/>
<path d="M29.4177 17.4269H28.3627V18.4538H29.4177V17.4269Z" fill="#808080"/>
<path d="M26.2528 16.304H25.1979V17.4334H26.2528V16.304Z" fill="#808080"/>
<path d="M27.3078 17.4334H26.2528V18.4604H27.3078V17.4334Z" fill="#808080"/>
<path d="M25.1981 17.4334H24.1431V18.4604H25.1981V17.4334Z" fill="#808080"/>
<path d="M24.1421 18.5516H22.0346V19.588H24.1421V18.5516Z" fill="#808080"/>
<path d="M26.2528 18.4604H25.1979V19.5879H26.2528V18.4604Z" fill="#808080"/>
<path d="M28.3627 18.4604H27.3079V19.5832H28.3627V18.4604Z" fill="#808080"/>
<path d="M23.0477 19.5879H22.0346V22.8223H23.0477V19.5879Z" fill="#808080"/>
<path d="M31.5135 18.5424H30.4585L30.4726 19.5833H29.4177V18.4538H30.4726L30.4585 17.4128H31.5135L31.5147 16.3861L30.4585 16.3858V17.4128H29.4177V18.4538H28.3627V19.5833H27.3078V18.4606L28.3627 18.4538V17.4267L29.4177 17.4128V16.3858H30.4585V15.3589H29.4038L29.4177 16.3858H28.3627V17.4267H27.3078V18.4606H26.2529V19.5879H25.1979V18.4606H26.2529V17.4335L27.3078 17.4267V16.3998L28.3627 16.3858V15.3589H29.4038V14.2293H28.3488L28.3627 15.3589H27.2939L27.3078 16.3998H26.2529V17.4335H25.1979V18.4606H24.1421V19.5879H23.0477V22.8224H22.0346V24.8995H23.0477V25.9963H24.1421V27.0558H25.083V28.2084H26.2529V29.1749H27.2207V30.1416H28.3176V29.0635H29.4328V27.0233H30.4738V24.8995H31.5241L31.5135 18.5424Z" fill="#C0C0C0"/>
<path d="M22.0207 7.89117V8.9135H25.083V9.99162H27.3138V12.059H26.2599V13.175H25.1981V14.2223H24.1431V15.2772H23.0871V16.3111H22.0346V18.5517H20.9563V16.3111H18.8188V7.89117H22.0207Z" fill="#BFBFBF"/>
<path d="M15.6354 7.87244H18.8188V16.3112H16.644V11.0139H15.6354V7.87244Z" fill="#FFFF00"/>
<path d="M15.6215 8.82526H14.562V15.294H15.6215V16.3112H16.644V11.014H15.6354L15.6215 8.82526Z" fill="#00FFFF"/>
<path d="M13.4884 9.95435H12.4429V11.0883H13.4884V9.95435Z" fill="#00FFFF"/>
<path d="M12.4429 9.95435H10.296V11.0836H12.4429V9.95435Z" fill="#00FF00"/>
<path d="M10.2958 11.0836H9.25031V12.1478H10.2958V11.0836Z" fill="#00FF00"/>
<path d="M9.2503 12.1479V15.3637H10.296V16.3111H12.3871V17.4682H13.4884V18.5424H14.5621V19.5879H13.4884V18.5424H12.3976L12.3871 17.4682H11.3624L11.3694 16.3111H9.2503V15.3637H7.14447V14.1647H8.05133V12.1434L9.2503 12.1479Z" fill="#00FFFF"/>
<path d="M15.6215 15.2939H13.4188V16.3582H14.5619V17.4301H16.644V16.3112H15.6215V15.2939Z" fill="#00FF00"/>
<path d="M14.5619 21.7209H13.4838V22.8224H15.603V18.5424H14.5619V21.7209Z" fill="#808080"/>
<path d="M16.644 17.4303H15.603V18.5424H16.644V17.4303Z" fill="#808080"/>
<path d="M16.644 18.5424H15.603V22.8224H16.644V18.5424Z" fill="black"/>
<path d="M7.14167 15.3617H9.24556C9.2466 15.3617 9.2475 15.3626 9.2475 15.3636V16.3071C9.2475 16.3082 9.2484 16.3091 9.24945 16.3091H11.3647C11.3657 16.3091 11.3666 16.31 11.3666 16.311V17.4642C11.3666 17.4653 11.3674 17.4662 11.3684 17.4662H12.3824C12.3834 17.4662 12.3843 17.4669 12.3843 17.468V18.5383C12.3843 18.5394 12.3852 18.5403 12.3863 18.5403H13.4837C13.4849 18.5403 13.4856 18.5412 13.4856 18.5422V19.584C13.4856 19.585 13.4865 19.5859 13.4876 19.5859H14.5573C14.5584 19.5859 14.5591 19.5868 14.5591 19.5879V21.717C14.5591 21.7181 14.5584 21.719 14.5573 21.719L13.4838 21.7209L13.481 22.8183C13.481 22.8194 13.4803 22.8204 13.4791 22.8204H12.3676C12.3665 22.8204 12.3658 22.8212 12.3658 22.8222V23.7989C12.3658 23.8 12.3649 23.8009 12.3638 23.8009H11.3732C11.3722 23.8009 11.3713 23.8018 11.3713 23.8027V24.8956C11.3713 24.8967 11.3704 24.8975 11.3693 24.8975H10.3044C10.3033 24.8975 10.3024 24.8984 10.3024 24.8993V25.9552C10.3024 25.9562 10.3015 25.9571 10.3005 25.9571H9.23553C9.23449 25.9571 9.23359 25.958 9.23359 25.9591V27.0194C9.23359 27.0204 9.23269 27.0213 9.23165 27.0213H8.09235C8.0913 27.0213 8.09041 27.0204 8.09041 27.0194V25.9591C8.09041 25.958 8.0913 25.9571 8.09235 25.9571H9.23165C9.23269 25.9571 9.23359 25.9562 9.23359 25.9552V24.8993C9.23359 24.8984 9.23449 24.8975 9.23553 24.8975H10.3005C10.3015 24.8975 10.3024 24.8967 10.3024 24.8956V23.8075C10.3024 23.8063 10.3033 23.8055 10.3044 23.8055L11.3693 23.8009C11.3704 23.8009 11.3713 23.8 11.3713 23.7989V22.8222C11.3713 22.8212 11.3722 22.8204 11.3732 22.8204H12.3638C12.3649 22.8204 12.3658 22.8194 12.3658 22.8183V21.7209L12.3676 21.719L13.4707 21.7218L13.4838 21.7209V20.587H12.3709L12.3676 21.719H11.3625L11.3713 22.8222H10.3053L10.3044 23.8055H9.23643L9.23553 24.8975H8.08637L8.09235 25.9571H7.01289V24.8995L8.08637 24.8975V23.7912L9.23643 23.8055V22.8222H10.3053V21.7209L11.3625 21.719V20.587H10.3053V21.7209H9.22252L9.23643 22.8222H8.07934L8.08637 23.7912L7.01289 23.798V24.8995H5.98816L5.98113 23.7946L6.61547 23.7964L7.01289 23.798L7.00586 22.8222H8.07934V21.7209H9.22252V20.587H8.07231L8.07934 21.7209H7.01289L7.00586 22.8222H5.93237V21.7209H7.01289V20.587H6.00222V16.4371H7.14526L7.14167 15.3617Z" fill="#C0C0C0"/>
<path d="M5.98816 24.8995H7.01273V23.7979H8.08636V22.8224H7.00585V21.7209H8.07933V20.587H9.22252V21.7209H8.07933L8.08636 22.8224H9.23643L9.22252 21.7209H10.3053V20.587H11.3625V21.719L10.3053 21.7209V22.8222L9.23643 22.8224V23.8054L8.08636 23.7979V24.8976L7.01273 24.8995V25.9571H8.09235L8.08636 24.8976H9.23553L9.23643 23.8054H10.3044L10.3053 22.8222H11.3732L11.3625 21.719H12.3676V20.587H13.4838V21.7209L12.3676 21.719V22.8203L11.3732 22.8222V23.8009L10.3044 23.8054V24.8976H9.23553V25.9571H8.09235V27.0214H9.23359L9.23553 25.9571H10.3024L10.3044 24.8976H11.3713L11.3732 23.8009H12.3658L12.3676 22.8203H13.4812V23.8042L12.3658 23.8009V24.8995L11.3713 24.8976V25.9591L10.3024 25.9571V27.0233L9.23359 27.0214V28.1153H8.08397V29.2214H9.2457V30.3088H10.3053V31.3219H12.3779V32.3907H14.562V33.3387H12.3686L12.3779 32.3907H10.3053V31.3219H9.2457V30.3088H8.08397V29.2214H7.01273V27.0233H5.98816V24.8995Z" fill="#808080"/>
<path d="M15.603 22.8224V23.8052L16.6438 23.8016V24.8995H20.9563V25.9452H22.0346V28.12H23.0476V30.2669H24.1536V32.3864H23.0476V30.2669H22.0346V28.12H20.9563V25.9452C20.9563 25.9452 19.8387 25.9847 19.8783 25.9452C19.9178 25.9057 19.8783 24.8995 19.8783 24.8995H18.7722V25.8894H17.7676V27.0233H18.828V28.1479H17.7676V29.1797H18.828V30.2808H17.736V31.3543H18.828V32.3864H17.736V33.3701H14.5619V32.3907H12.3779V31.3219H10.3052V29.0635H9.24567V28.1153H10.3052V27.0233H11.3694V25.9591H12.3453V24.8995H13.4838V23.8042H14.5434V24.8995H13.4838V25.9591H12.3453V27.0233H11.3694V28.0962L10.3052 28.1153V29.0635H11.3555L11.3694 28.0962H12.3314L12.3453 27.0233H13.4838V25.9591H14.5434V24.8995H15.603V23.8052L14.5434 23.8042V22.8224H15.603Z" fill="#C0C0C0"/>
<path d="M19.8784 25.9452V24.8995H18.7723V25.8894H17.7677V27.0235H18.8281V28.148H17.7677V29.1797H18.8281V30.2809H17.736V31.3543H18.8281V32.3864H17.736V33.3703H20.9565V30.3088H19.8597L19.8784 25.9452Z" fill="#FFFF00"/>
<path d="M20.9565 25.9452H19.8782V30.3088H20.9565V33.402H22.0719V32.3349H23.0477V30.2669H22.0346V28.12H20.9565V25.9452Z" fill="#00FF00"/>
<path d="M20.9565 23.8121H22.0346V24.8995H23.0477V25.9963H24.1421V27.0558H25.0832V28.2084H26.2529V29.1749H27.2207V31.2197H24.1537V30.2669H23.0477V28.12H22.0346V25.9452H20.9565V23.8121Z" fill="#00FFFF"/>
<path d="M20.9565 22.8224H16.644V23.8123H20.9565V22.8224Z" fill="black"/>
<path d="M20.9565 23.8121H16.644V24.8995H20.9565V23.8121Z" fill="#808080"/>
<path d="M16.644 22.8223H15.603V23.8121H16.644V22.8223Z" fill="#818181"/>
<path d="M20.9563 17.4303H16.6439V18.5516H20.9563V17.4303Z" fill="black"/>
<path d="M20.9565 16.311H16.644V17.4301H20.9565V16.311Z" fill="#808080"/>
<path d="M20.9563 18.5516H19.7946V22.8224H20.9563V18.5516Z" fill="#808080"/>
<path d="M22.0344 18.5516H20.9563V22.8224H22.0344V18.5516Z" fill="black"/>
<path d="M22.0344 22.8224H20.9563V23.8123H22.0344V22.8224Z" fill="#808080"/>
<path d="M10.296 16.311H13.4188V15.294H14.5619V3.52752H12.3593V2.46795H10.296V1.38041H9.24569V0.251282H7.01287V7.87246H3.89697V8.91348H2.75378V12.1478H3.91088V13.2213H7.14434V12.1432H8.0515V4.57992H10.3053V5.61167H11.3973V6.83158H13.4886V11.0883H10.296V12.1478H9.25047V15.3638H10.296V16.311Z" fill="black"/>
<path d="M4.93323 8.91345H3.86902V11.0838H4.93323V8.91345Z" fill="#FCFCFC"/>
<path d="M11.4484 12.1478H10.296V14.239H11.4484V12.1478Z" fill="#FCFCFC"/>
<path d="M10.3052 13.2213H11.4484V14.239H10.296L10.3052 13.2213Z" fill="#C0C0C0"/>
<path d="M4.93323 9.99866H3.86902V11.0838H4.93323V9.99866Z" fill="#C0C0C0"/>
</svg>
