<svg width="19" height="20" viewBox="0 0 19 20" fill="none" xmlns="http://www.w3.org/2000/svg">
<path d="M3.15112 3.33031H3.51592V3.12877H3.92828V2.90787H4.30274V2.76397H4.68648V2.55275H4.91705V2.34154H5.29112V2.13999H5.65591V1.94812H6.07794V1.7756H6.26054V1.57406H6.65396V1.34349H6.86517V1.17097H7.24891V0.988371H7.63306V0.786827H7.82493V0.585283H8.03574V0.374468H8.40053V0.211218H8.8133V0H9.02331V2.13999H10.1761V2.33227H10.9823V2.52414H11.7405V2.72568H12.556V2.93649H12.9208V3.11909H13.3335V3.33031H13.7269V3.52218H14.1203V3.70438H14.3412V3.90592H14.5234V4.10746H14.9076V4.30901H15.1091V4.51055H15.3103V4.70242H15.5118V4.90396H15.7041V5.07689H15.8992V5.46708H16.0975V5.6912H16.2829V6.07493H16.4812V6.45222H16.6606H16.8714V6.86176H17.0697V7.23945H17.2491V7.6103H17.441V8.21815H17.6776V8.82601H17.8312V9.5298H18.0617V12.3385H17.8505V12.9206H17.6711V13.7143H17.4474V14.3157H17.2681V14.8848H17.0762V15.2879H16.8714V15.4798H16.6667V15.8639H16.4748V16.0751H16.2765V16.2799H16.0781V16.4718H15.8863V16.8684H15.688V17.2522H15.3103V17.4698H15.0994V17.6363H14.9011V17.8407H14.6964V18.0454H14.3122V18.2248H14.1203V18.4102H13.7366V18.6279H13.5383V18.8004H13.1352V19.031H12.764V19.2228H12.1561V19.4276H11.574V19.6001H10.7808V19.8049H9.41793V17.2651H10.6062V17.049H11.1693V16.8571H11.5676V16.6556H11.9707V16.4782H12.35V16.2767H12.7527V16.0703H12.9639V15.8784H13.132V15.6769H13.3384V15.4895H13.5302V15.2927H13.7269V15.1057H13.9333V14.9042H14.1349V14.7026H14.3219V14.314H14.5045V13.9206H14.7298V13.5127H14.9027V12.9319H15.1184V12.1402H15.2962V9.8035H15.1091V8.80988H14.9076V8.43098H14.5186V7.82635H14.3267V7.62964H14.1155V7.25034H13.9333V7.04436H13.7269V6.84282H13.5206V6.45867H12.9498V6.05559H12.556V5.86855H12.1626V5.66217H11.774V5.48481H11.3806V5.27843H10.9823V5.07205H10.5792V4.88018H9.80167V4.67864H9.01242V7.03952H8.82297V6.84765H8.43883V6.65538H8.23728V6.45867H7.83903V6.2668H7.45046V6.0701H7.07639V5.86855H6.66847V5.67185H6.26538V5.49892H6.06867V5.28811H5.68937V5.06238H5.29595V4.88502H5.0799V4.69275H4.701V4.4912H4.31726V4.29933H3.91901V4.10263H3.72431V3.90108H3.53003V3.70921H3.15112V3.33031Z" fill="black"/>
<path d="M8.63084 17.2522H7.65174V17.0668H7.05678V16.862H6.66659V16.6508H6.26995V16.4678H5.68427V16.269H5.10059V16.4641H4.90026V16.6612H4.70678V16.8563H4.50644V17.0603H4.31135V17.2522H4.11626V17.4505H3.91753V17.642H3.72607V17.8391H3.52734V18.2345H3.72607V18.4227H3.91915V18.6267H4.12351V18.8182H4.31296H4.5137V19.0205H4.90752V19.212H5.29246V19.4035H5.68628V19.6074H6.07889H6.66699V19.8049H7.65174V20H8.63084V17.2522Z" fill="black"/>
<path d="M2.74447 13.7207H3.3362V13.9126H3.5313V14.1141H3.72317V14.3157V14.4979H3.92471V14.7058H4.12021V14.9009H4.31208V15.0896V15.2944H4.51685V15.6753H4.30885V15.8893H4.11698V16.0655H3.92148V16.269H3.72317V16.475H3.52726V16.6669H3.33298V17.0603H3.13466V17.2489H2.94601V17.4283H2.74447V17.2489H2.54937V17.0571H2.34783V16.8458H2.14951V16.6636H1.95764V16.4686H1.75932V16.269H1.56383V16.0687V15.8736H1.36551V15.6753V15.4895H1.16074V15.0928H0.978542V14.8977H0.783447V14.7058V14.5011H0.978542V14.3092H1.37518V14.1077H1.7561V13.9126H2.16523H2.5526V13.7207H2.74447Z" fill="black"/>
<path d="M0 11.5646H2.74462V12.7351H2.5463V12.9335H2.14967V13.1193H1.75948V13.3236H1.37211H1.17702V13.522H0.761029V13.7207H0.37729V13.1128H0.17897V12.5368H0V11.5646Z" fill="black"/>
</svg>
